<svg id="Capa_1" data-name="Capa 1" xmlns="http://www.w3.org/2000/svg" viewBox="0 0 437 84"><defs><style>.cls-1{fill:#f7f7f7;}.cls-2{fill:#df011f;}.cls-3{isolation:isolate;}.cls-4{fill:#e5e5e5;}</style></defs><title>Mobil Puebla</title><g id="Grupo_3" data-name="Grupo 3"><g id="Grupo_1" data-name="Grupo 1"><g id="Trazado_1" data-name="Trazado 1"><path class="cls-1" d="M64.7,10.63v58.9H52.4V27.93h-.1c-.1.1-.1.3-.2.4-3.8,13.4-7.6,26.8-11.4,40.3-.2.7-.4.9-1.2.9-3.2-.1-6.4,0-9.5,0h-.8L17.6,27.93h-.2v41.6H5.2V10.63H24.3L35,46.73h.2l10.9-36.1Z"/></g><g id="Trazado_2" data-name="Trazado 2"><path class="cls-1" d="M132.3,10.63c0,.2-.1.4-.1.6v18.4c.5-.4,1-.7,1.4-1a18,18,0,0,1,16.2-2.3c8.7,2.7,13.8,8.9,15.4,17.8a21.9,21.9,0,0,1-7.1,21,20.1,20.1,0,0,1-19.7,4.7,16.58,16.58,0,0,1-3.3-1.5,31.55,31.55,0,0,1-2.9-2.2v3.6H120V10.93Zm10.5,26.9A10.5,10.5,0,1,0,153.3,48h0a10.44,10.44,0,0,0-10.5-10.5Z"/></g><g id="Trazado_3" data-name="Trazado 3"><path class="cls-2" d="M89.7,70.83c-.6-.1-1.3-.3-1.9-.4a22.74,22.74,0,1,1,8.2.1,14.16,14.16,0,0,0-2,.4Zm12.7-22.9a10.45,10.45,0,1,0-10.5,10.5,10.41,10.41,0,0,0,10.5-10.5Z"/></g><g id="Trazado_4" data-name="Trazado 4"><path class="cls-1" d="M202.1,69.53H189.8V10.63h12.3Z"/></g><g id="Trazado_5" data-name="Trazado 5"><path class="cls-1" d="M183.1,10.63v11.6H170.9V11.53a2,2,0,0,0-.1-.8Z"/></g><g id="Trazado_6" data-name="Trazado 6"><path class="cls-1" d="M170.9,26.43H183v43.1H170.8V26.43Z"/></g></g><g class="cls-3"><path class="cls-4" d="M264,18h15.6q6.15,0,9.6,3a10.29,10.29,0,0,1,3.5,8.2,10.29,10.29,0,0,1-3.5,8.2c-2.3,2-5.5,3-9.5,3H267.6v18.2H264Zm15.3,19.3q4.8,0,7.2-2.1a7.61,7.61,0,0,0,2.5-6,7.3,7.3,0,0,0-2.5-6q-2.4-2.1-7.2-2.1H267.4v16.2Z"/><path class="cls-4" d="M322.8,30.07v28.6h-3.4v-5.2a9.9,9.9,0,0,1-3.9,4.2,11.09,11.09,0,0,1-5.8,1.4c-3.3,0-5.9-.9-7.6-2.8s-2.6-4.6-2.6-8.3V30.07h3.4v17.7c0,2.8.6,4.9,1.7,6.2s2.9,2,5.3,2a8.59,8.59,0,0,0,6.7-2.7,9.69,9.69,0,0,0,2.5-7V30.07Z"/><path class="cls-4" d="M334.1,43.87v.2c0,3.8.9,6.8,2.7,8.8s4.3,3,7.7,3a14.62,14.62,0,0,0,9.4-3.5l1.4,2.7a14.14,14.14,0,0,1-4.8,2.8,17.25,17.25,0,0,1-6,1.1c-4.3,0-7.8-1.3-10.3-3.9s-3.8-6.2-3.8-10.8a17.87,17.87,0,0,1,1.7-7.8,11.91,11.91,0,0,1,4.7-5.2,13.31,13.31,0,0,1,7-1.9c3.8,0,6.7,1.2,8.8,3.6s3.2,5.8,3.2,10.1v.7H334.1Zm3.3-9.3a11.37,11.37,0,0,0-3.1,6.6h18.1a10.27,10.27,0,0,0-2.6-6.7,8.22,8.22,0,0,0-6.1-2.3A8.84,8.84,0,0,0,337.4,34.57Z"/><path class="cls-4" d="M383.3,31.17a12.45,12.45,0,0,1,4.5,5.1,18.69,18.69,0,0,1,1.6,7.8,17.25,17.25,0,0,1-1.6,7.8A12.07,12.07,0,0,1,376.7,59a11.74,11.74,0,0,1-6.1-1.5,9.11,9.11,0,0,1-3.8-4.4v5.6h-3.5v-42h3.4v18.8a8.92,8.92,0,0,1,3.8-4.5,13.61,13.61,0,0,1,12.8.2Zm-.2,21.6c1.7-2.1,2.5-5,2.5-8.7s-.8-6.6-2.5-8.6a9.45,9.45,0,0,0-14,0,14.06,14.06,0,0,0-2.5,8.7c0,3.7.8,6.7,2.5,8.7a8.52,8.52,0,0,0,7,3C379.2,55.87,381.5,54.87,383.1,52.77Z"/><path class="cls-4" d="M396.9,58.57v-42h3.4v42Z"/><path class="cls-4" d="M434.2,30.07v28.6h-3.5v-5.5a9.11,9.11,0,0,1-3.8,4.4,11.74,11.74,0,0,1-6.1,1.5,12.44,12.44,0,0,1-6.7-1.8,11.58,11.58,0,0,1-4.4-5.1,18.69,18.69,0,0,1-1.6-7.8,17.25,17.25,0,0,1,1.6-7.8,12.07,12.07,0,0,1,11.1-7.1,11.62,11.62,0,0,1,6,1.5,8.88,8.88,0,0,1,3.8,4.3v-5.1h3.6Zm-6,22.8c1.6-2.1,2.5-4.9,2.5-8.7s-.8-6.7-2.5-8.7a8.31,8.31,0,0,0-7-3.1,8.51,8.51,0,0,0-7,3.2c-1.7,2.1-2.5,5-2.5,8.8s.8,6.5,2.5,8.6a9.56,9.56,0,0,0,14-.1Z"/></g><g id="Trazado_7" data-name="Trazado 7"><rect class="cls-1" x="234.8" y="3.97" width="1" height="73.7"/></g></g></svg>