<?xml version="1.0" encoding="utf-8"?>
<!-- Generator: Adobe Illustrator 24.0.2, SVG Export Plug-In . SVG Version: 6.00 Build 0)  -->
<svg version="1.1" id="Capa_1" xmlns="http://www.w3.org/2000/svg" xmlns:xlink="http://www.w3.org/1999/xlink" x="0px" y="0px"
	 viewBox="0 0 500 500" style="enable-background:new 0 0 500 500;" xml:space="preserve">
<style type="text/css">
	.st0{fill:#E6353A;}
	.st1{fill:#363334;}
	.st2{fill:#75B851;}
	.st3{fill:#00833E;}
	.st4{fill:#CE0E2D;}
	.st5{fill:#FFFFFF;}
</style>
<g>
	<g>
		<g id="XMLID_1_">
			<g>
				<path class="st0" d="M249.7,18.2c80.4,0,145.5,65.1,145.5,145.5s-65.1,145.5-145.5,145.5c-80.4,0-145.5-65.1-145.5-145.5
					S169.4,18.2,249.7,18.2z M370.4,163.7C370.4,97,316.4,43,249.7,43c-66.7,0-120.7,54-120.7,120.7s54,120.7,120.7,120.7
					C316.4,284.3,370.4,230.3,370.4,163.7z"/>
				<path class="st1" d="M305.3,180.7l39.5,2.1c-3,14.3-9.1,27.4-17.5,38.6L299.7,193C302,189.2,303.9,185.1,305.3,180.7z"/>
				<path class="st2" d="M344.4,141l-140.8,57.5c10.7,13.8,27.4,22.7,46.2,22.7c6.5,0,12.7-1,18.5-3l-24.3,41.6
					c-50.9-3.1-91.2-45.3-91.2-96.9c0-53.6,43.5-97.1,97.1-97.1C295.9,65.9,334.4,98,344.4,141z M191.5,161.7l99-40.4
					c-10.5-10.3-24.9-16.6-40.7-16.6C218,104.7,191.9,130,191.5,161.7z"/>
				<path class="st3" d="M298.3,195.2l27.4,28.3c-7.3,9.1-16.2,16.9-26.2,22.9l-9.9-40.9C292.9,202.4,295.8,199,298.3,195.2z"/>
				<path class="st4" d="M287.6,207.3l9.8,40.3c-14.1,7.9-30.3,12.4-47.6,12.4c-1.1,0-2.3,0-3.5-0.1l25.1-42.9
					C277.4,214.7,282.8,211.4,287.6,207.3z"/>
				<path class="st5" d="M290.5,121.2l-99,40.4c0.3-31.6,26.5-57,58.3-57C265.6,104.7,280,111,290.5,121.2z"/>
				<path class="st5" d="M243.9,259.8l24.3-41.6c-5.8,2-12,3-18.5,3c-18.8,0-35.5-8.9-46.2-22.7L344.4,141
					c-10-43-48.5-75.1-94.6-75.1c-53.6,0-97.1,43.5-97.1,97.1C152.7,214.6,193,256.8,243.9,259.8z M299.7,193l27.6,28.4
					c8.5-11.2,14.6-24.3,17.5-38.6l-39.5-2.1C303.9,185.1,302,189.2,299.7,193z M297.4,247.6l-9.8-40.3c-4.8,4.1-10.2,7.4-16.2,9.8
					L246.3,260c1.2,0,2.3,0.1,3.5,0.1C267.1,260,283.3,255.5,297.4,247.6z M299.5,246.4c10.1-6,19-13.8,26.2-22.9l-27.4-28.3
					c-2.5,3.8-5.4,7.2-8.7,10.3L299.5,246.4z M249.7,43c66.6,0,120.7,54,120.7,120.7s-54,120.7-120.7,120.7
					c-66.7,0-120.7-54-120.7-120.7S183.1,43,249.7,43z"/>
			</g>
		</g>
	</g>
	<path class="st5" d="M8.2,374.4c0,3.6,0.5,7,1.4,10.2c0.9,3.2,2.3,6,4.2,8.4c1.8,2.4,4.2,4.2,7,5.7c2.8,1.4,6.1,2.1,9.8,2.1
		c5.1,0,9.4-1.3,13-4c3.6-2.7,6-6.4,7.2-11.3h8.6c-0.9,3.2-2.2,6.1-3.7,8.8c-1.5,2.7-3.5,5.1-5.8,7.1c-2.3,2-5.1,3.6-8.2,4.7
		c-3.2,1.1-6.9,1.7-11.1,1.7c-5.3,0-9.9-0.9-13.8-2.7c-3.9-1.8-7-4.3-9.5-7.4c-2.5-3.1-4.3-6.8-5.5-11.1c-1.2-4.2-1.8-8.8-1.8-13.7
		s0.7-9.5,2.1-13.8c1.4-4.3,3.4-8,6-11.3c2.6-3.2,5.8-5.7,9.6-7.6c3.8-1.8,8.1-2.8,12.9-2.8c9.2,0,16.4,3.2,21.6,9.5
		c5.2,6.3,7.8,15.5,7.7,27.5H8.2z M51.7,368c0-3.3-0.5-6.3-1.4-9.2c-0.9-2.9-2.2-5.4-4-7.5c-1.8-2.1-4-3.8-6.6-5
		c-2.7-1.2-5.7-1.9-9.1-1.9c-3.4,0-6.5,0.6-9.1,1.9c-2.6,1.3-4.8,3-6.7,5.1c-1.8,2.1-3.3,4.6-4.4,7.5c-1.1,2.8-1.8,5.8-2.2,9H51.7z"
		/>
	<path class="st5" d="M122.8,334.9h7.7l0,73h-7.7v-11.6c-1,1.2-2.2,2.4-3.5,3.7c-1.3,1.3-2.8,2.5-4.4,3.5c-1.7,1.1-3.6,2-5.9,2.7
		c-2.2,0.7-4.8,1.1-7.7,1.1c-4.5,0-8.2-0.6-11.2-1.9c-3-1.2-5.4-3-7.3-5.2c-1.8-2.2-3.2-4.8-4-7.8c-0.8-3-1.2-6.2-1.2-9.7l0-47.9
		h7.7l0,47.8c0,5.7,1.3,10.1,4,13.2c2.7,3,7,4.6,13.1,4.6c3.2,0,6-0.6,8.6-1.9c2.5-1.2,4.7-3,6.4-5.2c1.7-2.2,3-4.9,4-8
		c0.9-3.1,1.4-6.5,1.4-10.2L122.8,334.9z"/>
	<path class="st5" d="M192.7,361.6c-0.3-2.6-1.2-4.9-2.6-6.9c-2-2.8-5.1-4.1-9.4-4.1c-6,0-10.2,3-12.4,9c-1.2,3.2-1.8,7.4-1.8,12.7
		c0,5,0.6,9,1.8,12.1c2.1,5.7,6.2,8.5,12.1,8.5c4.2,0,7.2-1.1,8.9-3.4c1.8-2.3,2.8-5.2,3.2-8.8h18.3c-0.4,5.4-2.4,10.6-5.9,15.5
		c-5.6,7.8-13.9,11.7-25,11.7c-11,0-19.1-3.3-24.3-9.8c-5.2-6.5-7.8-15-7.8-25.4c0-11.7,2.9-20.9,8.6-27.4
		c5.7-6.5,13.7-9.8,23.8-9.8c8.6,0,15.6,1.9,21.1,5.8c5.5,3.9,8.7,10.7,9.7,20.4H192.7z"/>
	<path class="st5" d="M289.5,397c-5.8,7.1-14.6,10.7-26.3,10.7c-11.8,0-20.5-3.6-26.3-10.7c-5.8-7.1-8.7-15.7-8.7-25.8
		c0-9.9,2.9-18.4,8.7-25.7s14.6-10.9,26.3-10.9c11.8,0,20.5,3.6,26.3,10.9c5.8,7.2,8.7,15.8,8.7,25.7
		C298.2,381.3,295.3,389.9,289.5,397z M275.2,387.1c2.8-3.7,4.2-9,4.2-15.9c0-6.9-1.4-12.1-4.2-15.8c-2.8-3.7-6.8-5.6-12.1-5.6
		c-5.2,0-9.3,1.9-12.1,5.6c-2.8,3.7-4.2,9-4.2,15.8c0,6.9,1.4,12.1,4.2,15.9c2.8,3.7,6.9,5.6,12.1,5.6
		C268.4,392.7,272.4,390.8,275.2,387.1z"/>
	<path class="st5" d="M401.2,337.2c2.9,1.2,5.6,3.2,8,6.2c1.9,2.4,3.2,5.3,3.9,8.8c0.4,2.3,0.6,5.7,0.6,10.1l-0.1,45.4h-18.3v-45.9
		c0-2.6-0.4-4.7-1.3-6.4c-1.6-3.2-4.5-4.8-8.8-4.8c-4.9,0-8.4,2.1-10.2,6.2c-1,2.2-1.4,4.8-1.4,7.9v43.1h-18v-43.1
		c0-4.1-0.4-7-1.3-8.9c-1.5-3.3-4.5-5-8.9-5c-5.1,0-8.5,1.7-10.3,5c-1,1.9-1.4,4.7-1.4,8.4v43.5h-18.2v-72.9h17.4V347
		c2.2-3.6,4.3-6.1,6.3-7.6c3.5-2.7,8-4,13.5-4c5.2,0,9.5,1.2,12.7,3.5c2.6,2.1,4.6,4.9,5.9,8.2c2.3-4,5.3-7,8.7-8.9
		c3.7-1.9,7.8-2.8,12.3-2.8C395.3,335.4,398.3,336,401.2,337.2z"/>
	<path class="st5" d="M490,345.2c5.1,6.5,7.7,14.9,7.7,25.1c0,10.6-2.5,19.5-7.6,26.4c-5.1,7-12.1,10.5-21.1,10.5
		c-5.7,0-10.2-1.1-13.7-3.4c-2.1-1.3-4.3-3.7-6.7-7v10.9H431v-94.8h17.9v32.9c2.3-3.2,4.8-5.6,7.5-7.3c3.2-2.1,7.4-3.1,12.4-3.1
		C477.8,335.4,484.9,338.7,490,345.2z M475.1,386.9c2.6-3.7,3.9-8.6,3.9-14.7c0-4.9-0.6-8.9-1.9-12.1c-2.4-6-6.8-9-13.3-9
		c-6.5,0-11,3-13.5,8.9c-1.3,3.1-1.9,7.2-1.9,12.2c0,5.9,1.3,10.7,3.9,14.6c2.6,3.9,6.6,5.8,12,5.8
		C468.9,392.5,472.5,390.6,475.1,386.9z"/>
	<g>
		<path class="st5" d="M241.4,434.3c1.6,0.7,3,1.9,4,3.6v-3.6h6.6V458c0,3.2-0.6,5.6-1.7,7.3c-1.9,2.8-5.6,4.2-11.1,4.2
			c-3.3,0-6-0.6-8.1-1.9s-3.2-3.1-3.5-5.6h7.3c0.2,0.8,0.5,1.3,0.9,1.6c0.7,0.6,1.9,0.9,3.7,0.9c2.4,0,4.1-0.8,4.9-2.4
			c0.5-1,0.8-2.7,0.8-5.1v-1.6c-0.6,1.1-1.3,1.9-2.1,2.4c-1.3,1-3.1,1.5-5.2,1.5c-3.3,0-6-1.1-7.9-3.4s-3-5.3-3-9.1
			c0-3.7,1-6.8,2.9-9.3s4.6-3.8,8.1-3.8C239.3,433.8,240.5,433.9,241.4,434.3z M243.7,452.2c1.1-1.2,1.6-3,1.6-5.5
			c0-2.4-0.5-4.2-1.5-5.4s-2.4-1.9-4.1-1.9c-2.4,0-4,1.1-4.9,3.2c-0.5,1.1-0.7,2.6-0.7,4.2c0,1.5,0.3,2.7,0.8,3.9
			c0.9,2.1,2.5,3.2,4.9,3.2C241.3,453.9,242.6,453.4,243.7,452.2z"/>
		<path class="st5" d="M268.9,444.1c1.3-0.2,2.2-0.3,2.7-0.6c1-0.4,1.5-1,1.5-1.9c0-1-0.4-1.7-1.1-2.1c-0.7-0.4-1.8-0.6-3.3-0.6
			c-1.6,0-2.8,0.4-3.4,1.1c-0.5,0.6-0.8,1.3-1,2.3h-6.5c0.1-2.2,0.8-4,1.9-5.4c1.8-2.2,4.9-3.3,9.2-3.3c2.8,0,5.4,0.5,7.6,1.6
			c2.2,1.1,3.3,3.1,3.3,6.1V453c0,0.8,0,1.8,0,2.9c0,0.9,0.2,1.4,0.4,1.7c0.2,0.3,0.6,0.6,1,0.8v1h-7.3c-0.2-0.5-0.3-1-0.4-1.4
			c-0.1-0.4-0.1-0.9-0.2-1.5c-0.9,1-2,1.8-3.2,2.5c-1.5,0.8-3.1,1.2-4.9,1.2c-2.3,0-4.3-0.6-5.8-1.9c-1.5-1.3-2.3-3.1-2.3-5.5
			c0-3.1,1.2-5.3,3.7-6.7c1.3-0.7,3.3-1.3,6-1.6L268.9,444.1z M273.1,447.2c-0.4,0.3-0.9,0.5-1.3,0.6s-1,0.3-1.8,0.4l-1.5,0.3
			c-1.4,0.2-2.5,0.5-3.1,0.9c-1.1,0.6-1.6,1.5-1.6,2.8c0,1.1,0.3,1.9,1,2.4c0.6,0.5,1.4,0.7,2.4,0.7c1.5,0,2.8-0.4,4.1-1.2
			c1.2-0.8,1.9-2.3,1.9-4.5V447.2z"/>
		<path class="st5" d="M291.4,451.3c0.1,1.2,0.5,2,0.9,2.5c0.8,0.9,2.4,1.3,4.7,1.3c1.3,0,2.4-0.2,3.2-0.6c0.8-0.4,1.2-1,1.2-1.7
			c0-0.7-0.3-1.3-0.9-1.7c-0.6-0.4-3-1-7-2c-2.9-0.7-5-1.6-6.2-2.6c-1.2-1-1.8-2.5-1.8-4.5c0-2.3,0.9-4.3,2.8-5.9
			c1.9-1.7,4.5-2.5,7.9-2.5c3.2,0,5.8,0.6,7.9,1.9c2,1.2,3.2,3.4,3.5,6.4h-6.7c-0.1-0.8-0.3-1.5-0.7-2c-0.7-0.9-2-1.3-3.8-1.3
			c-1.5,0-2.5,0.2-3.1,0.7c-0.6,0.4-0.9,1-0.9,1.6c0,0.7,0.3,1.3,1,1.6c0.7,0.4,3,1,7,1.8c2.7,0.6,4.7,1.5,6,2.8
			c1.3,1.3,2,2.8,2,4.7c0,2.5-1,4.5-2.9,6.1s-4.8,2.3-8.8,2.3c-4.1,0-7.1-0.8-9-2.5c-1.9-1.7-2.9-3.8-2.9-6.3H291.4z"/>
		<path class="st5" d="M335.1,456.2c-2.2,2.6-5.5,3.9-9.9,3.9s-7.7-1.3-9.9-3.9c-2.2-2.6-3.3-5.7-3.3-9.4c0-3.6,1.1-6.7,3.3-9.3
			c2.2-2.6,5.5-4,9.9-4s7.7,1.3,9.9,4c2.2,2.6,3.3,5.8,3.3,9.3C338.3,450.5,337.2,453.6,335.1,456.2z M329.7,452.6
			c1.1-1.4,1.6-3.3,1.6-5.8s-0.5-4.4-1.6-5.8c-1.1-1.3-2.6-2-4.5-2s-3.5,0.7-4.6,2c-1.1,1.3-1.6,3.3-1.6,5.8s0.5,4.4,1.6,5.8
			c1.1,1.4,2.6,2,4.6,2S328.6,454,329.7,452.6z"/>
		<path class="st5" d="M350.5,459.3h-6.7v-33.7h6.7V459.3z"/>
		<path class="st5" d="M364.5,431.4h-6.8v-6h6.8V431.4z M357.7,434.3h6.8v24.9h-6.8V434.3z"/>
		<path class="st5" d="M392.3,435.8c1.7,1.3,2.5,3.6,2.5,6.7v16.8h-6.9v-15.2c0-1.3-0.2-2.3-0.5-3c-0.7-1.3-1.9-1.9-3.8-1.9
			c-2.3,0-3.8,0.9-4.7,2.8c-0.4,1-0.7,2.3-0.7,3.8v13.5h-6.7v-24.9h6.5v3.6c0.9-1.3,1.7-2.2,2.4-2.8c1.4-1,3.1-1.5,5.2-1.5
			C388.4,433.8,390.6,434.4,392.3,435.8z"/>
		<path class="st5" d="M418.4,434.9c1.8,0.8,3.3,2,4.5,3.7c1.1,1.5,1.7,3.2,2.1,5.2c0.2,1.1,0.3,2.8,0.2,4.9h-18.8
			c0.1,2.5,1,4.3,2.7,5.3c1,0.6,2.3,0.9,3.7,0.9c1.5,0,2.8-0.4,3.7-1.1c0.5-0.4,1-1,1.4-1.7h6.9c-0.2,1.5-1,3-2.5,4.5
			c-2.3,2.4-5.5,3.6-9.7,3.6c-3.4,0-6.5-1-9.1-3.1s-3.9-5.4-3.9-10c0-4.3,1.2-7.6,3.6-9.9c2.4-2.3,5.4-3.5,9.2-3.5
			C414.5,433.7,416.6,434.1,418.4,434.9z M408.3,440.5c-1,1-1.6,2.2-1.8,3.9h11.6c-0.1-1.7-0.7-3-1.8-3.9c-1.1-0.9-2.4-1.3-4-1.3
			C410.6,439.1,409.2,439.5,408.3,440.5z"/>
		<path class="st5" d="M443.3,433.8c0.1,0,0.3,0,0.6,0v6.7c-0.4,0-0.8-0.1-1.1-0.1c-0.3,0-0.6,0-0.8,0c-2.7,0-4.5,0.9-5.5,2.6
			c-0.5,1-0.8,2.4-0.8,4.4v11.9h-6.8v-24.9h6.4v4.3c1-1.7,1.9-2.8,2.7-3.4c1.3-1,2.9-1.5,4.9-1.5
			C443.1,433.8,443.2,433.8,443.3,433.8z"/>
		<path class="st5" d="M458.5,444.1c1.3-0.2,2.2-0.3,2.7-0.6c1-0.4,1.5-1,1.5-1.9c0-1-0.4-1.7-1.1-2.1c-0.7-0.4-1.8-0.6-3.3-0.6
			c-1.6,0-2.8,0.4-3.4,1.1c-0.5,0.6-0.8,1.3-1,2.3h-6.5c0.1-2.2,0.8-4,1.9-5.4c1.8-2.2,4.9-3.3,9.2-3.3c2.8,0,5.4,0.5,7.6,1.6
			c2.2,1.1,3.3,3.1,3.3,6.1V453c0,0.8,0,1.8,0,2.9c0,0.9,0.2,1.4,0.4,1.7c0.2,0.3,0.6,0.6,1,0.8v1h-7.3c-0.2-0.5-0.3-1-0.4-1.4
			c-0.1-0.4-0.1-0.9-0.2-1.5c-0.9,1-2,1.8-3.2,2.5c-1.5,0.8-3.1,1.2-4.9,1.2c-2.3,0-4.3-0.6-5.8-1.9c-1.5-1.3-2.3-3.1-2.3-5.5
			c0-3.1,1.2-5.3,3.7-6.7c1.3-0.7,3.3-1.3,6-1.6L458.5,444.1z M462.6,447.2c-0.4,0.3-0.9,0.5-1.3,0.6s-1,0.3-1.8,0.4l-1.5,0.3
			c-1.4,0.2-2.5,0.5-3.1,0.9c-1.1,0.6-1.6,1.5-1.6,2.8c0,1.1,0.3,1.9,1,2.4c0.6,0.5,1.4,0.7,2.4,0.7c1.5,0,2.8-0.4,4.1-1.2
			c1.2-0.8,1.9-2.3,1.9-4.5V447.2z"/>
		<path class="st5" d="M481,451.3c0.1,1.2,0.5,2,0.9,2.5c0.8,0.9,2.4,1.3,4.7,1.3c1.3,0,2.4-0.2,3.2-0.6c0.8-0.4,1.2-1,1.2-1.7
			c0-0.7-0.3-1.3-0.9-1.7c-0.6-0.4-3-1-7-2c-2.9-0.7-5-1.6-6.2-2.6c-1.2-1-1.8-2.5-1.8-4.5c0-2.3,0.9-4.3,2.8-5.9
			c1.9-1.7,4.5-2.5,7.9-2.5c3.2,0,5.8,0.6,7.9,1.9c2,1.2,3.2,3.4,3.5,6.4h-6.7c-0.1-0.8-0.3-1.5-0.7-2c-0.7-0.9-2-1.3-3.8-1.3
			c-1.5,0-2.5,0.2-3.1,0.7c-0.6,0.4-0.9,1-0.9,1.6c0,0.7,0.3,1.3,1,1.6c0.7,0.4,3,1,7,1.8c2.7,0.6,4.7,1.5,6,2.8
			c1.3,1.3,2,2.8,2,4.7c0,2.5-1,4.5-2.9,6.1s-4.8,2.3-8.8,2.3c-4.1,0-7.1-0.8-9-2.5c-1.9-1.7-2.9-3.8-2.9-6.3H481z"/>
	</g>
</g>
</svg>
