<?xml version="1.0" encoding="utf-8"?>
<!-- Generator: Adobe Illustrator 24.0.2, SVG Export Plug-In . SVG Version: 6.00 Build 0)  -->
<svg version="1.1" xmlns="http://www.w3.org/2000/svg" xmlns:xlink="http://www.w3.org/1999/xlink" x="0px" y="0px"
	 viewBox="0 0 1366 1080" style="enable-background:new 0 0 1366 1080;" xml:space="preserve">
<style type="text/css">
	.st0{fill:#FFFFFF;}
	.st1{fill:none;stroke:#707070;}
	.st2{opacity:0.3;fill:url(#SVGID_1_);}
	.st3{fill:url(#SVGID_2_);}
	.st4{fill:url(#SVGID_3_);}
	.st5{fill:#01612D;}
	.st6{fill:url(#SVGID_4_);}
	.st7{fill:#75B851;}
	.st8{fill:#4FA533;}
	.st9{fill:#00833E;}
	.st10{fill:#B2DFF5;}
	.st11{fill:#EAF5FB;}
	.st12{opacity:0.63;}
	.st13{fill:#BFD787;}
	.st14{fill:#E6353A;}
	.st15{fill:url(#SVGID_5_);}
	.st16{fill:#A91917;}
	.st17{fill:#545454;}
	.st18{fill:#404040;}
	.st19{fill:#EEEDED;}
	.st20{fill:#484747;}
	.st21{fill:#D9D9D9;}
	.st22{fill:#E95561;}
	.st23{fill:#6AB330;}
	.st24{opacity:0.7;}
	.st25{fill:#FFFFFF;stroke:#263239;stroke-linecap:round;stroke-linejoin:round;stroke-miterlimit:10;}
	.st26{fill:none;stroke:#263239;stroke-width:0.75;stroke-linecap:round;stroke-linejoin:round;stroke-miterlimit:10;}
	.st27{fill:#263239;stroke:#263239;stroke-linecap:round;stroke-linejoin:round;stroke-miterlimit:10;}
	.st28{clip-path:url(#XMLID_3_);}
	.st29{clip-path:url(#XMLID_6_);}
	.st30{clip-path:url(#XMLID_42_);}
	.st31{clip-path:url(#XMLID_43_);}
	.st32{clip-path:url(#XMLID_44_);}
	.st33{clip-path:url(#XMLID_45_);}
	.st34{fill:#263239;}
	.st35{clip-path:url(#XMLID_46_);}
	.st36{clip-path:url(#XMLID_47_);}
	.st37{clip-path:url(#XMLID_48_);}
	.st38{clip-path:url(#XMLID_49_);}
	.st39{clip-path:url(#XMLID_50_);}
	.st40{clip-path:url(#XMLID_51_);}
	.st41{clip-path:url(#XMLID_52_);}
	.st42{clip-path:url(#XMLID_53_);}
	.st43{clip-path:url(#XMLID_54_);}
	.st44{clip-path:url(#XMLID_55_);}
	.st45{clip-path:url(#XMLID_56_);}
	.st46{clip-path:url(#XMLID_57_);}
	.st47{clip-path:url(#XMLID_58_);}
	.st48{clip-path:url(#XMLID_59_);}
	.st49{clip-path:url(#XMLID_60_);}
	.st50{clip-path:url(#XMLID_61_);}
	.st51{clip-path:url(#XMLID_62_);}
	.st52{clip-path:url(#XMLID_63_);}
	.st53{clip-path:url(#XMLID_64_);}
	.st54{clip-path:url(#XMLID_65_);}
	.st55{clip-path:url(#XMLID_66_);}
	.st56{clip-path:url(#XMLID_67_);}
	.st57{clip-path:url(#XMLID_68_);}
	.st58{clip-path:url(#XMLID_69_);}
	.st59{clip-path:url(#XMLID_70_);}
	.st60{clip-path:url(#XMLID_71_);}
	.st61{clip-path:url(#XMLID_72_);}
	.st62{clip-path:url(#XMLID_73_);}
	.st63{clip-path:url(#XMLID_74_);}
	.st64{clip-path:url(#XMLID_75_);}
	.st65{clip-path:url(#XMLID_76_);}
	.st66{clip-path:url(#XMLID_77_);}
	.st67{fill:#6AB433;}
	.st68{opacity:0.7;fill:#FFFFFF;}
	.st69{fill:url(#SVGID_6_);}
	.st70{fill:#75B852;}
	.st71{fill:url(#SVGID_7_);}
	.st72{fill:#CE0E2D;}
	.st73{fill:#363334;}
	.st74{fill:url(#SVGID_8_);}
	.st75{fill:#FFFFFF;stroke:#FFFFFF;stroke-miterlimit:10;}
	.st76{fill:none;stroke:#FFFFFF;stroke-miterlimit:10;}
</style>
<g id="Capa_1">
	<linearGradient id="SVGID_1_" gradientUnits="userSpaceOnUse" x1="682.5" y1="120.11" x2="682.5" y2="974.4017">
		<stop  offset="0" style="stop-color:#D6FFCA"/>
		<stop  offset="1" style="stop-color:#85CA1F"/>
	</linearGradient>
	<rect class="st2" width="1365" height="963.2"/>
	<g>
		<g>
			<linearGradient id="SVGID_2_" gradientUnits="userSpaceOnUse" x1="128.9781" y1="911.9158" x2="346.8094" y2="911.9158">
				<stop  offset="0" style="stop-color:#FFDD00"/>
				<stop  offset="1" style="stop-color:#F29100"/>
			</linearGradient>
			<path class="st3" d="M336.6,961.4H147c-6.4-5.2-12.6-12.2-15.9-19.7c-3.2-7.5-3.2-16.9,1.8-23.4c3.7-4.8,9.5-7.4,14-11.4
				c6.3-5.7,9.7-13.8,14.4-20.9s11.8-13.8,20.3-13.5c6.7,0.2,12.6,4.8,19.3,5.4c9.9,1,18.4-6.6,27.4-10.8
				c15.3-7.2,33.2-4.9,49.5-0.3c25.4,7.2,50.3,21,63.6,43.9C350.6,926.4,347.5,946.7,336.6,961.4z"/>
		</g>
		<g>
			<linearGradient id="SVGID_3_" gradientUnits="userSpaceOnUse" x1="1104.4625" y1="806.5931" x2="1278.437" y2="806.5931">
				<stop  offset="0" style="stop-color:#FFDD00"/>
				<stop  offset="1" style="stop-color:#F29100"/>
			</linearGradient>
			<path class="st4" d="M1157.6,907c-12.1-3.9-23.2-13.3-25.4-25.8c-1.6-9.3,1.6-19.2-1.8-28c-3.2-7.9-11-12.7-16.7-19.1
				c-15.4-17.3-10.8-48.2,9-60.3c10.7-6.5,24.5-8.1,33.1-17.1c7.9-8.3,9.4-20.7,14.1-31.1c6.3-13.8,19.7-24.9,34.9-25.8
				c15.2-1,30.9,9.7,33.5,24.7c1.3,7.6-0.7,15.5,0.4,23.1c2,14,13.7,24.2,23.5,34.3c9.9,10.1,19.3,23.8,15.4,37.3
				c-2.8,9.6-11.8,17-12.4,27c-0.5,8.3,5,15.6,6.9,23.7c3.9,17.1-10.1,34.1-26.6,39.9c-15.5,5.5-31.6,3.3-47.5,1.3
				C1184.7,909.6,1170.6,911.1,1157.6,907z"/>
			<polygon class="st5" points="1225.1,807.3 1221.4,803.4 1197.5,826.7 1197.5,777.5 1192,777.5 1192,879.1 1163,838 1158.6,841.1 
				1192,888.5 1192,961.4 1197.5,961.4 1197.5,834.3 			"/>
		</g>
		<g>
			<linearGradient id="SVGID_4_" gradientUnits="userSpaceOnUse" x1="62.8512" y1="851.9159" x2="192.7702" y2="851.9159">
				<stop  offset="0" style="stop-color:#FFDD00"/>
				<stop  offset="1" style="stop-color:#F29100"/>
			</linearGradient>
			<path class="st6" d="M118.5,913.9c-13.5,3.5-29,1.9-39.3-7.5c-9.2-8.4-12.5-21.3-14.4-33.6c-4.1-25.3-2.9-54.7,16.1-71.9
				c13.1-11.8,32.5-15.1,49.6-10.9c17.1,4.2,32,15.1,43.7,28.3c11.4,12.9,20.4,29.5,18.3,46.6c-2.3,19-15.5,23.8-30.5,29.2
				C147.3,899.4,134.1,909.8,118.5,913.9z"/>
			<g>
				<path class="st5" d="M182.6,961.4c-12.7-42.4-34.6-82.5-63.4-116.1l4.6-4c29.4,34.2,51.7,75.1,64.6,118.3L182.6,961.4z"/>
			</g>
		</g>
		<g>
			<polygon class="st7" points="636,783.6 636,961.4 1053.3,961.4 1053.3,802.3 			"/>
			<polygon class="st8" points="1053.3,768 636,768 636,783.6 1053.3,802.3 			"/>
			<polygon class="st5" points="1053.3,768 1053.3,802.3 1162.3,854 1162.3,768 			"/>
			<polygon class="st9" points="1053.3,961.4 1162.3,961.4 1162.3,854 1053.3,802.3 			"/>
		</g>
		<g>
			<rect x="330" y="762.2" class="st9" width="5.4" height="41.6"/>
			<rect x="341.5" y="762.2" class="st9" width="5.4" height="41.6"/>
			<rect x="352.9" y="762.2" class="st9" width="5.4" height="41.6"/>
			<rect x="499.6" y="762.2" class="st9" width="5.4" height="41.6"/>
			<rect x="511.1" y="762.2" class="st9" width="5.4" height="41.6"/>
			<rect x="522.6" y="762.2" class="st9" width="5.4" height="41.6"/>
		</g>
		<g>
			<rect x="658.5" y="771" class="st10" width="88.8" height="176.5"/>
			<rect x="753.3" y="771" class="st10" width="88.8" height="176.5"/>
			<rect x="848.1" y="771" class="st10" width="88.8" height="176.5"/>
			<rect x="942.9" y="771" class="st10" width="88.8" height="176.5"/>
			<path class="st11" d="M942.9,765h-6h-88.8h-6h-88.8h-6h-94.8v188.6h94.8h6H842h6h88.8h6h94.8V765H942.9z M1031.6,947.5h-88.8V771
				h88.8V947.5z M936.8,947.5h-88.8V771h88.8V947.5z M842,947.5h-88.8V771H842V947.5z M747.3,947.5h-88.8V771h88.8V947.5z"/>
		</g>
		<g class="st12">
			<polygon class="st0" points="747.3,783.7 753.3,775.5 756.6,771 761,765 753.3,765 747.3,765 709.7,765 705.2,771 658.5,834.7 
				652.5,842.9 652.5,912.8 658.5,904.6 			"/>
			<polygon class="st0" points="753.3,807.4 780,771 784.4,765 774.9,765 770.5,771 753.3,794.4 747.3,802.6 658.5,923.6 
				652.5,931.8 652.5,944.7 658.5,936.5 747.3,815.6 			"/>
			<polygon class="st0" points="753.3,852.3 813,771 817.4,765 810.1,765 805.7,771 753.3,842.4 747.3,850.6 676.1,947.5 
				671.7,953.5 679,953.5 683.4,947.5 747.3,860.5 			"/>
			<polygon class="st0" points="848.1,901.7 936.8,782.1 942.9,774 945.1,771 949.5,765 942.9,765 936.8,765 886.2,765 881.7,771 
				848.1,816.4 842,824.5 753.3,944.1 746.3,953.5 747.3,953.5 753.3,953.5 809.6,953.5 814.1,947.5 842,909.8 			"/>
			<polygon class="st0" points="1031.6,804.6 942.9,924.2 936.8,932.3 925.6,947.5 921.1,953.5 936.8,953.5 942.9,953.5 
				984.4,953.5 988.9,947.5 1031.6,890 1037.6,881.8 1037.6,796.5 			"/>
			<polygon class="st0" points="942.9,807.6 970.1,771 974.6,765 968.7,765 964.2,771 942.9,799.6 936.8,807.7 848.1,926.8 
				842,934.9 832.7,947.5 828.2,953.5 834.2,953.5 838.7,947.5 842,943 848.1,934.9 936.8,815.7 			"/>
			<polygon class="st0" points="942.9,840.2 994.3,771 998.8,765 991.1,765 986.7,771 942.9,829.9 936.8,838 855.4,947.5 851,953.5 
				858.6,953.5 863.1,947.5 936.8,848.3 			"/>
		</g>
		<rect x="308.8" y="730.5" class="st13" width="70.7" height="33.2"/>
		<rect x="308.8" y="802.3" class="st13" width="70.7" height="159.1"/>
		<rect x="379.5" y="730.5" class="st7" width="29.9" height="33.2"/>
		<rect x="379.5" y="802.3" class="st7" width="29.9" height="159.1"/>
		<rect x="320.7" y="818.9" class="st11" width="46.8" height="21.8"/>
		<rect x="314.7" y="763.7" class="st7" width="6" height="38.6"/>
		<rect x="396.6" y="763.7" class="st7" width="6" height="38.6"/>
		<rect x="478.4" y="730.5" class="st13" width="70.7" height="33.2"/>
		<rect x="478.4" y="802.3" class="st13" width="70.7" height="159.1"/>
		<rect x="549.2" y="730.5" class="st7" width="29.9" height="33.2"/>
		<rect x="549.2" y="802.3" class="st7" width="29.9" height="159.1"/>
		<rect x="490.4" y="818.9" class="st11" width="46.8" height="21.8"/>
		<rect x="484.4" y="763.7" class="st7" width="6" height="38.6"/>
		<rect x="566.3" y="763.7" class="st7" width="6" height="38.6"/>
		<rect x="605.3" y="706.6" class="st7" width="587.7" height="67.5"/>
		<rect x="1068.9" y="706.6" class="st8" width="124" height="67.5"/>
		<g>
			<rect x="433.4" y="653.6" class="st5" width="20.8" height="307.9"/>
			<rect x="998.2" y="653.6" class="st5" width="20.8" height="307.9"/>
		</g>
		<g>
			<rect x="367.9" y="614" class="st7" width="585" height="39.5"/>
			<rect x="952.9" y="614" class="st8" width="131.7" height="39.5"/>
		</g>
	</g>
	<g>
		<path class="st14" d="M521.7,889.6c0,0,53.4,6.6,70.4,11.6c17,5,43.5,12.8,47,45.1c0,0,5.2,2.9,5.2,7.5c0,4.6-0.4,20.3-5.6,32.1
			h-431l-22.1-20.4c0,0-2-4.3-2.2-8.4c-0.2-4,0.3-14.6,0.9-15.7c0.6-1.1,4.5-5,9.8-8.1c0,0-1.7-10.9,1.2-21.6s6.8-22,16.7-22.2
			H521.7z"/>
		<linearGradient id="SVGID_5_" gradientUnits="userSpaceOnUse" x1="413.8569" y1="933.2001" x2="413.8569" y2="977.2897">
			<stop  offset="0" style="stop-color:#E84B50"/>
			<stop  offset="0.1643" style="stop-color:#E74449"/>
			<stop  offset="0.5692" style="stop-color:#E6393E"/>
			<stop  offset="1" style="stop-color:#E6353A"/>
		</linearGradient>
		<path class="st15" d="M632.8,926.6c3.2,5.3,5.4,11.8,6.3,19.7c0,0,5.2,2.9,5.2,7.5c0,4.6-0.4,20.3-5.6,32.1h-431l-22.1-20.4
			c0,0-2-4.3-2.2-8.4c-0.2-4,0.3-14.6,0.9-15.7c0.6-1.1,4.5-5,9.8-8.1c0,0-0.4-2.7-0.5-6.7H632.8z"/>
		<g>
			<path class="st16" d="M632.4,925.9c0.3,0.4,0.5,0.8,0.7,1.2h-25.4c-2.3,0-10.5-2.5-16.7-5.5c-6.4-3-47.8-16.9-59.1-19.8
				c-9-2.3-16.5-7.8-20.2-12.2h1.6c3.8,4.1,10.8,8.9,18.9,11c11.3,2.9,52.8,16.9,59.3,19.9c6.5,3.1,14.3,5.4,16.2,5.4H632.4z"/>
			<path class="st16" d="M344.4,985.9c-2.5-9.6-9.2-36.9-9-55.5c0.2-21.2,2.3-33.7,12.7-40.8h2.4c-11.4,6.5-13.6,19-13.8,40.8
				c-0.2,18.7,6.6,46.2,9.1,55.5H344.4z"/>
			<path class="st16" d="M505.1,910c-1.7-11.7-12.6-17.7-19.4-20.4h3.1c6.9,3.2,15.9,9.4,17.5,20.2c1.6,10.5,5.9,45.9-1,76.1H504
				C511,955.9,506.6,920.5,505.1,910z"/>
		</g>
		<path class="st17" d="M189.8,962.6c1.9,0,5.7,0,8.8-5.5l0,0.1c8.9-15.4,25.5-25.8,44.6-25.8c25.8,0,47.1,19,50.9,43.7l0-0.1
			c0.9,4.6,5.1,10.3,9.2,10.3s204.6,0,214.1,0c9.5,0,10.2-10.3,10.2-10.3l0,0.1c3.8-24.8,25.1-43.7,50.9-43.7
			c28.5,0,51.6,23.1,51.6,51.6c0,0.6-0.1,1.3-0.1,1.9c2.2,0,4.4,0,5.1,0c1.4,0,4.6-1.9,4.6-1.9s0,6.2,0,8.3s-6.4,8.5-12.5,8.5h-1.7
			h-90.8H530H292H283h-66.3c0,0-12.3-2.8-19.6-8.3v0c0,0-7.4-5-8.8-7.7c-1.3-2.8-2.8-7.6-3-9.6c-0.2-2.1-0.8-11.5-0.8-11.5
			S187.9,962.6,189.8,962.6z"/>
		<g>
			<circle class="st18" cx="578.7" cy="983" r="39.8"/>
			
				<ellipse transform="matrix(0.7071 -0.7071 0.7071 0.7071 -525.5587 697.1057)" class="st19" cx="578.7" cy="983" rx="27.2" ry="27.2"/>
			<circle class="st18" cx="243.3" cy="983" r="39.8"/>
			
				<ellipse transform="matrix(0.7071 -0.7071 0.7071 0.7071 -623.8035 459.9215)" class="st19" cx="243.3" cy="983" rx="27.2" ry="27.2"/>
		</g>
		<path class="st0" d="M612.9,928.9c4.8,8.5,13,15.5,18.3,15.5c5.3,0,5.7-6.9,0.9-15.5c-4.8-8.5-13-15.5-18.3-15.5
			C608.5,913.4,608.1,920.3,612.9,928.9z"/>
		<path class="st17" d="M521.7,889.6c0,0,0.2,7-7,7c-7.2,0-302.5-7-302.5-7s0.4-2.6,3.3-6.3c2.9-3.7,27.1-41.5,32.5-42.8
			c5.4-1.2,85.5-3.7,106-3.7s101.5,2.5,106.8,4.1C466.2,842.6,502.4,868.9,521.7,889.6z"/>
		<g>
			<path class="st20" d="M336.5,892.6l7-53.8l9.3,1.3l5.4,53.1C351,892.9,343.7,892.8,336.5,892.6z"/>
			<path class="st20" d="M484.8,896c-8.1-11.8-31.3-44.6-46.3-55.2l17.1,1.6c0,0,31.9,31.7,50.5,54.1
				C500.9,896.4,493.7,896.2,484.8,896z"/>
			<path class="st20" d="M215.5,883.3c2.9-3.7,27.1-41.5,32.5-42.8c1.5-0.4,9.1-0.8,19.7-1.3l4.5,0.4l-30.7,50.6
				c-18.1-0.4-29.3-0.7-29.3-0.7S212.6,887,215.5,883.3z"/>
		</g>
		<path class="st21" d="M468,845.1c0,0-5.3-7.4-21.4-8.2c-16.2-0.8-82.8-5-128.6-4.3s-58.9,2.3-63.7,2.3c-4.8,0-22.5,1.1-22.5,2.1
			s10.6,4.8,13.6,5.5C248.4,843,333.5,840.4,468,845.1z"/>
		<circle class="st16" cx="368.6" cy="910.1" r="9"/>
		<ellipse class="st22" cx="368.6" cy="910.1" rx="15.8" ry="2.8"/>
		<path class="st16" d="M196.6,926.7c-0.6,4.1,2.1,7.4,6.2,7.4l0,0c4.1,0,7.9-3.3,8.5-7.4l3-19.3c0.6-4.1-2.1-7.4-6.2-7.4l0,0
			c-4.1,0-7.9,3.3-8.5,7.4L196.6,926.7z"/>
	</g>
	<g>
		
			<image style="overflow:visible;opacity:0.75;" width="199" height="80" xlink:href="2A0D88B6E184FDB9.png"  transform="matrix(1 0 0 1 177 484)">
		</image>
		<g>
			<g>
				<path class="st0" d="M186,548h173.4c0,0,2.1-6.2-5.7-10.3c-7.8-4.1-11.4-0.7-14.3-4.1c-2.9-3.4,7.8-12.4-13.6-21.3
					c0,0-1.4-19.2-30.7-19.9c-29.2-0.7-21.4,19.2-29.2,24c-7.8,4.8-10-2.7-17.8,2.1c-7.8,4.8-4.3,14.4-10.7,15.8
					c-6.4,1.4-15-6.2-22.8-1.4c-7.8,4.8-7.8,8.9-11.4,8.9c-3.6,0-10.7-2.7-15,0C187.3,542.4,186,548,186,548z"/>
				<path class="st68" d="M186,548h173.4c0,0,2.1-6.2-5.7-10.3c-7.8-4.1-11.4-0.7-14.3-4.1c-2.9-3.4,7.8-12.4-13.6-21.3
					c0,0-1.4-19.2-30.7-19.9c-29.2-0.7-21.4,19.2-29.2,24c-7.8,4.8-10-2.7-17.8,2.1c-7.8,4.8-4.3,14.4-10.7,15.8
					c-6.4,1.4-15-6.2-22.8-1.4c-7.8,4.8-7.8,8.9-11.4,8.9c-3.6,0-10.7-2.7-15,0C187.3,542.4,186,548,186,548z"/>
			</g>
		</g>
	</g>
	<g>
		
			<image style="overflow:visible;opacity:0.75;" width="289" height="113" xlink:href="2A0D88B6E184FDBB.png"  transform="matrix(1 0 0 1 578 215)">
		</image>
		<g>
			<g>
				<path class="st0" d="M586.2,312h264.1c0,0,3.3-9.8-8.7-16.3c-12-6.5-17.4-1.1-21.7-6.5c-4.3-5.4,12-19.6-20.6-33.7
					c0,0-2.2-30.4-46.7-31.5c-44.6-1.1-32.6,30.4-44.6,38c-12,7.6-15.2-4.3-27.2,3.3c-12,7.6-6.5,22.8-16.3,25
					c-9.8,2.2-22.8-9.8-34.8-2.2c-12,7.6-12,14.1-17.4,14.1c-5.4,0-16.3-4.3-22.8,0C588.2,303.1,586.2,312.1,586.2,312z"/>
				<path class="st68" d="M586.2,312h264.1c0,0,3.3-9.8-8.7-16.3c-12-6.5-17.4-1.1-21.7-6.5c-4.3-5.4,12-19.6-20.6-33.7
					c0,0-2.2-30.4-46.7-31.5c-44.6-1.1-32.6,30.4-44.6,38c-12,7.6-15.2-4.3-27.2,3.3c-12,7.6-6.5,22.8-16.3,25
					c-9.8,2.2-22.8-9.8-34.8-2.2c-12,7.6-12,14.1-17.4,14.1c-5.4,0-16.3-4.3-22.8,0C588.2,303.1,586.2,312.1,586.2,312z"/>
			</g>
		</g>
	</g>
</g>
<g id="Capa_2">
</g>
</svg>
