<?xml version="1.0" encoding="utf-8"?>
<!-- Generator: Adobe Illustrator 24.0.2, SVG Export Plug-In . SVG Version: 6.00 Build 0)  -->
<svg version="1.1" xmlns="http://www.w3.org/2000/svg" xmlns:xlink="http://www.w3.org/1999/xlink" x="0px" y="0px"
	 viewBox="0 0 1366 1080" style="enable-background:new 0 0 1366 1080;" xml:space="preserve">
<style type="text/css">
	.st0{fill:#FFFFFF;}
	.st1{fill:none;stroke:#707070;}
	.st2{opacity:0.3;fill:url(#SVGID_1_);}
	.st3{fill:url(#SVGID_2_);}
	.st4{fill:url(#SVGID_3_);}
	.st5{fill:#01612D;}
	.st6{fill:url(#SVGID_4_);}
	.st7{fill:#75B851;}
	.st8{fill:#4FA533;}
	.st9{fill:#00833E;}
	.st10{fill:#B2DFF5;}
	.st11{fill:#EAF5FB;}
	.st12{opacity:0.63;}
	.st13{fill:#BFD787;}
	.st14{fill:#E6353A;}
	.st15{fill:url(#SVGID_5_);}
	.st16{fill:#A91917;}
	.st17{fill:#545454;}
	.st18{fill:#404040;}
	.st19{fill:#EEEDED;}
	.st20{fill:#484747;}
	.st21{fill:#D9D9D9;}
	.st22{fill:#E95561;}
	.st23{fill:#6AB330;}
	.st24{opacity:0.7;}
	.st25{fill:#FFFFFF;stroke:#263239;stroke-linecap:round;stroke-linejoin:round;stroke-miterlimit:10;}
	.st26{fill:none;stroke:#263239;stroke-width:0.75;stroke-linecap:round;stroke-linejoin:round;stroke-miterlimit:10;}
	.st27{fill:#263239;stroke:#263239;stroke-linecap:round;stroke-linejoin:round;stroke-miterlimit:10;}
	.st28{clip-path:url(#XMLID_78_);}
	.st29{clip-path:url(#XMLID_79_);}
	.st30{clip-path:url(#XMLID_80_);}
	.st31{clip-path:url(#XMLID_81_);}
	.st32{clip-path:url(#XMLID_82_);}
	.st33{clip-path:url(#XMLID_83_);}
	.st34{fill:#263239;}
	.st35{clip-path:url(#XMLID_84_);}
	.st36{clip-path:url(#XMLID_85_);}
	.st37{clip-path:url(#XMLID_86_);}
	.st38{clip-path:url(#XMLID_87_);}
	.st39{clip-path:url(#XMLID_88_);}
	.st40{clip-path:url(#XMLID_89_);}
	.st41{clip-path:url(#XMLID_90_);}
	.st42{clip-path:url(#XMLID_91_);}
	.st43{clip-path:url(#XMLID_92_);}
	.st44{clip-path:url(#XMLID_93_);}
	.st45{clip-path:url(#XMLID_94_);}
	.st46{clip-path:url(#XMLID_95_);}
	.st47{clip-path:url(#XMLID_96_);}
	.st48{clip-path:url(#XMLID_97_);}
	.st49{clip-path:url(#XMLID_98_);}
	.st50{clip-path:url(#XMLID_99_);}
	.st51{clip-path:url(#XMLID_100_);}
	.st52{clip-path:url(#XMLID_101_);}
	.st53{clip-path:url(#XMLID_102_);}
	.st54{clip-path:url(#XMLID_103_);}
	.st55{clip-path:url(#XMLID_104_);}
	.st56{clip-path:url(#XMLID_105_);}
	.st57{clip-path:url(#XMLID_106_);}
	.st58{clip-path:url(#XMLID_107_);}
	.st59{clip-path:url(#XMLID_108_);}
	.st60{clip-path:url(#XMLID_109_);}
	.st61{clip-path:url(#XMLID_110_);}
	.st62{clip-path:url(#XMLID_111_);}
	.st63{clip-path:url(#XMLID_112_);}
	.st64{clip-path:url(#XMLID_113_);}
	.st65{clip-path:url(#XMLID_114_);}
	.st66{clip-path:url(#XMLID_115_);}
	.st67{fill:#6AB433;}
	.st68{opacity:0.7;fill:#FFFFFF;}
	.st69{fill:url(#SVGID_6_);}
	.st70{fill:#75B852;}
	.st71{fill:url(#SVGID_7_);}
	.st72{fill:#CE0E2D;}
	.st73{fill:#363334;}
	.st74{fill:url(#SVGID_8_);}
	.st75{fill:#FFFFFF;stroke:#FFFFFF;stroke-miterlimit:10;}
	.st76{fill:none;stroke:#FFFFFF;stroke-miterlimit:10;}
	.st77{clip-path:url(#XMLID_116_);}
	.st78{clip-path:url(#XMLID_117_);}
	.st79{clip-path:url(#XMLID_118_);}
	.st80{clip-path:url(#XMLID_119_);}
	.st81{clip-path:url(#XMLID_120_);}
	.st82{clip-path:url(#XMLID_121_);}
	.st83{clip-path:url(#XMLID_122_);}
	.st84{clip-path:url(#XMLID_123_);}
	.st85{clip-path:url(#XMLID_124_);}
	.st86{clip-path:url(#XMLID_125_);}
	.st87{clip-path:url(#XMLID_126_);}
	.st88{clip-path:url(#XMLID_127_);}
	.st89{clip-path:url(#XMLID_128_);}
	.st90{clip-path:url(#XMLID_129_);}
	.st91{clip-path:url(#XMLID_130_);}
	.st92{clip-path:url(#XMLID_131_);}
	.st93{clip-path:url(#XMLID_132_);}
	.st94{clip-path:url(#XMLID_133_);}
	.st95{clip-path:url(#XMLID_134_);}
	.st96{clip-path:url(#XMLID_135_);}
	.st97{clip-path:url(#XMLID_136_);}
	.st98{clip-path:url(#XMLID_137_);}
	.st99{clip-path:url(#XMLID_138_);}
	.st100{clip-path:url(#XMLID_139_);}
	.st101{clip-path:url(#XMLID_140_);}
	.st102{clip-path:url(#XMLID_141_);}
	.st103{clip-path:url(#XMLID_142_);}
	.st104{clip-path:url(#XMLID_143_);}
	.st105{clip-path:url(#XMLID_144_);}
	.st106{clip-path:url(#XMLID_145_);}
	.st107{clip-path:url(#XMLID_146_);}
	.st108{clip-path:url(#XMLID_147_);}
	.st109{clip-path:url(#XMLID_148_);}
	.st110{clip-path:url(#XMLID_149_);}
	.st111{clip-path:url(#XMLID_150_);}
	.st112{clip-path:url(#XMLID_151_);}
	.st113{clip-path:url(#XMLID_152_);}
	.st114{clip-path:url(#XMLID_153_);}
	.st115{fill:url(#SVGID_9_);}
</style>
<g id="Capa_1">
	<g>
		<g>
			<g>
				<g>
					<path class="st23" d="M1202.8,941.3c-26.4-29.9-63.3-21.1-36.9-87.9c16.3-41.4,29.4-90.3,13.9-133.9
						c-18.6-52.2-76-79.8-128.3-84c-28.2-2.3-58.2,10.5-85.6,4.8c-33.3-6.9-52.9-40-56.8-71.7c0-0.1,0-0.1,0-0.2h252.2
						c0,0,3.1-9.3-8.3-15.6c-11.4-6.2-16.6-1-20.8-6.2c-4.2-5.2,11.4-18.7-19.7-32.2c0,0-2.1-29.1-44.6-30.1
						c-42.5-1-31.1,29.1-42.5,36.3c-11.4,7.3-14.5-4.2-25.9,3.1c-11.4,7.3-6.2,21.8-15.6,23.9c-9.3,2.1-21.8-9.3-33.2-2.1
						c-11.4,7.3-11.4,13.5-16.6,13.5c-5.2,0-15.6-4.2-21.8,0c-1.2,0.8-2.5,1.7-3.7,2.5c-1.9-26.5,3.5-53.1,7.1-79.6
						c10.4-76.2-21.4-135.2-97.4-157.6c-78.1-23.1-166.6-10.7-235.8,31.7c-117.7,72.1-43.9,212.6-135.3,253.1S269,732.5,318.8,860.5
						c49.2,126.5,153,99,153,99l3.4,39.1h740.4C1215.6,998.6,1229.1,971.2,1202.8,941.3z M674.7,690.5H356.2c0,0,8.8-6.3,16.4-11.3
						c7.6-5,20.1,0,26.4,0c6.3,0,6.3-7.6,20.1-16.4c13.8-8.8,29,5,40.3,2.5c11.3-2.5,5-20.1,18.9-29c13.8-8.8,17.6,5,31.5-3.8
						c13.8-8.8,0-45.3,51.6-44.1c51.6,1.3,54.1,36.5,54.1,36.5c37.8,16.4,18.9,32.7,23.9,39c5,6.3,11.3,0,25.2,7.6
						C678.5,679.2,674.7,690.5,674.7,690.5z M836.9,386.8H645.3c0,0,5.3-3.8,9.8-6.8c4.5-3,12.1,0,15.9,0c3.8,0,3.8-4.5,12.1-9.8
						c8.3-5.3,17.4,3,24.2,1.5c6.8-1.5,3-12.1,11.4-17.4c8.3-5.3,10.6,3,18.9-2.3c8.3-5.3,0-27.3,31-26.5c31,0.8,32.6,22,32.6,22
						c22.7,9.8,11.4,19.7,14.4,23.5c3,3.8,6.8,0,15.1,4.5C839.2,380,836.9,386.8,836.9,386.8z M1036,717.8h-87.6
						c0,0,2.4-1.7,4.5-3.1c2.1-1.4,5.5,0,7.3,0c1.7,0,1.7-2.1,5.5-4.5s8,1.4,11.1,0.7c3.1-0.7,1.4-5.5,5.2-8c3.8-2.4,4.8,1.4,8.7-1
						c3.8-2.4,0-12.5,14.2-12.1c14.2,0.3,14.9,10,14.9,10c10.4,4.5,5.2,9,6.6,10.7c1.4,1.7,3.1,0,6.9,2.1
						C1037.1,714.7,1036,717.8,1036,717.8z"/>
				</g>
				<g class="st24">
					<path class="st0" d="M1202.8,941.3c-26.4-29.9-63.3-21.1-36.9-87.9c16.3-41.4,29.4-90.3,13.9-133.9
						c-18.6-52.2-76-79.8-128.3-84c-28.2-2.3-58.2,10.5-85.6,4.8c-33.3-6.9-52.9-40-56.8-71.7c0-0.1,0-0.1,0-0.2h252.2
						c0,0,3.1-9.3-8.3-15.6c-11.4-6.2-16.6-1-20.8-6.2c-4.2-5.2,11.4-18.7-19.7-32.2c0,0-2.1-29.1-44.6-30.1
						c-42.5-1-31.1,29.1-42.5,36.3c-11.4,7.3-14.5-4.2-25.9,3.1c-11.4,7.3-6.2,21.8-15.6,23.9c-9.3,2.1-21.8-9.3-33.2-2.1
						c-11.4,7.3-11.4,13.5-16.6,13.5c-5.2,0-15.6-4.2-21.8,0c-1.2,0.8-2.5,1.7-3.7,2.5c-1.9-26.5,3.5-53.1,7.1-79.6
						c10.4-76.2-21.4-135.2-97.4-157.6c-78.1-23.1-166.6-10.7-235.8,31.7c-117.7,72.1-43.9,212.6-135.3,253.1S269,732.5,318.8,860.5
						c49.2,126.5,153,99,153,99l3.4,39.1h740.4C1215.6,998.6,1229.1,971.2,1202.8,941.3z M674.7,690.5H356.2c0,0,8.8-6.3,16.4-11.3
						c7.6-5,20.1,0,26.4,0c6.3,0,6.3-7.6,20.1-16.4c13.8-8.8,29,5,40.3,2.5c11.3-2.5,5-20.1,18.9-29c13.8-8.8,17.6,5,31.5-3.8
						c13.8-8.8,0-45.3,51.6-44.1c51.6,1.3,54.1,36.5,54.1,36.5c37.8,16.4,18.9,32.7,23.9,39c5,6.3,11.3,0,25.2,7.6
						C678.5,679.2,674.7,690.5,674.7,690.5z M836.9,386.8H645.3c0,0,5.3-3.8,9.8-6.8c4.5-3,12.1,0,15.9,0c3.8,0,3.8-4.5,12.1-9.8
						c8.3-5.3,17.4,3,24.2,1.5c6.8-1.5,3-12.1,11.4-17.4c8.3-5.3,10.6,3,18.9-2.3c8.3-5.3,0-27.3,31-26.5c31,0.8,32.6,22,32.6,22
						c22.7,9.8,11.4,19.7,14.4,23.5c3,3.8,6.8,0,15.1,4.5C839.2,380,836.9,386.8,836.9,386.8z M1036,717.8h-87.6
						c0,0,2.4-1.7,4.5-3.1c2.1-1.4,5.5,0,7.3,0c1.7,0,1.7-2.1,5.5-4.5s8,1.4,11.1,0.7c3.1-0.7,1.4-5.5,5.2-8c3.8-2.4,4.8,1.4,8.7-1
						c3.8-2.4,0-12.5,14.2-12.1c14.2,0.3,14.9,10,14.9,10c10.4,4.5,5.2,9,6.6,10.7c1.4,1.7,3.1,0,6.9,2.1
						C1037.1,714.7,1036,717.8,1036,717.8z"/>
				</g>
			</g>
			<g>
				<g>
					<path class="st23" d="M967.2,998.1c0,0,19.3-6.4,13.8-1.4c-1,0.9-1.7,1.5-2.3,1.9h-57l-1.7-3.5l-0.4-0.8l-0.7-1.4l6.8-4.7
						l-7.2,3.9l-1.9-4.3l1.5-14.5l-2.3,13.2l-1.4-3.5l-6.4-12.2l10.4,23l-14.8-5.9l15.5,7.2l1.8,3.6h-61.6c-3.4-0.4-8.1-1.3-8.9-4
						c-1.4-4.2,13.1-4.2,13.1-4.2s-15.1-6.4-9.6-7.8c5.5-1.4,15.1,4.2,15.1,4.2s-5.5-12.7,1.4-9.9c5.1,2.1,7.2,6.2,7.9,8.1
						c-0.7-2.5-2.1-8.4,1.7-6.7c2.6,1.1,4.5,3.4,5.8,5.4c-1.8-3.8-3.5-9.4,4.5-7.5c0,0-1.7-17.3,16.5-20.5
						c18.2-3.2,17.2,21.9,23.4,26.9c6.2,4.9,13.8-0.7,16.5,4.9s2.1,8.5,2.1,8.5s10.3-27.6,11.7-19.8c1.4,7.8-3.4,14.8-3.4,14.8
						s16.5-21.9,13.1-13.4c-3.4,8.5-7.6,14.8-7.6,14.8s22.7-5.7,19.3-2.1C978.2,993.8,967.2,998.1,967.2,998.1z"/>
					<g>
						<g>
							<path class="st23" d="M939.9,994.1c0.2-1.3,0.4-3.1,0.8-5.3c0.1-0.6,0.2-1.3,0.4-2c0.3,0,2.5,0.3,3.6,0
								c0.9-0.3,2-0.9,2.4-1.9c0.4-0.9-0.1-2.1-1.1-2.3c-1.4-0.4-3.4,1.3-4.1,2.4c0,0.1-0.5,1-0.7,1.4c0.1-0.4,0.2-0.8,0.3-1.2
								c0.1-0.6,0.3-1.3,0.5-1.9c0.1-0.3,0.2-0.6,0.3-1c0.1-0.3,0.2-0.6,0.3-1c0.2-0.5,0.4-0.9,0.6-1.4c0.6,0.2,2.4,0.7,3.4,0.5
								c1-0.1,2.2-0.6,2.7-1.5c0.5-0.9,0.2-2-0.7-2.5c-1.3-0.6-3.6,0.8-4.4,1.8c0,0-0.2,0.3-0.4,0.5c0.2-0.5,0.4-0.9,0.6-1.4
								c0.6-1.3,1.3-2.6,2-3.9c0.1-0.3,0.3-0.5,0.4-0.8c0.5,0.2,2.5,0.7,3.4,0.6c1-0.1,2.2-0.6,2.7-1.5c0.5-0.9,0.2-2-0.7-2.5
								c-1.3-0.6-3.6,0.8-4.4,1.8c0,0-0.2,0.3-0.4,0.6c0.4-0.7,0.7-1.4,1-2.2c0.6-1.3,1-2.5,1.4-3.8c0.2,0.1,2.5,0.7,3.5,0.6
								c1-0.1,2.2-0.6,2.7-1.5c0.5-0.9,0.2-2-0.7-2.5c-1.3-0.6-3.6,0.8-4.4,1.8c-0.1,0.1-0.7,1.1-1,1.4c0,0,0,0,0,0
								c0.4-1.3,0.6-2.7,0.7-3.9c0.1-1.3,0.1-2.5,0.1-3.6c0-1.1-0.1-2.1-0.2-3c0-0.5-0.1-0.9-0.2-1.3c0,0,0,0,0,0
								c0,0,0.5-1.7,0.5-1.8c0.2-1.3-0.1-3.9-1.4-4.6c-0.9-0.5-2,0-2.4,1c-0.4,1,0,2.2,0.5,3c0.5,0.9,2.2,2.1,2.6,2.4
								c0,0.4,0.1,0.9,0.1,1.4c0.1,0.9,0.1,1.9,0.1,3c0,0.3,0,0.6,0,0.9c-0.1-0.5-0.2-1.2-0.3-1.3c-0.4-1.2-1.9-3.4-3.3-3.4
								c-1.1,0-1.8,0.9-1.7,1.9c0.1,1,1,1.9,1.8,2.4c0.9,0.5,3,0.8,3.4,0.9c0,0.7-0.1,1.4-0.2,2.1c-0.1,1.2-0.4,2.6-0.8,3.9
								c0,0.1-0.1,0.1-0.1,0.2c0-0.3-0.1-1.7-0.1-1.8c-0.3-1.3-1.5-3.6-2.9-3.8c-1-0.1-1.9,0.7-1.9,1.8c0,1,0.8,2,1.6,2.6
								c0.9,0.7,3.3,1.3,3.4,1.3c-0.4,1.2-0.9,2.4-1.5,3.7c-0.4,0.9-0.9,1.8-1.3,2.6c0-0.3-0.1-1.7-0.1-1.8
								c-0.3-1.3-1.5-3.6-2.9-3.8c-1-0.1-1.9,0.7-1.9,1.8c0,1,0.8,2,1.6,2.6c0.9,0.7,3.2,1.2,3.4,1.3c-0.2,0.4-0.4,0.8-0.6,1.2
								c-0.7,1.3-1.4,2.6-2.1,3.9c-0.2,0.5-0.4,0.9-0.6,1.4c0-0.5-0.1-1.5-0.1-1.5c-0.3-1.3-1.5-3.6-2.9-3.8c-1-0.1-1.9,0.7-1.9,1.8
								c0,1,0.8,2,1.6,2.6c0.8,0.6,2.7,1.1,3.2,1.2c-0.3,0.8-0.7,1.5-1,2.3c-0.1,0.3-0.3,0.7-0.3,1c-0.1,0.3-0.2,0.6-0.3,1
								c-0.2,0.7-0.4,1.3-0.5,1.9c-0.1,0.3-0.1,0.6-0.2,0.9c0-0.5,0.1-1.4,0.1-1.4c-0.1-1.3-0.9-3.8-2.3-4.2c-1-0.3-2,0.5-2.1,1.4
								c-0.2,1,0.5,2.1,1.2,2.8c0.7,0.8,2.9,1.7,3.1,1.8c-0.2,0.8-0.3,1.5-0.5,2.2c-0.5,2.2-0.7,4-0.9,5.3c-0.2,1.3-0.3,2-0.3,2l0,0
								c0,0,0,0,0,0c0,0.3,0.2,0.5,0.5,0.6c0.3,0,0.5-0.2,0.6-0.5C939.6,996.1,939.7,995.4,939.9,994.1z"/>
							<path class="st23" d="M950.3,959.5c0,0,2.6,0.1,3.6-0.4c0.9-0.4,1.9-1.1,2.2-2.1c0.2-1-0.3-2-1.4-2.2
								c-1.4-0.2-3.2,1.7-3.8,2.9C950.8,957.8,950.2,959.5,950.3,959.5z"/>
						</g>
						<g>
							<path class="st23" d="M938.4,994.1c-0.6-1.1-1.4-2.8-2.2-4.8c-0.2-0.6-0.5-1.2-0.8-1.8c0.3-0.1,2.3-1.1,3-1.9
								c0.6-0.7,1.2-1.9,1-2.9c-0.2-1-1.2-1.7-2.2-1.3c-1.4,0.5-2.1,3-2.1,4.3c0,0.1,0.1,1.1,0.2,1.6c-0.2-0.4-0.3-0.8-0.5-1.2
								c-0.2-0.6-0.4-1.2-0.7-1.8c-0.1-0.3-0.2-0.6-0.3-1c-0.1-0.3-0.2-0.6-0.3-1c-0.1-0.5-0.2-1-0.3-1.5c0.6-0.2,2.4-0.8,3.1-1.4
								c0.7-0.6,1.5-1.7,1.4-2.7c-0.1-1-0.9-1.8-2-1.6c-1.4,0.3-2.5,2.6-2.7,3.9c0,0,0,0.3,0,0.6c-0.1-0.5-0.2-1-0.2-1.5
								c-0.2-1.4-0.4-2.9-0.5-4.4c0-0.3-0.1-0.6-0.1-0.9c0.5-0.2,2.4-0.8,3.2-1.4c0.7-0.6,1.5-1.7,1.4-2.7c-0.1-1-0.9-1.8-2-1.6
								c-1.4,0.3-2.5,2.6-2.7,3.9c0,0,0,0.4,0,0.7c-0.1-0.8-0.2-1.6-0.3-2.4c-0.2-1.4-0.5-2.7-0.9-4c0.2-0.1,2.5-0.7,3.3-1.5
								c0.7-0.6,1.5-1.7,1.4-2.7c-0.1-1-0.9-1.8-2-1.6c-1.4,0.3-2.5,2.6-2.7,3.9c0,0.1,0,1.3,0,1.7c0,0,0,0,0,0
								c-0.4-1.3-1-2.5-1.6-3.7c-0.6-1.1-1.3-2.1-1.9-3c-0.6-0.9-1.3-1.7-1.8-2.4c-0.3-0.4-0.6-0.7-0.9-1c0,0,0,0,0,0
								c0,0-0.5-1.7-0.5-1.8c-0.5-1.2-2.2-3.2-3.7-3.1c-1,0.1-1.7,1.1-1.5,2.1c0.2,1,1.2,1.8,2.1,2.2c0.9,0.4,3,0.5,3.5,0.5
								c0.3,0.3,0.6,0.7,0.9,1.1c0.5,0.7,1.2,1.5,1.8,2.4c0.2,0.2,0.3,0.5,0.5,0.8c-0.4-0.4-0.9-0.9-0.9-0.9c-1-0.8-3.5-1.8-4.7-1
								c-0.9,0.6-1,1.8-0.3,2.5c0.6,0.8,1.9,1,2.9,1c1,0,2.9-0.9,3.3-1.1c0.4,0.6,0.7,1.2,1,1.8c0.6,1.1,1.1,2.3,1.5,3.7
								c0,0.1,0,0.2,0.1,0.2c-0.1-0.2-1-1.4-1.1-1.4c-0.9-0.9-3.2-2.2-4.5-1.5c-0.9,0.5-1.1,1.6-0.6,2.5c0.6,0.9,1.8,1.2,2.7,1.3
								c1.1,0.1,3.4-0.8,3.5-0.8c0.3,1.2,0.6,2.5,0.8,3.9c0.1,1,0.2,1.9,0.3,2.9c-0.2-0.3-1-1.3-1.1-1.4c-0.9-0.9-3.2-2.2-4.5-1.5
								c-0.9,0.5-1.1,1.6-0.6,2.5c0.6,0.9,1.8,1.2,2.7,1.3c1.1,0.1,3.3-0.7,3.5-0.8c0,0.4,0.1,0.9,0.1,1.3c0.1,1.5,0.3,2.9,0.4,4.4
								c0.1,0.5,0.1,1,0.2,1.5c-0.3-0.4-0.9-1.2-1-1.2c-0.9-0.9-3.2-2.2-4.5-1.5c-0.9,0.5-1.1,1.6-0.6,2.5c0.6,0.9,1.8,1.2,2.7,1.3
								c1,0.1,2.9-0.6,3.4-0.8c0.1,0.8,0.3,1.6,0.5,2.4c0.1,0.3,0.2,0.7,0.3,1c0.1,0.3,0.2,0.6,0.3,1c0.2,0.7,0.4,1.3,0.6,1.9
								c0.1,0.3,0.2,0.6,0.3,0.9c-0.3-0.5-0.7-1.2-0.7-1.3c-0.8-1.1-2.9-2.6-4.3-2.2c-1,0.3-1.4,1.5-1,2.4c0.4,0.9,1.6,1.5,2.5,1.7
								c1,0.2,3.3-0.2,3.6-0.2c0.3,0.7,0.5,1.4,0.8,2.1c0.8,2.1,1.6,3.8,2.1,4.9c0.6,1.2,0.9,1.8,0.9,1.8l0,0c0,0,0,0,0,0
								c0.1,0.2,0.4,0.3,0.7,0.2c0.2-0.1,0.3-0.4,0.2-0.7C939.3,995.9,938.9,995.2,938.4,994.1z"/>
							<path class="st23" d="M928,959.5c0,0,2.2-1.3,2.8-2.3c0.5-0.8,1-2,0.6-3c-0.3-1-1.4-1.5-2.3-1.1c-1.3,0.6-1.8,3.2-1.6,4.5
								C927.5,957.8,928,959.5,928,959.5z"/>
						</g>
					</g>
				</g>
				<g>
					<path class="st23" d="M1201,997.9c0,0,24.6-8.1,17.6-1.8c-1.2,1.1-2.2,1.9-3,2.4h-72.7l-2.2-4.4l-0.5-1.1l-0.9-1.8l8.7-6
						l-9.2,5l-2.4-5.5l1.9-18.5l-3,16.9l-1.8-4.5l-8.1-15.6l13.2,29.3l-18.9-7.5l19.7,9.2l2.3,4.6h-78.6c-4.3-0.5-10.3-1.7-11.4-5.1
						c-1.8-5.4,16.7-5.4,16.7-5.4s-19.3-8.1-12.3-9.9c7-1.8,19.3,5.4,19.3,5.4s-7-16.2,1.8-12.6c6.5,2.7,9.2,7.9,10.1,10.3
						c-0.9-3.2-2.7-10.7,2.2-8.5c3.3,1.4,5.8,4.4,7.4,6.8c-2.3-4.8-4.4-12,5.8-9.5c0,0-2.1-22.1,21.1-26.1c23.2-4,22,28,29.9,34.3
						c7.9,6.3,17.6-0.9,21.1,6.3s2.6,10.8,2.6,10.8s13.2-35.2,14.9-25.2c1.8,9.9-4.4,18.9-4.4,18.9s21.1-28,16.7-17.1
						c-4.4,10.8-9.7,18.9-9.7,18.9s29-7.2,24.6-2.7C1215.1,992.5,1201,997.9,1201,997.9z"/>
					<g>
						<g>
							<path class="st23" d="M1166.1,992.9c0.2-1.6,0.5-3.9,1-6.7c0.1-0.8,0.3-1.6,0.5-2.5c0.4,0.1,3.3,0.4,4.6,0.1
								c1.2-0.4,2.6-1.1,3.1-2.4c0.5-1.2-0.1-2.6-1.4-3c-1.8-0.5-4.4,1.7-5.3,3.1c-0.1,0.1-0.6,1.2-0.9,1.8c0.1-0.5,0.2-1,0.3-1.6
								c0.2-0.8,0.4-1.6,0.6-2.4c0.1-0.4,0.2-0.8,0.4-1.2c0.1-0.4,0.3-0.8,0.4-1.2c0.2-0.6,0.5-1.2,0.7-1.8c0.8,0.2,3.1,0.8,4.3,0.7
								c1.2-0.2,2.8-0.7,3.4-1.9c0.6-1.1,0.3-2.6-1-3.1c-1.7-0.7-4.6,1-5.7,2.3c0,0-0.2,0.3-0.5,0.7c0.3-0.6,0.5-1.2,0.8-1.8
								c0.8-1.7,1.7-3.3,2.5-5c0.2-0.3,0.4-0.7,0.5-1c0.7,0.2,3.2,0.9,4.4,0.7c1.2-0.2,2.8-0.7,3.4-1.9c0.6-1.1,0.3-2.6-1-3.1
								c-1.7-0.7-4.6,1-5.7,2.3c0,0-0.3,0.4-0.6,0.8c0.5-0.9,0.9-1.8,1.3-2.8c0.7-1.6,1.3-3.3,1.8-4.9c0.2,0.1,3.1,0.9,4.5,0.7
								c1.2-0.2,2.8-0.7,3.4-1.9c0.6-1.1,0.3-2.6-1-3.1c-1.7-0.7-4.6,1-5.7,2.3c-0.1,0.1-1,1.3-1.2,1.8c0,0,0,0,0-0.1
								c0.5-1.7,0.7-3.4,0.9-5c0.2-1.6,0.2-3.2,0.1-4.6c0-1.4-0.1-2.7-0.2-3.8c-0.1-0.6-0.1-1.2-0.2-1.7c0,0,0,0,0,0
								c0,0,0.7-2.1,0.7-2.3c0.3-1.6-0.1-5-1.8-5.8c-1.2-0.6-2.6,0-3,1.2c-0.5,1.2,0,2.8,0.7,3.8c0.7,1.1,2.8,2.6,3.3,3
								c0.1,0.5,0.1,1.1,0.2,1.8c0.1,1.1,0.2,2.4,0.1,3.8c0,0.4,0,0.8,0,1.2c-0.1-0.7-0.3-1.6-0.3-1.7c-0.5-1.6-2.4-4.4-4.3-4.4
								c-1.3,0-2.3,1.2-2.1,2.5c0.1,1.3,1.3,2.4,2.3,3.1c1.1,0.7,3.8,1.1,4.4,1.1c0,0.9-0.1,1.8-0.2,2.7c-0.2,1.6-0.5,3.3-1,4.9
								c0,0.1-0.1,0.2-0.1,0.3c0-0.3-0.2-2.2-0.2-2.3c-0.3-1.6-1.9-4.6-3.8-4.8c-1.3-0.2-2.4,0.9-2.4,2.2c0,1.3,1,2.6,2,3.3
								c1.1,0.9,4.2,1.6,4.3,1.6c-0.5,1.6-1.1,3.1-1.9,4.7c-0.5,1.1-1.1,2.2-1.7,3.4c0-0.4-0.2-2.2-0.2-2.3
								c-0.3-1.6-1.9-4.6-3.8-4.8c-1.3-0.2-2.4,0.9-2.4,2.2c0,1.3,1,2.6,2,3.3c1.1,0.9,4,1.6,4.3,1.6c-0.3,0.5-0.5,1-0.8,1.5
								c-0.9,1.7-1.8,3.3-2.6,5c-0.3,0.6-0.6,1.2-0.8,1.7c0-0.7-0.1-1.9-0.2-2c-0.3-1.6-1.9-4.6-3.8-4.8c-1.3-0.2-2.4,0.9-2.4,2.2
								c0,1.3,1,2.6,2,3.3c1,0.8,3.4,1.4,4.1,1.6c-0.4,1-0.9,1.9-1.2,2.9c-0.1,0.4-0.3,0.8-0.4,1.3c-0.1,0.4-0.3,0.8-0.4,1.2
								c-0.2,0.8-0.4,1.6-0.6,2.4c-0.1,0.4-0.2,0.8-0.3,1.2c0.1-0.7,0.1-1.7,0.1-1.8c-0.1-1.7-1.2-4.8-3-5.3
								c-1.3-0.4-2.5,0.6-2.7,1.8c-0.2,1.3,0.6,2.7,1.5,3.6c0.9,1,3.6,2.1,4,2.2c-0.2,1-0.4,1.9-0.6,2.8c-0.6,2.8-0.9,5.1-1.2,6.7
								c-0.2,1.6-0.3,2.6-0.3,2.6l0,0c0,0,0,0,0,0c0,0.4,0.2,0.7,0.6,0.7c0.4,0,0.7-0.2,0.7-0.6
								C1165.9,995.4,1165.9,994.5,1166.1,992.9z"/>
							<path class="st23" d="M1179.4,948.7c0,0,3.3,0.1,4.6-0.5c1.1-0.5,2.5-1.4,2.8-2.7c0.3-1.2-0.4-2.6-1.7-2.8
								c-1.8-0.3-4.1,2.2-4.9,3.7C1180.1,946.6,1179.4,948.7,1179.4,948.7z"/>
						</g>
						<g>
							<path class="st23" d="M1164.2,992.8c-0.7-1.5-1.7-3.6-2.8-6.2c-0.3-0.7-0.6-1.5-1-2.4c0.3-0.2,3-1.4,3.8-2.5
								c0.8-1,1.5-2.4,1.3-3.7c-0.3-1.3-1.5-2.1-2.8-1.7c-1.8,0.6-2.7,3.8-2.7,5.5c0,0.1,0.2,1.4,0.3,2c-0.2-0.5-0.4-1-0.6-1.5
								c-0.3-0.7-0.6-1.5-0.8-2.3c-0.1-0.4-0.3-0.8-0.4-1.2c-0.1-0.4-0.2-0.8-0.3-1.2c-0.2-0.6-0.3-1.3-0.4-1.9c0.8-0.2,3-1,3.9-1.8
								c0.9-0.8,1.9-2.1,1.8-3.4c-0.1-1.3-1.2-2.3-2.5-2.1c-1.8,0.3-3.2,3.4-3.5,5c0,0.1,0,0.4,0,0.8c-0.1-0.6-0.2-1.3-0.3-1.9
								c-0.3-1.8-0.5-3.7-0.7-5.6c0-0.4-0.1-0.8-0.1-1.2c0.7-0.2,3.1-1,4.1-1.8c0.9-0.8,1.9-2.1,1.8-3.4c-0.1-1.3-1.2-2.3-2.5-2.1
								c-1.8,0.3-3.2,3.4-3.5,5c0,0.1,0,0.5,0,1c-0.1-1-0.3-2-0.4-3c-0.3-1.7-0.7-3.4-1.2-5.1c0.2-0.1,3.1-0.9,4.2-1.9
								c0.9-0.8,1.9-2.1,1.8-3.4c-0.1-1.3-1.2-2.3-2.5-2.1c-1.8,0.3-3.2,3.4-3.5,5c0,0.1-0.1,1.6,0,2.2c0,0,0,0,0-0.1
								c-0.5-1.7-1.3-3.2-2-4.7c-0.8-1.4-1.6-2.7-2.4-3.9c-0.8-1.2-1.6-2.2-2.3-3.1c-0.4-0.5-0.8-0.9-1.1-1.3c0,0,0,0,0,0
								c0,0-0.6-2.2-0.7-2.3c-0.7-1.5-2.8-4.1-4.7-3.9c-1.3,0.1-2.1,1.4-1.9,2.7c0.3,1.3,1.5,2.3,2.7,2.8c1.1,0.6,3.8,0.7,4.4,0.7
								c0.4,0.4,0.7,0.9,1.1,1.4c0.7,0.9,1.5,1.9,2.2,3.1c0.2,0.3,0.4,0.7,0.6,1c-0.5-0.5-1.1-1.1-1.2-1.2c-1.3-1-4.4-2.3-6-1.3
								c-1.1,0.7-1.2,2.3-0.4,3.3c0.8,1,2.4,1.3,3.7,1.3c1.3,0,3.7-1.2,4.3-1.5c0.4,0.7,0.9,1.5,1.3,2.3c0.7,1.4,1.4,3,1.9,4.7
								c0,0.1,0,0.2,0.1,0.3c-0.2-0.3-1.3-1.7-1.4-1.8c-1.2-1.2-4.1-2.8-5.8-1.9c-1.2,0.6-1.5,2.1-0.8,3.2c0.7,1.1,2.3,1.6,3.5,1.7
								c1.4,0.1,4.4-1,4.5-1c0.4,1.6,0.8,3.2,1,4.9c0.2,1.2,0.3,2.5,0.4,3.7c-0.3-0.4-1.3-1.7-1.4-1.8c-1.2-1.2-4.1-2.8-5.8-1.9
								c-1.2,0.6-1.5,2.1-0.8,3.2c0.7,1.1,2.3,1.6,3.5,1.7c1.4,0.1,4.2-0.9,4.5-1c0.1,0.6,0.1,1.1,0.2,1.7c0.2,1.9,0.3,3.7,0.5,5.6
								c0.1,0.6,0.2,1.3,0.3,1.9c-0.4-0.5-1.1-1.5-1.2-1.5c-1.2-1.2-4.1-2.8-5.8-1.9c-1.2,0.6-1.5,2.1-0.8,3.2
								c0.7,1.1,2.3,1.6,3.5,1.7c1.2,0.1,3.7-0.7,4.3-1c0.2,1,0.3,2.1,0.6,3.1c0.1,0.4,0.2,0.9,0.3,1.3c0.1,0.4,0.2,0.8,0.4,1.2
								c0.3,0.8,0.5,1.6,0.8,2.4c0.1,0.4,0.3,0.8,0.4,1.1c-0.3-0.6-0.9-1.5-0.9-1.6c-1-1.3-3.7-3.4-5.4-2.8c-1.3,0.4-1.8,1.9-1.2,3
								c0.5,1.2,2,1.9,3.2,2.2c1.3,0.3,4.2-0.2,4.6-0.3c0.3,0.9,0.7,1.8,1,2.6c1.1,2.6,2,4.8,2.7,6.3c0.7,1.5,1.1,2.3,1.1,2.3l0,0
								c0,0,0,0,0,0c0.2,0.3,0.6,0.4,0.9,0.3c0.3-0.2,0.4-0.6,0.3-0.9C1165.4,995.1,1165,994.3,1164.2,992.8z"/>
							<path class="st23" d="M1151,948.7c0,0,2.8-1.7,3.6-2.9c0.7-1,1.3-2.5,0.8-3.8c-0.4-1.2-1.8-1.9-3-1.4c-1.7,0.8-2.2,4.1-2,5.8
								C1150.4,946.5,1150.9,948.7,1151,948.7z"/>
						</g>
					</g>
				</g>
				<g>
					<path class="st23" d="M982.6,998.2c0,0-15.2-5-10.9-1.1c0.8,0.7,1.3,1.1,1.8,1.5h44.9l1.4-2.7l0.3-0.7l0.5-1.1l-5.4-3.7l5.7,3
						l1.5-3.4l-1.2-11.3l1.8,10.3l1.1-2.8l5-9.5l-8.2,17.9l11.7-4.6l-12.2,5.6l-1.4,2.8h48.6c2.6-0.3,6.4-1.1,7.1-3.1
						c1.1-3.3-10.3-3.3-10.3-3.3s12-5,7.6-6.1c-4.3-1.1-12,3.3-12,3.3s4.3-9.9-1.1-7.7c-4,1.6-5.7,4.8-6.3,6.3
						c0.6-2,1.7-6.5-1.4-5.2c-2,0.9-3.6,2.7-4.6,4.2c1.5-2.9,2.7-7.3-3.6-5.8c0,0,1.3-13.5-13-16c-14.4-2.5-13.6,17.1-18.5,21
						c-4.9,3.9-10.9-0.6-13,3.9c-2.2,4.4-1.6,6.6-1.6,6.6s-8.1-21.5-9.2-15.4c-1.1,6.1,2.7,11.6,2.7,11.6s-13-17.1-10.3-10.5
						c2.7,6.6,6,11.6,6,11.6s-17.9-4.4-15.2-1.7C973.9,994.9,982.6,998.2,982.6,998.2z"/>
					<g>
						<g>
							<path class="st23" d="M1057.4,995.1c-0.1-1-0.3-2.4-0.6-4.1c-0.1-0.5-0.2-1-0.3-1.5c-0.2,0-2,0.3-2.8,0
								c-0.7-0.2-1.6-0.7-1.9-1.4c-0.3-0.7,0.1-1.6,0.9-1.8c1.1-0.3,2.7,1,3.2,1.9c0,0.1,0.4,0.7,0.6,1.1c-0.1-0.3-0.1-0.6-0.2-1
								c-0.1-0.5-0.2-1-0.4-1.5c-0.1-0.2-0.1-0.5-0.2-0.8c-0.1-0.3-0.2-0.5-0.3-0.7c-0.1-0.4-0.3-0.7-0.4-1.1
								c-0.5,0.1-1.9,0.5-2.6,0.4c-0.8-0.1-1.7-0.4-2.1-1.1c-0.4-0.7-0.2-1.6,0.6-1.9c1.1-0.5,2.8,0.6,3.5,1.4c0,0,0.1,0.2,0.3,0.4
								c-0.2-0.4-0.3-0.7-0.5-1.1c-0.5-1-1-2-1.6-3.1c-0.1-0.2-0.2-0.4-0.3-0.6c-0.4,0.1-2,0.5-2.7,0.4c-0.8-0.1-1.7-0.4-2.1-1.1
								c-0.4-0.7-0.2-1.6,0.6-1.9c1.1-0.5,2.8,0.6,3.5,1.4c0,0,0.2,0.2,0.3,0.5c-0.3-0.6-0.6-1.1-0.8-1.7c-0.4-1-0.8-2-1.1-3
								c-0.1,0-1.9,0.6-2.8,0.5c-0.8-0.1-1.7-0.4-2.1-1.1c-0.4-0.7-0.2-1.6,0.6-1.9c1.1-0.5,2.8,0.6,3.5,1.4c0,0.1,0.6,0.8,0.8,1.1
								c0,0,0,0,0,0c-0.3-1-0.5-2.1-0.5-3.1c-0.1-1-0.1-1.9-0.1-2.8c0-0.9,0.1-1.7,0.1-2.4c0-0.4,0.1-0.7,0.1-1c0,0,0,0,0,0
								c0,0-0.4-1.3-0.4-1.4c-0.2-1,0.1-3,1.1-3.6c0.7-0.4,1.6,0,1.9,0.7c0.3,0.7,0,1.7-0.4,2.3c-0.4,0.7-1.7,1.6-2.1,1.8
								c0,0.3-0.1,0.7-0.1,1.1c0,0.7-0.1,1.5-0.1,2.3c0,0.2,0,0.5,0,0.7c0.1-0.4,0.2-1,0.2-1c0.3-1,1.5-2.7,2.6-2.7
								c0.8,0,1.4,0.7,1.3,1.5c-0.1,0.8-0.8,1.5-1.5,1.9c-0.7,0.4-2.3,0.6-2.7,0.7c0,0.5,0.1,1.1,0.1,1.6c0.1,1,0.3,2,0.6,3
								c0,0.1,0,0.1,0.1,0.2c0-0.2,0.1-1.3,0.1-1.4c0.2-1,1.2-2.8,2.3-2.9c0.8-0.1,1.5,0.6,1.5,1.4c0,0.8-0.6,1.6-1.2,2
								c-0.7,0.5-2.6,1-2.7,1c0.3,1,0.7,1.9,1.1,2.9c0.3,0.7,0.7,1.4,1.1,2.1c0-0.3,0.1-1.3,0.1-1.4c0.2-1,1.2-2.8,2.3-2.9
								c0.8-0.1,1.5,0.6,1.5,1.4c0,0.8-0.6,1.6-1.2,2c-0.7,0.5-2.5,1-2.7,1c0.2,0.3,0.3,0.6,0.5,0.9c0.6,1,1.1,2,1.6,3
								c0.2,0.4,0.3,0.7,0.5,1.1c0-0.4,0.1-1.1,0.1-1.2c0.2-1,1.2-2.8,2.3-2.9c0.8-0.1,1.5,0.6,1.5,1.4c0,0.8-0.6,1.6-1.2,2
								c-0.6,0.5-2.1,0.9-2.6,1c0.3,0.6,0.5,1.2,0.8,1.8c0.1,0.3,0.2,0.5,0.3,0.8c0.1,0.3,0.2,0.5,0.2,0.8c0.1,0.5,0.3,1,0.4,1.5
								c0.1,0.2,0.1,0.5,0.2,0.7c0-0.4-0.1-1.1-0.1-1.1c0-1,0.7-3,1.8-3.3c0.8-0.2,1.5,0.4,1.7,1.1c0.1,0.8-0.4,1.6-0.9,2.2
								c-0.6,0.6-2.3,1.3-2.5,1.4c0.1,0.6,0.3,1.2,0.4,1.7c0.4,1.7,0.6,3.1,0.7,4.1c0.1,1,0.2,1.6,0.2,1.6l0,0c0,0,0,0,0,0
								c0,0.2-0.1,0.4-0.4,0.4c-0.2,0-0.4-0.1-0.4-0.4C1057.6,996.6,1057.6,996.1,1057.4,995.1z"/>
							<path class="st23" d="M1049.2,968.1c0,0-2,0.1-2.9-0.3c-0.7-0.3-1.5-0.9-1.7-1.7c-0.2-0.8,0.3-1.6,1.1-1.7
								c1.1-0.2,2.6,1.3,3,2.3C1048.8,966.8,1049.2,968.1,1049.2,968.1z"/>
						</g>
						<g>
							<path class="st23" d="M1058.6,995.1c0.5-0.9,1.1-2.2,1.8-3.8c0.2-0.5,0.4-0.9,0.6-1.4c-0.2-0.1-1.8-0.9-2.4-1.5
								c-0.5-0.6-1-1.5-0.8-2.2c0.2-0.8,1-1.3,1.7-1c1.1,0.4,1.7,2.3,1.6,3.4c0,0.1-0.1,0.8-0.2,1.2c0.1-0.3,0.2-0.6,0.4-0.9
								c0.2-0.5,0.3-0.9,0.5-1.4c0.1-0.2,0.2-0.5,0.2-0.8c0.1-0.3,0.1-0.5,0.2-0.8c0.1-0.4,0.2-0.8,0.3-1.2
								c-0.5-0.1-1.9-0.6-2.4-1.1c-0.6-0.5-1.2-1.3-1.1-2.1c0.1-0.8,0.7-1.4,1.6-1.3c1.1,0.2,2,2.1,2.1,3.1c0,0,0,0.2,0,0.5
								c0.1-0.4,0.1-0.8,0.2-1.2c0.2-1.1,0.3-2.3,0.4-3.4c0-0.2,0.1-0.5,0.1-0.7c-0.4-0.1-1.9-0.6-2.5-1.1c-0.6-0.5-1.2-1.3-1.1-2.1
								c0.1-0.8,0.7-1.4,1.6-1.3c1.1,0.2,2,2.1,2.1,3.1c0,0,0,0.3,0,0.6c0.1-0.6,0.2-1.2,0.3-1.8c0.2-1.1,0.4-2.1,0.7-3.1
								c-0.1,0-1.9-0.6-2.6-1.1c-0.6-0.5-1.2-1.3-1.1-2.1c0.1-0.8,0.7-1.4,1.6-1.3c1.1,0.2,2,2.1,2.1,3.1c0,0.1,0,1,0,1.3
								c0,0,0,0,0,0c0.3-1,0.8-2,1.3-2.9c0.5-0.9,1-1.7,1.5-2.4c0.5-0.7,1-1.3,1.4-1.9c0.2-0.3,0.5-0.6,0.7-0.8c0,0,0,0,0,0
								c0,0,0.4-1.3,0.4-1.4c0.4-0.9,1.8-2.5,2.9-2.4c0.8,0.1,1.3,0.9,1.2,1.7c-0.2,0.8-1,1.4-1.6,1.7c-0.7,0.3-2.3,0.4-2.7,0.4
								c-0.2,0.3-0.4,0.5-0.7,0.9c-0.4,0.6-0.9,1.2-1.4,1.9c-0.1,0.2-0.3,0.4-0.4,0.6c0.3-0.3,0.7-0.7,0.7-0.7
								c0.8-0.6,2.7-1.4,3.7-0.8c0.7,0.4,0.8,1.4,0.3,2c-0.5,0.6-1.5,0.8-2.3,0.8c-0.8,0-2.3-0.7-2.6-0.9c-0.3,0.5-0.6,0.9-0.8,1.4
								c-0.4,0.9-0.9,1.8-1.2,2.9c0,0.1,0,0.1,0,0.2c0.1-0.2,0.8-1.1,0.9-1.1c0.7-0.7,2.5-1.7,3.6-1.2c0.7,0.4,0.9,1.3,0.5,2
								c-0.4,0.7-1.4,1-2.2,1c-0.9,0.1-2.7-0.6-2.8-0.6c-0.3,1-0.5,2-0.6,3c-0.1,0.8-0.2,1.5-0.3,2.3c0.2-0.2,0.8-1.1,0.9-1.1
								c0.7-0.7,2.5-1.7,3.6-1.2c0.7,0.4,0.9,1.3,0.5,2c-0.4,0.7-1.4,1-2.2,1c-0.9,0.1-2.6-0.6-2.8-0.6c0,0.3-0.1,0.7-0.1,1
								c-0.1,1.1-0.2,2.3-0.3,3.4c0,0.4-0.1,0.8-0.2,1.2c0.2-0.3,0.7-0.9,0.8-0.9c0.7-0.7,2.5-1.7,3.6-1.2c0.7,0.4,0.9,1.3,0.5,2
								c-0.4,0.7-1.4,1-2.2,1c-0.8,0.1-2.3-0.4-2.7-0.6c-0.1,0.6-0.2,1.3-0.4,1.9c-0.1,0.3-0.1,0.5-0.2,0.8
								c-0.1,0.3-0.1,0.5-0.2,0.8c-0.2,0.5-0.3,1-0.5,1.5c-0.1,0.2-0.2,0.5-0.3,0.7c0.2-0.4,0.5-0.9,0.6-1c0.6-0.8,2.3-2.1,3.4-1.7
								c0.8,0.3,1.1,1.1,0.8,1.9c-0.3,0.7-1.2,1.2-2,1.3c-0.8,0.2-2.6-0.2-2.8-0.2c-0.2,0.6-0.4,1.1-0.6,1.6
								c-0.7,1.6-1.3,2.9-1.7,3.8c-0.4,0.9-0.7,1.4-0.7,1.4l0,0c0,0,0,0,0,0c-0.1,0.2-0.4,0.3-0.5,0.2c-0.2-0.1-0.3-0.3-0.2-0.5
								C1057.9,996.5,1058.2,996,1058.6,995.1z"/>
							<path class="st23" d="M1066.8,968.1c0,0-1.7-1.1-2.2-1.8c-0.4-0.6-0.8-1.6-0.5-2.3c0.3-0.7,1.1-1.2,1.8-0.8
								c1,0.5,1.4,2.5,1.2,3.5C1067.2,966.7,1066.8,968.1,1066.8,968.1z"/>
						</g>
					</g>
					<g>
						<g>
							<path class="st23" d="M1005.1,995.6c-0.1-0.7-0.2-1.8-0.5-3.1c-0.1-0.4-0.1-0.8-0.2-1.2c-0.2,0-1.5,0.2-2.1,0
								c-0.6-0.2-1.2-0.5-1.4-1.1c-0.2-0.6,0.1-1.2,0.7-1.4c0.8-0.2,2,0.8,2.4,1.4c0,0,0.3,0.6,0.4,0.8c-0.1-0.2-0.1-0.5-0.2-0.7
								c-0.1-0.4-0.2-0.7-0.3-1.1c-0.1-0.2-0.1-0.4-0.2-0.6c-0.1-0.2-0.1-0.4-0.2-0.6c-0.1-0.3-0.2-0.6-0.3-0.8
								c-0.4,0.1-1.4,0.4-2,0.3c-0.6-0.1-1.3-0.3-1.6-0.9c-0.3-0.5-0.1-1.2,0.4-1.4c0.8-0.3,2.1,0.5,2.6,1c0,0,0.1,0.2,0.2,0.3
								c-0.1-0.3-0.2-0.5-0.4-0.8c-0.4-0.8-0.8-1.5-1.2-2.3c-0.1-0.2-0.2-0.3-0.2-0.5c-0.3,0.1-1.5,0.4-2,0.3
								c-0.6-0.1-1.3-0.3-1.6-0.9c-0.3-0.5-0.1-1.2,0.4-1.4c0.8-0.3,2.1,0.5,2.6,1c0,0,0.1,0.2,0.3,0.4c-0.2-0.4-0.4-0.8-0.6-1.3
								c-0.3-0.7-0.6-1.5-0.8-2.2c-0.1,0-1.5,0.4-2.1,0.3c-0.6-0.1-1.3-0.3-1.6-0.9c-0.3-0.5-0.1-1.2,0.4-1.4c0.8-0.3,2.1,0.5,2.6,1
								c0,0,0.4,0.6,0.6,0.8c0,0,0,0,0,0c-0.2-0.8-0.3-1.6-0.4-2.3c-0.1-0.7-0.1-1.5-0.1-2.1c0-0.7,0.1-1.2,0.1-1.8
								c0-0.3,0.1-0.5,0.1-0.8c0,0,0,0,0,0c0,0-0.3-1-0.3-1.1c-0.1-0.8,0.1-2.3,0.8-2.7c0.6-0.3,1.2,0,1.4,0.6
								c0.2,0.6,0,1.3-0.3,1.8c-0.3,0.5-1.3,1.2-1.5,1.4c0,0.3-0.1,0.5-0.1,0.8c0,0.5-0.1,1.1-0.1,1.8c0,0.2,0,0.4,0,0.5
								c0.1-0.3,0.1-0.7,0.2-0.8c0.2-0.7,1.1-2,2-2c0.6,0,1.1,0.6,1,1.1c-0.1,0.6-0.6,1.1-1.1,1.4c-0.5,0.3-1.8,0.5-2,0.5
								c0,0.4,0,0.8,0.1,1.2c0.1,0.7,0.2,1.5,0.5,2.3c0,0,0,0.1,0,0.1c0-0.2,0.1-1,0.1-1.1c0.2-0.8,0.9-2.1,1.7-2.2
								c0.6-0.1,1.1,0.4,1.1,1c0,0.6-0.5,1.2-0.9,1.5c-0.5,0.4-2,0.7-2,0.8c0.2,0.7,0.5,1.4,0.9,2.2c0.2,0.5,0.5,1,0.8,1.5
								c0-0.2,0.1-1,0.1-1.1c0.1-0.8,0.9-2.1,1.7-2.2c0.6-0.1,1.1,0.4,1.1,1c0,0.6-0.5,1.2-0.9,1.5c-0.5,0.4-1.9,0.7-2,0.7
								c0.1,0.2,0.2,0.5,0.4,0.7c0.4,0.8,0.8,1.5,1.2,2.3c0.1,0.3,0.3,0.5,0.4,0.8c0-0.3,0.1-0.9,0.1-0.9c0.2-0.8,0.9-2.1,1.7-2.2
								c0.6-0.1,1.1,0.4,1.1,1c0,0.6-0.5,1.2-0.9,1.5c-0.5,0.4-1.6,0.7-1.9,0.7c0.2,0.4,0.4,0.9,0.6,1.3c0.1,0.2,0.2,0.4,0.2,0.6
								c0.1,0.2,0.1,0.4,0.2,0.6c0.1,0.4,0.2,0.8,0.3,1.1c0,0.2,0.1,0.4,0.1,0.5c0-0.3-0.1-0.8-0.1-0.8c0-0.8,0.6-2.2,1.4-2.4
								c0.6-0.2,1.2,0.3,1.3,0.8c0.1,0.6-0.3,1.2-0.7,1.7c-0.4,0.5-1.7,1-1.8,1c0.1,0.4,0.2,0.9,0.3,1.3c0.3,1.3,0.4,2.4,0.6,3.1
								c0.1,0.8,0.2,1.2,0.2,1.2l0,0c0,0,0,0,0,0c0,0.2-0.1,0.3-0.3,0.3c-0.2,0-0.3-0.1-0.3-0.3
								C1005.2,996.7,1005.2,996.3,1005.1,995.6z"/>
							<path class="st23" d="M998.9,975.3c0,0-1.5,0-2.1-0.2c-0.5-0.2-1.1-0.7-1.3-1.2c-0.1-0.6,0.2-1.2,0.8-1.3
								c0.9-0.1,1.9,1,2.3,1.7C998.6,974.3,998.9,975.3,998.9,975.3z"/>
						</g>
						<g>
							<path class="st23" d="M1006,995.6c0.3-0.7,0.8-1.6,1.3-2.8c0.1-0.3,0.3-0.7,0.5-1.1c-0.2-0.1-1.4-0.7-1.8-1.1
								c-0.4-0.4-0.7-1.1-0.6-1.7c0.1-0.6,0.7-1,1.3-0.8c0.8,0.3,1.3,1.8,1.2,2.5c0,0-0.1,0.6-0.1,0.9c0.1-0.2,0.2-0.5,0.3-0.7
								c0.1-0.3,0.3-0.7,0.4-1.1c0.1-0.2,0.1-0.4,0.2-0.6c0.1-0.2,0.1-0.4,0.2-0.6c0.1-0.3,0.1-0.6,0.2-0.9
								c-0.4-0.1-1.4-0.5-1.8-0.8c-0.4-0.4-0.9-1-0.8-1.6c0-0.6,0.6-1.1,1.2-1c0.9,0.1,1.5,1.6,1.6,2.3c0,0,0,0.2,0,0.4
								c0.1-0.3,0.1-0.6,0.1-0.9c0.1-0.8,0.2-1.7,0.3-2.6c0-0.2,0-0.4,0.1-0.5c-0.3-0.1-1.4-0.5-1.9-0.8c-0.4-0.4-0.9-1-0.8-1.6
								c0-0.6,0.6-1.1,1.2-1c0.9,0.1,1.5,1.6,1.6,2.3c0,0,0,0.2,0,0.4c0.1-0.5,0.1-0.9,0.2-1.4c0.1-0.8,0.3-1.6,0.6-2.3
								c-0.1,0-1.5-0.4-1.9-0.9c-0.4-0.4-0.9-1-0.8-1.6c0-0.6,0.6-1.1,1.2-1c0.9,0.1,1.5,1.6,1.6,2.3c0,0.1,0,0.8,0,1c0,0,0,0,0,0
								c0.3-0.8,0.6-1.5,0.9-2.2c0.4-0.7,0.7-1.3,1.1-1.8c0.4-0.5,0.7-1,1.1-1.4c0.2-0.2,0.4-0.4,0.5-0.6c0,0,0,0,0,0
								c0,0,0.3-1,0.3-1.1c0.3-0.7,1.3-1.9,2.2-1.8c0.6,0.1,1,0.7,0.9,1.2c-0.1,0.6-0.7,1.1-1.2,1.3c-0.5,0.3-1.8,0.3-2.1,0.3
								c-0.2,0.2-0.3,0.4-0.5,0.6c-0.3,0.4-0.7,0.9-1,1.4c-0.1,0.1-0.2,0.3-0.3,0.5c0.2-0.2,0.5-0.5,0.6-0.6c0.6-0.5,2-1.1,2.8-0.6
								c0.5,0.3,0.6,1,0.2,1.5c-0.4,0.5-1.1,0.6-1.7,0.6c-0.6,0-1.7-0.6-2-0.7c-0.2,0.3-0.4,0.7-0.6,1.1c-0.3,0.7-0.7,1.4-0.9,2.1
								c0,0,0,0.1,0,0.1c0.1-0.1,0.6-0.8,0.7-0.8c0.5-0.5,1.9-1.3,2.7-0.9c0.6,0.3,0.7,1,0.4,1.5c-0.3,0.5-1.1,0.7-1.6,0.8
								c-0.7,0.1-2-0.5-2.1-0.5c-0.2,0.7-0.4,1.5-0.5,2.3c-0.1,0.6-0.1,1.1-0.2,1.7c0.1-0.2,0.6-0.8,0.7-0.8
								c0.5-0.5,1.9-1.3,2.7-0.9c0.6,0.3,0.7,1,0.4,1.5c-0.3,0.5-1.1,0.7-1.6,0.8c-0.6,0.1-2-0.4-2.1-0.5c0,0.3-0.1,0.5-0.1,0.8
								c-0.1,0.9-0.2,1.7-0.3,2.6c0,0.3-0.1,0.6-0.1,0.9c0.2-0.2,0.5-0.7,0.6-0.7c0.5-0.5,1.9-1.3,2.7-0.9c0.6,0.3,0.7,1,0.4,1.5
								c-0.3,0.5-1.1,0.7-1.6,0.8c-0.6,0-1.7-0.3-2-0.4c-0.1,0.5-0.2,1-0.3,1.4c-0.1,0.2-0.1,0.4-0.1,0.6c-0.1,0.2-0.1,0.4-0.2,0.6
								c-0.1,0.4-0.2,0.7-0.4,1.1c-0.1,0.2-0.1,0.3-0.2,0.5c0.2-0.3,0.4-0.7,0.4-0.7c0.5-0.6,1.7-1.6,2.5-1.3
								c0.6,0.2,0.8,0.9,0.6,1.4c-0.2,0.6-0.9,0.9-1.5,1c-0.6,0.1-2-0.1-2.1-0.1c-0.2,0.4-0.3,0.8-0.5,1.2c-0.5,1.2-0.9,2.2-1.3,2.9
								c-0.3,0.7-0.5,1.1-0.5,1.1l0,0c0,0,0,0,0,0c-0.1,0.1-0.3,0.2-0.4,0.1c-0.1-0.1-0.2-0.3-0.1-0.4
								C1005.4,996.6,1005.6,996.2,1006,995.6z"/>
							<path class="st23" d="M1012.2,975.2c0,0-1.3-0.8-1.7-1.4c-0.3-0.5-0.6-1.2-0.4-1.7c0.2-0.6,0.8-0.9,1.4-0.6
								c0.8,0.4,1,1.9,0.9,2.6C1012.4,974.2,1012.2,975.3,1012.2,975.2z"/>
						</g>
					</g>
				</g>
			</g>
			<g>
				<g>
					<g>
						<rect x="932.3" y="997.2" class="st25" width="290.4" height="15.7"/>
						<g>
							<line class="st26" x1="1130.1" y1="997.8" x2="1130.1" y2="1007"/>
							<line class="st26" x1="1136.1" y1="997.8" x2="1136.1" y2="1002.8"/>
							<line class="st26" x1="1142.1" y1="997.8" x2="1142.1" y2="1002.8"/>
							<line class="st26" x1="1148.1" y1="997.8" x2="1148.1" y2="1010.5"/>
							<line class="st26" x1="1155.3" y1="997.8" x2="1155.3" y2="1003.8"/>
						</g>
						<rect x="1018.1" y="782.2" class="st27" width="67.1" height="32.2"/>
						<rect x="1062" y="782.2" class="st25" width="23.2" height="32.2"/>
						<polygon class="st23" points="992.4,830.7 992.4,765.7 791.1,765.7 791.1,1012.9 923.5,1012.9 992.4,1012.9 1124.8,1012.9 
							1124.8,830.7 						"/>
						<rect x="1098.1" y="830.7" class="st25" width="26.7" height="182.2"/>
						<rect x="992.1" y="816.9" class="st27" width="132.6" height="37.6"/>
						<rect x="859.8" y="767.5" class="st27" width="132.6" height="37.6"/>
						<rect x="768.2" y="758.5" class="st25" width="232.7" height="37.6"/>
						<rect x="992.1" y="808.2" class="st25" width="144.8" height="37.6"/>
						<g>
							<line class="st26" x1="936" y1="759.2" x2="936" y2="774"/>
							<line class="st26" x1="942" y1="759.2" x2="942" y2="774"/>
							<line class="st26" x1="942" y1="778" x2="942" y2="789.4"/>
							<line class="st26" x1="948" y1="759.2" x2="948" y2="774"/>
							<line class="st26" x1="948" y1="778.7" x2="948" y2="789.2"/>
							<line class="st26" x1="953.6" y1="778.7" x2="953.6" y2="785.3"/>
							<line class="st26" x1="954" y1="759.2" x2="954" y2="774"/>
							<line class="st26" x1="960.8" y1="770.3" x2="960.8" y2="774"/>
							<line class="st26" x1="961.2" y1="759.2" x2="961.2" y2="767.6"/>
							<line class="st26" x1="936" y1="777" x2="936" y2="785.8"/>
						</g>
						<g>
							<line class="st26" x1="998.2" y1="808.4" x2="998.2" y2="823.3"/>
							<line class="st26" x1="1004.2" y1="808.4" x2="1004.2" y2="823.3"/>
							<line class="st26" x1="1004.2" y1="827.3" x2="1004.2" y2="838.6"/>
							<line class="st26" x1="1010.2" y1="808.4" x2="1010.2" y2="823.3"/>
							<line class="st26" x1="1010.2" y1="827.9" x2="1010.2" y2="838.5"/>
							<line class="st26" x1="1015.8" y1="827.9" x2="1015.8" y2="834.6"/>
							<line class="st26" x1="1016.2" y1="808.4" x2="1016.2" y2="823.3"/>
							<line class="st26" x1="1023" y1="819.5" x2="1023" y2="823.3"/>
							<line class="st26" x1="1023.4" y1="808.4" x2="1023.4" y2="816.9"/>
							<line class="st26" x1="998.2" y1="826.3" x2="998.2" y2="835.1"/>
						</g>
					</g>
					<g>
						<g>
							<g>
								<defs>
									<rect id="XMLID_76_" x="938.8" y="876.7" width="44.4" height="40.3"/>
								</defs>
								<use xlink:href="#XMLID_76_"  style="overflow:visible;fill:#FFFFFF;"/>
								<clipPath id="XMLID_78_">
									<use xlink:href="#XMLID_76_"  style="overflow:visible;"/>
								</clipPath>
								<g class="st28">
									<polyline class="st23" points="938.8,907.5 938.8,915.5 983.2,879.4 983.2,876.7 976.7,876.7 									"/>
									<polyline class="st23" points="983.2,896.2 983.2,888.2 947.7,917 957.5,917 									"/>
								</g>
								
									<use xlink:href="#XMLID_76_"  style="overflow:visible;fill:none;stroke:#263239;stroke-linecap:round;stroke-linejoin:round;stroke-miterlimit:10;"/>
							</g>
							<rect x="938.8" y="865.1" class="st25" width="44.4" height="17.5"/>
						</g>
						<g>
							<g>
								<defs>
									<rect id="XMLID_75_" x="1001.4" y="876.7" width="44.4" height="40.3"/>
								</defs>
								<use xlink:href="#XMLID_75_"  style="overflow:visible;fill:#FFFFFF;"/>
								<clipPath id="XMLID_79_">
									<use xlink:href="#XMLID_75_"  style="overflow:visible;"/>
								</clipPath>
								<g class="st29">
									<polygon class="st23" points="1039.3,876.7 1001.4,907.5 1001.4,915.5 1045.8,879.4 1045.8,876.7 									"/>
									<polygon class="st23" points="1020.2,917 1045.8,896.2 1045.8,888.2 1010.3,917 									"/>
								</g>
								
									<use xlink:href="#XMLID_75_"  style="overflow:visible;fill:none;stroke:#263239;stroke-linecap:round;stroke-linejoin:round;stroke-miterlimit:10;"/>
							</g>
							<rect x="1001.4" y="865.1" class="st25" width="44.4" height="17.5"/>
						</g>
						<g>
							<g>
								<defs>
									<rect id="XMLID_74_" x="1064.1" y="876.7" width="44.4" height="40.3"/>
								</defs>
								<use xlink:href="#XMLID_74_"  style="overflow:visible;fill:#FFFFFF;"/>
								<clipPath id="XMLID_80_">
									<use xlink:href="#XMLID_74_"  style="overflow:visible;"/>
								</clipPath>
								<g class="st30">
									<polygon class="st23" points="1101.9,876.7 1064.1,907.5 1064.1,915.5 1108.5,879.4 1108.5,876.7 									"/>
									<polygon class="st23" points="1082.8,917 1108.5,896.2 1108.5,888.2 1073,917 									"/>
								</g>
								
									<use xlink:href="#XMLID_74_"  style="overflow:visible;fill:none;stroke:#263239;stroke-linecap:round;stroke-linejoin:round;stroke-miterlimit:10;"/>
							</g>
							<rect x="1064.1" y="865.1" class="st25" width="44.4" height="17.5"/>
						</g>
						<g>
							<g>
								<defs>
									<rect id="XMLID_73_" x="938.8" y="944.6" width="44.4" height="40.3"/>
								</defs>
								<use xlink:href="#XMLID_73_"  style="overflow:visible;fill:#FFFFFF;"/>
								<clipPath id="XMLID_81_">
									<use xlink:href="#XMLID_73_"  style="overflow:visible;"/>
								</clipPath>
								<g class="st31">
									<polyline class="st23" points="938.8,975.4 938.8,983.4 983.2,947.3 983.2,944.6 976.7,944.6 									"/>
									<polyline class="st23" points="983.2,964.1 983.2,956.1 947.7,984.9 957.5,984.9 									"/>
								</g>
								
									<use xlink:href="#XMLID_73_"  style="overflow:visible;fill:none;stroke:#263239;stroke-linecap:round;stroke-linejoin:round;stroke-miterlimit:10;"/>
							</g>
							<rect x="938.8" y="933" class="st25" width="44.4" height="17.5"/>
						</g>
						<g>
							<g>
								<defs>
									<rect id="XMLID_72_" x="1001.4" y="944.6" width="44.4" height="40.3"/>
								</defs>
								<use xlink:href="#XMLID_72_"  style="overflow:visible;fill:#FFFFFF;"/>
								<clipPath id="XMLID_82_">
									<use xlink:href="#XMLID_72_"  style="overflow:visible;"/>
								</clipPath>
								<g class="st32">
									<polyline class="st23" points="1001.4,975.4 1001.4,983.4 1045.8,947.3 1045.8,944.6 1039.3,944.6 									"/>
									<polyline class="st23" points="1010.3,984.9 1020.2,984.9 1045.8,964.1 1045.8,956.1 									"/>
								</g>
								
									<use xlink:href="#XMLID_72_"  style="overflow:visible;fill:none;stroke:#263239;stroke-linecap:round;stroke-linejoin:round;stroke-miterlimit:10;"/>
							</g>
							<rect x="1001.4" y="933" class="st25" width="44.4" height="17.5"/>
						</g>
						<g>
							<g>
								<defs>
									<rect id="XMLID_71_" x="1064.1" y="944.6" width="44.4" height="40.3"/>
								</defs>
								<use xlink:href="#XMLID_71_"  style="overflow:visible;fill:#FFFFFF;"/>
								<clipPath id="XMLID_83_">
									<use xlink:href="#XMLID_71_"  style="overflow:visible;"/>
								</clipPath>
								<g class="st33">
									<polygon class="st23" points="1101.9,944.6 1064.1,975.4 1064.1,983.4 1108.5,947.3 1108.5,944.6 									"/>
									<polygon class="st23" points="1082.8,984.9 1108.5,964.1 1108.5,956.1 1073,984.9 									"/>
								</g>
								
									<use xlink:href="#XMLID_71_"  style="overflow:visible;fill:none;stroke:#263239;stroke-linecap:round;stroke-linejoin:round;stroke-miterlimit:10;"/>
							</g>
							<rect x="1064.1" y="933" class="st25" width="44.4" height="17.5"/>
						</g>
					</g>
				</g>
			</g>
			<g>
				<g>
					<g>
						<rect x="405.4" y="743.3" class="st7" width="52.1" height="46.2"/>
						<rect x="428.9" y="743.3" class="st27" width="52.1" height="46.2"/>
						<rect x="408.1" y="805.2" class="st27" width="205.3" height="207.7"/>
						<rect x="395" y="782.6" class="st34" width="218.4" height="37.6"/>
						<rect x="492.8" y="704.9" class="st34" width="63.4" height="59.2"/>
						<polygon class="st7" points="524.5,671.5 486.1,706.1 562.8,706.1 						"/>
						<polygon class="st34" points="562.8,706.1 524.5,671.5 503.5,706.1 						"/>
						<rect x="494.8" y="754.8" class="st34" width="4.5" height="35.7"/>
						<rect x="548.3" y="754.8" class="st34" width="4.5" height="35.7"/>
						<rect x="519" y="754.8" class="st34" width="4.5" height="35.7"/>
						<rect x="527.3" y="754.8" class="st34" width="4.5" height="35.7"/>
						<rect x="415.8" y="830.7" class="st25" width="10.8" height="43.3"/>
						<rect x="415.8" y="899.4" class="st25" width="10.8" height="43.3"/>
					</g>
					<rect x="580.1" y="423.6" class="st27" width="349.7" height="589.3"/>
					<rect x="728.5" y="423.6" class="st25" width="201.4" height="589.3"/>
					<rect x="751.8" y="423.6" class="st7" width="154.6" height="589.3"/>
					<rect x="728.5" y="423.6" class="st27" width="201.4" height="40.4"/>
					<g>
						<g>
							<defs>
								<rect id="XMLID_70_" x="780.2" y="940.5" width="97.8" height="72.4"/>
							</defs>
							<use xlink:href="#XMLID_70_"  style="overflow:visible;fill:#FFFFFF;"/>
							<clipPath id="XMLID_84_">
								<use xlink:href="#XMLID_70_"  style="overflow:visible;"/>
							</clipPath>
							<g class="st35">
								<polygon class="st7" points="823.1,964.1 781.2,1002.2 781.2,1012.6 781.9,1012.6 829.2,969.5 829.2,964.1 								"/>
								<polygon class="st7" points="807.2,1012.6 829.2,992.5 829.2,981.5 795.2,1012.6 								"/>
							</g>
							
								<use xlink:href="#XMLID_70_"  style="overflow:visible;fill:none;stroke:#263239;stroke-linecap:round;stroke-linejoin:round;stroke-miterlimit:10;"/>
						</g>
						<g>
							<defs>
								<rect id="XMLID_69_" x="829.2" y="940.5" width="48.9" height="72.4"/>
							</defs>
							<use xlink:href="#XMLID_69_"  style="overflow:visible;fill:#FFFFFF;"/>
							<clipPath id="XMLID_85_">
								<use xlink:href="#XMLID_69_"  style="overflow:visible;"/>
							</clipPath>
							<g class="st36">
								<polygon class="st7" points="871.1,964.1 829.2,1002.2 829.2,1012.6 829.9,1012.6 877.2,969.5 877.2,964.1 								"/>
								<polygon class="st7" points="855.2,1012.6 877.2,992.5 877.2,981.5 843.2,1012.6 								"/>
							</g>
							
								<use xlink:href="#XMLID_69_"  style="overflow:visible;fill:none;stroke:#263239;stroke-linecap:round;stroke-linejoin:round;stroke-miterlimit:10;"/>
						</g>
					</g>
					<g>
						<g>
							<g>
								<defs>
									<rect id="XMLID_68_" x="603.4" y="489.7" width="44.4" height="40.3"/>
								</defs>
								<use xlink:href="#XMLID_68_"  style="overflow:visible;fill:#FFFFFF;"/>
								<clipPath id="XMLID_86_">
									<use xlink:href="#XMLID_68_"  style="overflow:visible;"/>
								</clipPath>
								<g class="st37">
									<polyline class="st7" points="647.8,492.4 647.8,489.7 641.3,489.7 603.4,520.5 603.4,528.5 									"/>
									<polyline class="st7" points="647.8,509.2 647.8,501.2 612.3,530.1 622.1,530.1 									"/>
								</g>
								
									<use xlink:href="#XMLID_68_"  style="overflow:visible;fill:none;stroke:#263239;stroke-linecap:round;stroke-linejoin:round;stroke-miterlimit:10;"/>
							</g>
							<rect x="603.4" y="478.1" class="st25" width="44.4" height="17.5"/>
						</g>
						<g>
							<g>
								<defs>
									<rect id="XMLID_67_" x="666.8" y="489.7" width="44.4" height="40.3"/>
								</defs>
								<use xlink:href="#XMLID_67_"  style="overflow:visible;fill:#FFFFFF;"/>
								<clipPath id="XMLID_87_">
									<use xlink:href="#XMLID_67_"  style="overflow:visible;"/>
								</clipPath>
								<g class="st38">
									<polyline class="st7" points="666.8,520.5 666.8,528.5 711.2,492.4 711.2,489.7 704.7,489.7 									"/>
									<polyline class="st7" points="711.2,509.2 711.2,501.2 675.7,530.1 685.5,530.1 									"/>
								</g>
								
									<use xlink:href="#XMLID_67_"  style="overflow:visible;fill:none;stroke:#263239;stroke-linecap:round;stroke-linejoin:round;stroke-miterlimit:10;"/>
							</g>
							<rect x="666.8" y="478.1" class="st25" width="44.4" height="17.5"/>
						</g>
						<g>
							<g>
								<defs>
									<rect id="XMLID_66_" x="603.4" y="567.1" width="44.4" height="40.3"/>
								</defs>
								<use xlink:href="#XMLID_66_"  style="overflow:visible;fill:#FFFFFF;"/>
								<clipPath id="XMLID_88_">
									<use xlink:href="#XMLID_66_"  style="overflow:visible;"/>
								</clipPath>
								<g class="st39">
									<polyline class="st7" points="603.4,597.9 603.4,605.9 647.8,569.8 647.8,567.1 641.3,567.1 									"/>
									<polyline class="st7" points="647.8,586.6 647.8,578.6 612.3,607.5 622.1,607.5 									"/>
								</g>
								
									<use xlink:href="#XMLID_66_"  style="overflow:visible;fill:none;stroke:#263239;stroke-linecap:round;stroke-linejoin:round;stroke-miterlimit:10;"/>
							</g>
							<rect x="603.4" y="555.5" class="st25" width="44.4" height="17.5"/>
						</g>
						<g>
							<g>
								<defs>
									<rect id="XMLID_65_" x="666.8" y="567.1" width="44.4" height="40.3"/>
								</defs>
								<use xlink:href="#XMLID_65_"  style="overflow:visible;fill:#FFFFFF;"/>
								<clipPath id="XMLID_89_">
									<use xlink:href="#XMLID_65_"  style="overflow:visible;"/>
								</clipPath>
								<g class="st40">
									<polyline class="st7" points="711.2,569.8 711.2,567.1 704.7,567.1 666.8,597.9 666.8,605.9 									"/>
									<polyline class="st7" points="675.7,607.5 685.5,607.5 711.2,586.6 711.2,578.6 									"/>
								</g>
								
									<use xlink:href="#XMLID_65_"  style="overflow:visible;fill:none;stroke:#263239;stroke-linecap:round;stroke-linejoin:round;stroke-miterlimit:10;"/>
							</g>
							<rect x="666.8" y="555.5" class="st25" width="44.4" height="17.5"/>
						</g>
						<g>
							<g>
								<defs>
									<rect id="XMLID_64_" x="603.4" y="644.5" width="44.4" height="40.3"/>
								</defs>
								<use xlink:href="#XMLID_64_"  style="overflow:visible;fill:#FFFFFF;"/>
								<clipPath id="XMLID_90_">
									<use xlink:href="#XMLID_64_"  style="overflow:visible;"/>
								</clipPath>
								<g class="st41">
									<polyline class="st7" points="603.4,675.3 603.4,683.3 647.8,647.2 647.8,644.5 641.3,644.5 									"/>
									<polyline class="st7" points="647.8,664 647.8,656 612.3,684.8 622.1,684.8 									"/>
								</g>
								
									<use xlink:href="#XMLID_64_"  style="overflow:visible;fill:none;stroke:#263239;stroke-linecap:round;stroke-linejoin:round;stroke-miterlimit:10;"/>
							</g>
							<rect x="603.4" y="632.9" class="st25" width="44.4" height="17.5"/>
						</g>
						<g>
							<g>
								<defs>
									<rect id="XMLID_63_" x="666.8" y="644.5" width="44.4" height="40.3"/>
								</defs>
								<use xlink:href="#XMLID_63_"  style="overflow:visible;fill:#FFFFFF;"/>
								<clipPath id="XMLID_91_">
									<use xlink:href="#XMLID_63_"  style="overflow:visible;"/>
								</clipPath>
								<g class="st42">
									<polyline class="st7" points="666.8,675.3 666.8,683.3 711.2,647.2 711.2,644.5 704.7,644.5 									"/>
									<polyline class="st7" points="675.7,684.8 685.5,684.8 711.2,664 711.2,656 									"/>
								</g>
								
									<use xlink:href="#XMLID_63_"  style="overflow:visible;fill:none;stroke:#263239;stroke-linecap:round;stroke-linejoin:round;stroke-miterlimit:10;"/>
							</g>
							<rect x="666.8" y="632.9" class="st25" width="44.4" height="17.5"/>
						</g>
						<g>
							<g>
								<defs>
									<rect id="XMLID_62_" x="603.4" y="721.9" width="44.4" height="40.3"/>
								</defs>
								<use xlink:href="#XMLID_62_"  style="overflow:visible;fill:#FFFFFF;"/>
								<clipPath id="XMLID_92_">
									<use xlink:href="#XMLID_62_"  style="overflow:visible;"/>
								</clipPath>
								<g class="st43">
									<polygon class="st7" points="641.3,721.9 603.4,752.7 603.4,760.7 647.8,724.6 647.8,721.9 									"/>
									<polygon class="st7" points="622.1,762.2 647.8,741.4 647.8,733.4 612.3,762.2 									"/>
								</g>
								
									<use xlink:href="#XMLID_62_"  style="overflow:visible;fill:none;stroke:#263239;stroke-linecap:round;stroke-linejoin:round;stroke-miterlimit:10;"/>
							</g>
							<rect x="603.4" y="710.3" class="st25" width="44.4" height="17.5"/>
						</g>
						<g>
							<g>
								<defs>
									<rect id="XMLID_61_" x="666.8" y="721.9" width="44.4" height="40.3"/>
								</defs>
								<use xlink:href="#XMLID_61_"  style="overflow:visible;fill:#FFFFFF;"/>
								<clipPath id="XMLID_93_">
									<use xlink:href="#XMLID_61_"  style="overflow:visible;"/>
								</clipPath>
								<g class="st44">
									<polyline class="st7" points="666.8,752.7 666.8,760.7 711.2,724.6 711.2,721.9 704.7,721.9 									"/>
									<polyline class="st7" points="675.7,762.2 685.5,762.2 711.2,741.4 711.2,733.4 									"/>
								</g>
								
									<use xlink:href="#XMLID_61_"  style="overflow:visible;fill:none;stroke:#263239;stroke-linecap:round;stroke-linejoin:round;stroke-miterlimit:10;"/>
							</g>
							<rect x="666.8" y="710.3" class="st25" width="44.4" height="17.5"/>
						</g>
						<g>
							<g>
								<defs>
									<rect id="XMLID_60_" x="603.4" y="799.3" width="44.4" height="40.3"/>
								</defs>
								<use xlink:href="#XMLID_60_"  style="overflow:visible;fill:#FFFFFF;"/>
								<clipPath id="XMLID_94_">
									<use xlink:href="#XMLID_60_"  style="overflow:visible;"/>
								</clipPath>
								<g class="st45">
									<polygon class="st7" points="641.3,799.3 603.4,830.1 603.4,838.1 647.8,802 647.8,799.3 									"/>
									<polygon class="st7" points="622.1,839.6 647.8,818.8 647.8,810.8 612.3,839.6 									"/>
								</g>
								
									<use xlink:href="#XMLID_60_"  style="overflow:visible;fill:none;stroke:#263239;stroke-linecap:round;stroke-linejoin:round;stroke-miterlimit:10;"/>
							</g>
							<rect x="603.4" y="787.7" class="st25" width="44.4" height="17.5"/>
						</g>
						<g>
							<g>
								<defs>
									<rect id="XMLID_59_" x="666.8" y="799.3" width="44.4" height="40.3"/>
								</defs>
								<use xlink:href="#XMLID_59_"  style="overflow:visible;fill:#FFFFFF;"/>
								<clipPath id="XMLID_95_">
									<use xlink:href="#XMLID_59_"  style="overflow:visible;"/>
								</clipPath>
								<g class="st46">
									<polygon class="st7" points="704.7,799.3 666.8,830.1 666.8,838.1 711.2,802 711.2,799.3 									"/>
									<polygon class="st7" points="685.5,839.6 711.2,818.8 711.2,810.8 675.7,839.6 									"/>
								</g>
								
									<use xlink:href="#XMLID_59_"  style="overflow:visible;fill:none;stroke:#263239;stroke-linecap:round;stroke-linejoin:round;stroke-miterlimit:10;"/>
							</g>
							<rect x="666.8" y="787.7" class="st25" width="44.4" height="17.5"/>
						</g>
						<g>
							<g>
								<defs>
									<rect id="XMLID_58_" x="603.4" y="876.7" width="44.4" height="40.3"/>
								</defs>
								<use xlink:href="#XMLID_58_"  style="overflow:visible;fill:#FFFFFF;"/>
								<clipPath id="XMLID_96_">
									<use xlink:href="#XMLID_58_"  style="overflow:visible;"/>
								</clipPath>
								<g class="st47">
									<polygon class="st7" points="641.3,876.7 603.4,907.5 603.4,915.5 647.8,879.4 647.8,876.7 									"/>
									<polygon class="st7" points="622.1,917 647.8,896.2 647.8,888.2 612.3,917 									"/>
								</g>
								
									<use xlink:href="#XMLID_58_"  style="overflow:visible;fill:none;stroke:#263239;stroke-linecap:round;stroke-linejoin:round;stroke-miterlimit:10;"/>
							</g>
							<rect x="603.4" y="865.1" class="st25" width="44.4" height="17.5"/>
						</g>
						<g>
							<g>
								<defs>
									<rect id="XMLID_57_" x="666.8" y="876.7" width="44.4" height="40.3"/>
								</defs>
								<use xlink:href="#XMLID_57_"  style="overflow:visible;fill:#FFFFFF;"/>
								<clipPath id="XMLID_97_">
									<use xlink:href="#XMLID_57_"  style="overflow:visible;"/>
								</clipPath>
								<g class="st48">
									<polygon class="st7" points="704.7,876.7 666.8,907.5 666.8,915.5 711.2,879.4 711.2,876.7 									"/>
									<polygon class="st7" points="685.5,917 711.2,896.2 711.2,888.2 675.7,917 									"/>
								</g>
								
									<use xlink:href="#XMLID_57_"  style="overflow:visible;fill:none;stroke:#263239;stroke-linecap:round;stroke-linejoin:round;stroke-miterlimit:10;"/>
							</g>
							<rect x="666.8" y="865.1" class="st25" width="44.4" height="17.5"/>
						</g>
					</g>
					<g>
						<g>
							<g>
								<defs>
									<rect id="XMLID_56_" x="744.7" y="489.7" width="44.4" height="40.3"/>
								</defs>
								<use xlink:href="#XMLID_56_"  style="overflow:visible;fill:#FFFFFF;"/>
								<clipPath id="XMLID_98_">
									<use xlink:href="#XMLID_56_"  style="overflow:visible;"/>
								</clipPath>
								<g class="st49">
									<polyline class="st7" points="744.7,520.5 744.7,528.5 789.1,492.4 789.1,489.7 782.6,489.7 									"/>
									<polyline class="st7" points="789.1,509.2 789.1,501.2 753.6,530.1 763.5,530.1 									"/>
								</g>
								
									<use xlink:href="#XMLID_56_"  style="overflow:visible;fill:none;stroke:#263239;stroke-linecap:round;stroke-linejoin:round;stroke-miterlimit:10;"/>
							</g>
							<rect x="744.7" y="478.1" class="st25" width="44.4" height="17.5"/>
						</g>
						<g>
							<g>
								<defs>
									<rect id="XMLID_55_" x="808.2" y="489.7" width="44.4" height="40.3"/>
								</defs>
								<use xlink:href="#XMLID_55_"  style="overflow:visible;fill:#FFFFFF;"/>
								<clipPath id="XMLID_99_">
									<use xlink:href="#XMLID_55_"  style="overflow:visible;"/>
								</clipPath>
								<g class="st50">
									<polyline class="st7" points="852.6,492.4 852.6,489.7 846.1,489.7 808.2,520.5 808.2,528.5 									"/>
									<polyline class="st7" points="852.6,509.2 852.6,501.2 817.1,530.1 826.9,530.1 									"/>
								</g>
								
									<use xlink:href="#XMLID_55_"  style="overflow:visible;fill:none;stroke:#263239;stroke-linecap:round;stroke-linejoin:round;stroke-miterlimit:10;"/>
							</g>
							<rect x="808.2" y="478.1" class="st25" width="44.4" height="17.5"/>
						</g>
						<g>
							<g>
								<defs>
									<rect id="XMLID_54_" x="871.7" y="489.7" width="44.4" height="40.3"/>
								</defs>
								<use xlink:href="#XMLID_54_"  style="overflow:visible;fill:#FFFFFF;"/>
								<clipPath id="XMLID_100_">
									<use xlink:href="#XMLID_54_"  style="overflow:visible;"/>
								</clipPath>
								<g class="st51">
									<polyline class="st7" points="871.7,520.5 871.7,528.5 916.1,492.4 916.1,489.7 909.6,489.7 									"/>
									<polyline class="st7" points="880.6,530.1 890.4,530.1 916.1,509.2 916.1,501.2 									"/>
								</g>
								
									<use xlink:href="#XMLID_54_"  style="overflow:visible;fill:none;stroke:#263239;stroke-linecap:round;stroke-linejoin:round;stroke-miterlimit:10;"/>
							</g>
							<rect x="871.7" y="478.1" class="st25" width="44.4" height="17.5"/>
						</g>
						<g>
							<g>
								<defs>
									<rect id="XMLID_53_" x="744.7" y="567.1" width="44.4" height="40.3"/>
								</defs>
								<use xlink:href="#XMLID_53_"  style="overflow:visible;fill:#FFFFFF;"/>
								<clipPath id="XMLID_101_">
									<use xlink:href="#XMLID_53_"  style="overflow:visible;"/>
								</clipPath>
								<g class="st52">
									<polyline class="st7" points="744.7,597.9 744.7,605.9 789.1,569.8 789.1,567.1 782.6,567.1 									"/>
									<polyline class="st7" points="753.6,607.5 763.5,607.5 789.1,586.6 789.1,578.6 									"/>
								</g>
								
									<use xlink:href="#XMLID_53_"  style="overflow:visible;fill:none;stroke:#263239;stroke-linecap:round;stroke-linejoin:round;stroke-miterlimit:10;"/>
							</g>
							<rect x="744.7" y="555.5" class="st25" width="44.4" height="17.5"/>
						</g>
						<g>
							<g>
								<defs>
									<rect id="XMLID_52_" x="808.2" y="567.1" width="44.4" height="40.3"/>
								</defs>
								<use xlink:href="#XMLID_52_"  style="overflow:visible;fill:#FFFFFF;"/>
								<clipPath id="XMLID_102_">
									<use xlink:href="#XMLID_52_"  style="overflow:visible;"/>
								</clipPath>
								<g class="st53">
									<polyline class="st7" points="808.2,597.9 808.2,605.9 852.6,569.8 852.6,567.1 846.1,567.1 									"/>
									<polyline class="st7" points="817.1,607.5 826.9,607.5 852.6,586.6 852.6,578.6 									"/>
								</g>
								
									<use xlink:href="#XMLID_52_"  style="overflow:visible;fill:none;stroke:#263239;stroke-linecap:round;stroke-linejoin:round;stroke-miterlimit:10;"/>
							</g>
							<rect x="808.2" y="555.5" class="st25" width="44.4" height="17.5"/>
						</g>
						<g>
							<g>
								<defs>
									<rect id="XMLID_51_" x="871.7" y="567.1" width="44.4" height="40.3"/>
								</defs>
								<use xlink:href="#XMLID_51_"  style="overflow:visible;fill:#FFFFFF;"/>
								<clipPath id="XMLID_103_">
									<use xlink:href="#XMLID_51_"  style="overflow:visible;"/>
								</clipPath>
								<g class="st54">
									<polyline class="st7" points="871.7,597.9 871.7,605.9 916.1,569.8 916.1,567.1 909.6,567.1 									"/>
									<polyline class="st7" points="916.1,586.6 916.1,578.6 880.6,607.5 890.4,607.5 									"/>
								</g>
								
									<use xlink:href="#XMLID_51_"  style="overflow:visible;fill:none;stroke:#263239;stroke-linecap:round;stroke-linejoin:round;stroke-miterlimit:10;"/>
							</g>
							<rect x="871.7" y="555.5" class="st25" width="44.4" height="17.5"/>
						</g>
						<g>
							<g>
								<defs>
									<rect id="XMLID_50_" x="744.7" y="644.5" width="44.4" height="40.3"/>
								</defs>
								<use xlink:href="#XMLID_50_"  style="overflow:visible;fill:#FFFFFF;"/>
								<clipPath id="XMLID_104_">
									<use xlink:href="#XMLID_50_"  style="overflow:visible;"/>
								</clipPath>
								<g class="st55">
									<polyline class="st7" points="744.7,675.3 744.7,683.3 789.1,647.2 789.1,644.5 782.6,644.5 									"/>
									<polyline class="st7" points="789.1,664 789.1,656 753.6,684.8 763.5,684.8 									"/>
								</g>
								
									<use xlink:href="#XMLID_50_"  style="overflow:visible;fill:none;stroke:#263239;stroke-linecap:round;stroke-linejoin:round;stroke-miterlimit:10;"/>
							</g>
							<rect x="744.7" y="632.9" class="st25" width="44.4" height="17.5"/>
						</g>
						<g>
							<g>
								<defs>
									<rect id="XMLID_49_" x="808.2" y="644.5" width="44.4" height="40.3"/>
								</defs>
								<use xlink:href="#XMLID_49_"  style="overflow:visible;fill:#FFFFFF;"/>
								<clipPath id="XMLID_105_">
									<use xlink:href="#XMLID_49_"  style="overflow:visible;"/>
								</clipPath>
								<g class="st56">
									<polyline class="st7" points="808.2,675.3 808.2,683.3 852.6,647.2 852.6,644.5 846.1,644.5 									"/>
									<polyline class="st7" points="852.6,664 852.6,656 817.1,684.8 826.9,684.8 									"/>
								</g>
								
									<use xlink:href="#XMLID_49_"  style="overflow:visible;fill:none;stroke:#263239;stroke-linecap:round;stroke-linejoin:round;stroke-miterlimit:10;"/>
							</g>
							<rect x="808.2" y="632.9" class="st25" width="44.4" height="17.5"/>
						</g>
						<g>
							<g>
								<defs>
									<rect id="XMLID_48_" x="871.7" y="644.5" width="44.4" height="40.3"/>
								</defs>
								<use xlink:href="#XMLID_48_"  style="overflow:visible;fill:#FFFFFF;"/>
								<clipPath id="XMLID_106_">
									<use xlink:href="#XMLID_48_"  style="overflow:visible;"/>
								</clipPath>
								<g class="st57">
									<polyline class="st7" points="871.7,675.3 871.7,683.3 916.1,647.2 916.1,644.5 909.6,644.5 									"/>
									<polyline class="st7" points="880.6,684.8 890.4,684.8 916.1,664 916.1,656 									"/>
								</g>
								
									<use xlink:href="#XMLID_48_"  style="overflow:visible;fill:none;stroke:#263239;stroke-linecap:round;stroke-linejoin:round;stroke-miterlimit:10;"/>
							</g>
							<rect x="871.7" y="632.9" class="st25" width="44.4" height="17.5"/>
						</g>
						<g>
							<g>
								<defs>
									<rect id="XMLID_47_" x="744.7" y="721.9" width="44.4" height="40.3"/>
								</defs>
								<use xlink:href="#XMLID_47_"  style="overflow:visible;fill:#FFFFFF;"/>
								<clipPath id="XMLID_107_">
									<use xlink:href="#XMLID_47_"  style="overflow:visible;"/>
								</clipPath>
								<g class="st58">
									<polygon class="st7" points="782.6,721.9 744.7,752.7 744.7,760.7 789.1,724.6 789.1,721.9 									"/>
									<polygon class="st7" points="763.5,762.2 789.1,741.4 789.1,733.4 753.6,762.2 									"/>
								</g>
								
									<use xlink:href="#XMLID_47_"  style="overflow:visible;fill:none;stroke:#263239;stroke-linecap:round;stroke-linejoin:round;stroke-miterlimit:10;"/>
							</g>
							<rect x="744.7" y="710.3" class="st25" width="44.4" height="17.5"/>
						</g>
						<g>
							<g>
								<defs>
									<rect id="XMLID_46_" x="808.2" y="721.9" width="44.4" height="40.3"/>
								</defs>
								<use xlink:href="#XMLID_46_"  style="overflow:visible;fill:#FFFFFF;"/>
								<clipPath id="XMLID_108_">
									<use xlink:href="#XMLID_46_"  style="overflow:visible;"/>
								</clipPath>
								<g class="st59">
									<polyline class="st7" points="808.2,752.7 808.2,760.7 852.6,724.6 852.6,721.9 846.1,721.9 									"/>
									<polyline class="st7" points="852.6,741.4 852.6,733.4 817.1,762.2 826.9,762.2 									"/>
								</g>
								
									<use xlink:href="#XMLID_46_"  style="overflow:visible;fill:none;stroke:#263239;stroke-linecap:round;stroke-linejoin:round;stroke-miterlimit:10;"/>
							</g>
							<rect x="808.2" y="710.3" class="st25" width="44.4" height="17.5"/>
						</g>
						<g>
							<g>
								<defs>
									<rect id="XMLID_45_" x="871.7" y="721.9" width="44.4" height="40.3"/>
								</defs>
								<use xlink:href="#XMLID_45_"  style="overflow:visible;fill:#FFFFFF;"/>
								<clipPath id="XMLID_109_">
									<use xlink:href="#XMLID_45_"  style="overflow:visible;"/>
								</clipPath>
								<g class="st60">
									<polyline class="st7" points="871.7,752.7 871.7,760.7 916.1,724.6 916.1,721.9 909.6,721.9 									"/>
									<polyline class="st7" points="880.6,762.2 890.4,762.2 916.1,741.4 916.1,733.4 									"/>
								</g>
								
									<use xlink:href="#XMLID_45_"  style="overflow:visible;fill:none;stroke:#263239;stroke-linecap:round;stroke-linejoin:round;stroke-miterlimit:10;"/>
							</g>
							<rect x="871.7" y="710.3" class="st25" width="44.4" height="17.5"/>
						</g>
						<g>
							<g>
								<defs>
									<rect id="XMLID_44_" x="744.7" y="799.3" width="44.4" height="40.3"/>
								</defs>
								<use xlink:href="#XMLID_44_"  style="overflow:visible;fill:#FFFFFF;"/>
								<clipPath id="XMLID_110_">
									<use xlink:href="#XMLID_44_"  style="overflow:visible;"/>
								</clipPath>
								<g class="st61">
									<polygon class="st7" points="782.6,799.3 744.7,830.1 744.7,838.1 789.1,802 789.1,799.3 									"/>
									<polygon class="st7" points="763.5,839.6 789.1,818.8 789.1,810.8 753.6,839.6 									"/>
								</g>
								
									<use xlink:href="#XMLID_44_"  style="overflow:visible;fill:none;stroke:#263239;stroke-linecap:round;stroke-linejoin:round;stroke-miterlimit:10;"/>
							</g>
							<rect x="744.7" y="787.7" class="st25" width="44.4" height="17.5"/>
						</g>
						<g>
							<g>
								<defs>
									<rect id="XMLID_43_" x="808.2" y="799.3" width="44.4" height="40.3"/>
								</defs>
								<use xlink:href="#XMLID_43_"  style="overflow:visible;fill:#FFFFFF;"/>
								<clipPath id="XMLID_111_">
									<use xlink:href="#XMLID_43_"  style="overflow:visible;"/>
								</clipPath>
								<g class="st62">
									<polygon class="st7" points="846.1,799.3 808.2,830.1 808.2,838.1 852.6,802 852.6,799.3 									"/>
									<polygon class="st7" points="826.9,839.6 852.6,818.8 852.6,810.8 817.1,839.6 									"/>
								</g>
								
									<use xlink:href="#XMLID_43_"  style="overflow:visible;fill:none;stroke:#263239;stroke-linecap:round;stroke-linejoin:round;stroke-miterlimit:10;"/>
							</g>
							<rect x="808.2" y="787.7" class="st25" width="44.4" height="17.5"/>
						</g>
						<g>
							<g>
								<defs>
									<rect id="XMLID_42_" x="871.7" y="799.3" width="44.4" height="40.3"/>
								</defs>
								<use xlink:href="#XMLID_42_"  style="overflow:visible;fill:#FFFFFF;"/>
								<clipPath id="XMLID_112_">
									<use xlink:href="#XMLID_42_"  style="overflow:visible;"/>
								</clipPath>
								<g class="st63">
									<polyline class="st7" points="916.1,802 916.1,799.3 909.6,799.3 871.7,830.1 871.7,838.1 									"/>
									<polyline class="st7" points="880.6,839.6 890.4,839.6 916.1,818.8 916.1,810.8 									"/>
								</g>
								
									<use xlink:href="#XMLID_42_"  style="overflow:visible;fill:none;stroke:#263239;stroke-linecap:round;stroke-linejoin:round;stroke-miterlimit:10;"/>
							</g>
							<rect x="871.7" y="787.7" class="st25" width="44.4" height="17.5"/>
						</g>
						<g>
							<g>
								<defs>
									<rect id="XMLID_6_" x="744.7" y="876.7" width="44.4" height="40.3"/>
								</defs>
								<use xlink:href="#XMLID_6_"  style="overflow:visible;fill:#FFFFFF;"/>
								<clipPath id="XMLID_113_">
									<use xlink:href="#XMLID_6_"  style="overflow:visible;"/>
								</clipPath>
								<g class="st64">
									<polygon class="st7" points="782.6,876.7 744.7,907.5 744.7,915.5 789.1,879.4 789.1,876.7 									"/>
									<polygon class="st7" points="763.5,917 789.1,896.2 789.1,888.2 753.6,917 									"/>
								</g>
								
									<use xlink:href="#XMLID_6_"  style="overflow:visible;fill:none;stroke:#263239;stroke-linecap:round;stroke-linejoin:round;stroke-miterlimit:10;"/>
							</g>
							<rect x="744.7" y="865.1" class="st25" width="44.4" height="17.5"/>
						</g>
						<g>
							<g>
								<defs>
									<rect id="XMLID_3_" x="808.2" y="876.7" width="44.4" height="40.3"/>
								</defs>
								<use xlink:href="#XMLID_3_"  style="overflow:visible;fill:#FFFFFF;"/>
								<clipPath id="XMLID_114_">
									<use xlink:href="#XMLID_3_"  style="overflow:visible;"/>
								</clipPath>
								<g class="st65">
									<polygon class="st7" points="846.1,876.7 808.2,907.5 808.2,915.5 852.6,879.4 852.6,876.7 									"/>
									<polygon class="st7" points="826.9,917 852.6,896.2 852.6,888.2 817.1,917 									"/>
								</g>
								
									<use xlink:href="#XMLID_3_"  style="overflow:visible;fill:none;stroke:#263239;stroke-linecap:round;stroke-linejoin:round;stroke-miterlimit:10;"/>
							</g>
							<rect x="808.2" y="865.1" class="st25" width="44.4" height="17.5"/>
						</g>
						<g>
							<g>
								<defs>
									<rect id="XMLID_2_" x="871.7" y="876.7" width="44.4" height="40.3"/>
								</defs>
								<use xlink:href="#XMLID_2_"  style="overflow:visible;fill:#FFFFFF;"/>
								<clipPath id="XMLID_115_">
									<use xlink:href="#XMLID_2_"  style="overflow:visible;"/>
								</clipPath>
								<g class="st66">
									<polygon class="st7" points="909.6,876.7 871.7,907.5 871.7,915.5 916.1,879.4 916.1,876.7 									"/>
									<polygon class="st7" points="890.4,917 916.1,896.2 916.1,888.2 880.6,917 									"/>
								</g>
								
									<use xlink:href="#XMLID_2_"  style="overflow:visible;fill:none;stroke:#263239;stroke-linecap:round;stroke-linejoin:round;stroke-miterlimit:10;"/>
							</g>
							<rect x="871.7" y="865.1" class="st25" width="44.4" height="17.5"/>
						</g>
					</g>
					<rect x="742.6" y="940.4" class="st27" width="172.9" height="21.9"/>
					<rect x="742.6" y="934.1" class="st25" width="172.9" height="21.9"/>
					<rect x="579.9" y="393.3" class="st27" width="94.2" height="58.1"/>
					<rect x="641.6" y="393.3" class="st25" width="32.6" height="58.1"/>
					<rect x="874.2" y="407.5" class="st27" width="38.7" height="43.9"/>
					<rect x="571.6" y="423.6" class="st27" width="366.7" height="27.8"/>
					<rect x="719" y="423.6" class="st25" width="219.3" height="27.8"/>
					<g>
						<line class="st26" x1="728.5" y1="423.6" x2="728.5" y2="435.3"/>
						<line class="st26" x1="734.5" y1="423.6" x2="734.5" y2="435.3"/>
						<line class="st26" x1="734.5" y1="438.4" x2="734.5" y2="447.3"/>
						<line class="st26" x1="740.5" y1="423.6" x2="740.5" y2="435.3"/>
						<line class="st26" x1="740.5" y1="438.9" x2="740.5" y2="447.2"/>
						<line class="st26" x1="746.1" y1="438.9" x2="746.1" y2="444.1"/>
						<line class="st26" x1="746.5" y1="423.6" x2="746.5" y2="435.3"/>
						<line class="st26" x1="753.3" y1="432.3" x2="753.3" y2="435.3"/>
						<line class="st26" x1="753.7" y1="423.6" x2="753.7" y2="430.2"/>
						<line class="st26" x1="728.5" y1="437.6" x2="728.5" y2="444.5"/>
					</g>
				</g>
				<g>
					<g>
						<g>
							<path class="st7" d="M488.7,998.1c0,0,19.3-6.4,13.8-1.4c-1,0.9-1.7,1.5-2.3,1.9h-57l-1.7-3.5l-0.4-0.8l-0.7-1.4l6.8-4.7
								l-7.2,3.9l-1.9-4.3l1.5-14.5l-2.3,13.2l-1.4-3.5l-6.4-12.2l10.4,23l-14.8-5.9l15.5,7.2l1.8,3.6h-61.6c-3.4-0.4-8.1-1.3-8.9-4
								c-1.4-4.2,13.1-4.2,13.1-4.2s-15.1-6.4-9.6-7.8c5.5-1.4,15.1,4.2,15.1,4.2s-5.5-12.7,1.4-9.9c5.1,2.1,7.2,6.2,7.9,8.1
								c-0.7-2.5-2.1-8.4,1.7-6.7c2.6,1.1,4.5,3.4,5.8,5.4c-1.8-3.8-3.5-9.4,4.5-7.5c0,0-1.7-17.3,16.5-20.5
								c18.2-3.2,17.2,21.9,23.4,26.9c6.2,4.9,13.8-0.7,16.5,4.9s2.1,8.5,2.1,8.5s10.3-27.6,11.7-19.8c1.4,7.8-3.4,14.8-3.4,14.8
								s16.5-21.9,13.1-13.4c-3.4,8.5-7.6,14.8-7.6,14.8s22.7-5.7,19.3-2.1C499.7,993.8,488.7,998.1,488.7,998.1z"/>
							<g>
								<g>
									<path class="st7" d="M461.3,994.1c0.2-1.3,0.4-3.1,0.8-5.3c0.1-0.6,0.2-1.3,0.4-2c0.3,0,2.5,0.3,3.6,0
										c0.9-0.3,2-0.9,2.4-1.9c0.4-0.9-0.1-2.1-1.1-2.3c-1.4-0.4-3.4,1.3-4.1,2.4c0,0.1-0.5,1-0.7,1.4c0.1-0.4,0.2-0.8,0.3-1.2
										c0.1-0.6,0.3-1.3,0.5-1.9c0.1-0.3,0.2-0.6,0.3-1c0.1-0.3,0.2-0.6,0.3-1c0.2-0.5,0.4-0.9,0.6-1.4c0.6,0.2,2.4,0.7,3.4,0.5
										c1-0.1,2.2-0.6,2.7-1.5c0.5-0.9,0.2-2-0.7-2.5c-1.3-0.6-3.6,0.8-4.4,1.8c0,0-0.2,0.3-0.4,0.5c0.2-0.5,0.4-0.9,0.6-1.4
										c0.6-1.3,1.3-2.6,2-3.9c0.1-0.3,0.3-0.5,0.4-0.8c0.5,0.2,2.5,0.7,3.4,0.6c1-0.1,2.2-0.6,2.7-1.5c0.5-0.9,0.2-2-0.7-2.5
										c-1.3-0.6-3.6,0.8-4.4,1.8c0,0-0.2,0.3-0.4,0.6c0.4-0.7,0.7-1.4,1-2.2c0.6-1.3,1-2.5,1.4-3.8c0.2,0.1,2.5,0.7,3.5,0.6
										c1-0.1,2.2-0.6,2.7-1.5c0.5-0.9,0.2-2-0.7-2.5c-1.3-0.6-3.6,0.8-4.4,1.8c-0.1,0.1-0.7,1.1-1,1.4c0,0,0,0,0,0
										c0.4-1.3,0.6-2.7,0.7-3.9c0.1-1.3,0.1-2.5,0.1-3.6c0-1.1-0.1-2.1-0.2-3c0-0.5-0.1-0.9-0.2-1.3c0,0,0,0,0,0
										c0,0,0.5-1.7,0.5-1.8c0.2-1.3-0.1-3.9-1.4-4.6c-0.9-0.5-2,0-2.4,1c-0.4,1,0,2.2,0.5,3c0.5,0.9,2.2,2.1,2.6,2.4
										c0,0.4,0.1,0.9,0.1,1.4c0.1,0.9,0.1,1.9,0.1,3c0,0.3,0,0.6,0,0.9c-0.1-0.5-0.2-1.2-0.3-1.3c-0.4-1.2-1.9-3.4-3.3-3.4
										c-1.1,0-1.8,0.9-1.7,1.9c0.1,1,1,1.9,1.8,2.4c0.9,0.5,3,0.8,3.4,0.9c0,0.7-0.1,1.4-0.2,2.1c-0.1,1.2-0.4,2.6-0.8,3.9
										c0,0.1-0.1,0.1-0.1,0.2c0-0.3-0.1-1.7-0.1-1.8c-0.3-1.3-1.5-3.6-2.9-3.8c-1-0.1-1.9,0.7-1.9,1.8c0,1,0.8,2,1.6,2.6
										c0.9,0.7,3.3,1.3,3.4,1.3c-0.4,1.2-0.9,2.4-1.5,3.7c-0.4,0.9-0.9,1.8-1.3,2.6c0-0.3-0.1-1.7-0.1-1.8
										c-0.3-1.3-1.5-3.6-2.9-3.8c-1-0.1-1.9,0.7-1.9,1.8c0,1,0.8,2,1.6,2.6c0.9,0.7,3.2,1.2,3.4,1.3c-0.2,0.4-0.4,0.8-0.6,1.2
										c-0.7,1.3-1.4,2.6-2.1,3.9c-0.2,0.5-0.4,0.9-0.6,1.4c0-0.5-0.1-1.5-0.1-1.5c-0.3-1.3-1.5-3.6-2.9-3.8
										c-1-0.1-1.9,0.7-1.9,1.8c0,1,0.8,2,1.6,2.6c0.8,0.6,2.7,1.1,3.2,1.2c-0.3,0.8-0.7,1.5-1,2.3c-0.1,0.3-0.3,0.7-0.3,1
										c-0.1,0.3-0.2,0.6-0.3,1c-0.2,0.7-0.4,1.3-0.5,1.9c-0.1,0.3-0.1,0.6-0.2,0.9c0-0.5,0.1-1.4,0.1-1.4
										c-0.1-1.3-0.9-3.8-2.3-4.2c-1-0.3-2,0.5-2.1,1.4c-0.2,1,0.5,2.1,1.2,2.8c0.7,0.8,2.9,1.7,3.1,1.8c-0.2,0.8-0.3,1.5-0.5,2.2
										c-0.5,2.2-0.7,4-0.9,5.3c-0.2,1.3-0.3,2-0.3,2l0,0c0,0,0,0,0,0c0,0.3,0.2,0.5,0.5,0.6c0.3,0,0.5-0.2,0.6-0.5
										C461.1,996.1,461.2,995.4,461.3,994.1z"/>
									<path class="st7" d="M471.8,959.5c0,0,2.6,0.1,3.6-0.4c0.9-0.4,1.9-1.1,2.2-2.1c0.2-1-0.3-2-1.4-2.2
										c-1.4-0.2-3.2,1.7-3.8,2.9C472.3,957.8,471.7,959.5,471.8,959.5z"/>
								</g>
								<g>
									<path class="st7" d="M459.9,994.1c-0.6-1.1-1.4-2.8-2.2-4.8c-0.2-0.6-0.5-1.2-0.8-1.8c0.3-0.1,2.3-1.1,3-1.9
										c0.6-0.7,1.2-1.9,1-2.9c-0.2-1-1.2-1.7-2.2-1.3c-1.4,0.5-2.1,3-2.1,4.3c0,0.1,0.1,1.1,0.2,1.6c-0.2-0.4-0.3-0.8-0.5-1.2
										c-0.2-0.6-0.4-1.2-0.7-1.8c-0.1-0.3-0.2-0.6-0.3-1c-0.1-0.3-0.2-0.6-0.3-1c-0.1-0.5-0.2-1-0.3-1.5c0.6-0.2,2.4-0.8,3.1-1.4
										c0.7-0.6,1.5-1.7,1.4-2.7c-0.1-1-0.9-1.8-2-1.6c-1.4,0.3-2.5,2.6-2.7,3.9c0,0,0,0.3,0,0.6c-0.1-0.5-0.2-1-0.2-1.5
										c-0.2-1.4-0.4-2.9-0.5-4.4c0-0.3-0.1-0.6-0.1-0.9c0.5-0.2,2.4-0.8,3.2-1.4c0.7-0.6,1.5-1.7,1.4-2.7c-0.1-1-0.9-1.8-2-1.6
										c-1.4,0.3-2.5,2.6-2.7,3.9c0,0,0,0.4,0,0.7c-0.1-0.8-0.2-1.6-0.3-2.4c-0.2-1.4-0.5-2.7-0.9-4c0.2-0.1,2.5-0.7,3.3-1.5
										c0.7-0.6,1.5-1.7,1.4-2.7c-0.1-1-0.9-1.8-2-1.6c-1.4,0.3-2.5,2.6-2.7,3.9c0,0.1,0,1.3,0,1.7c0,0,0,0,0,0
										c-0.4-1.3-1-2.5-1.6-3.7c-0.6-1.1-1.3-2.1-1.9-3c-0.6-0.9-1.3-1.7-1.8-2.4c-0.3-0.4-0.6-0.7-0.9-1c0,0,0,0,0,0
										c0,0-0.5-1.7-0.5-1.8c-0.5-1.2-2.2-3.2-3.7-3.1c-1,0.1-1.7,1.1-1.5,2.1c0.2,1,1.2,1.8,2.1,2.2c0.9,0.4,3,0.5,3.5,0.5
										c0.3,0.3,0.6,0.7,0.9,1.1c0.5,0.7,1.2,1.5,1.8,2.4c0.2,0.2,0.3,0.5,0.5,0.8c-0.4-0.4-0.9-0.9-0.9-0.9c-1-0.8-3.5-1.8-4.7-1
										c-0.9,0.6-1,1.8-0.3,2.5c0.6,0.8,1.9,1,2.9,1c1,0,2.9-0.9,3.3-1.1c0.4,0.6,0.7,1.2,1,1.8c0.6,1.1,1.1,2.3,1.5,3.7
										c0,0.1,0,0.2,0.1,0.2c-0.1-0.2-1-1.4-1.1-1.4c-0.9-0.9-3.2-2.2-4.5-1.5c-0.9,0.5-1.1,1.6-0.6,2.5c0.6,0.9,1.8,1.2,2.7,1.3
										c1.1,0.1,3.4-0.8,3.5-0.8c0.3,1.2,0.6,2.5,0.8,3.9c0.1,1,0.2,1.9,0.3,2.9c-0.2-0.3-1-1.3-1.1-1.4c-0.9-0.9-3.2-2.2-4.5-1.5
										c-0.9,0.5-1.1,1.6-0.6,2.5c0.6,0.9,1.8,1.2,2.7,1.3c1.1,0.1,3.3-0.7,3.5-0.8c0,0.4,0.1,0.9,0.1,1.3
										c0.1,1.5,0.3,2.9,0.4,4.4c0.1,0.5,0.1,1,0.2,1.5c-0.3-0.4-0.9-1.2-1-1.2c-0.9-0.9-3.2-2.2-4.5-1.5
										c-0.9,0.5-1.1,1.6-0.6,2.5c0.6,0.9,1.8,1.2,2.7,1.3c1,0.1,2.9-0.6,3.4-0.8c0.1,0.8,0.3,1.6,0.5,2.4c0.1,0.3,0.2,0.7,0.3,1
										c0.1,0.3,0.2,0.6,0.3,1c0.2,0.7,0.4,1.3,0.6,1.9c0.1,0.3,0.2,0.6,0.3,0.9c-0.3-0.5-0.7-1.2-0.7-1.3
										c-0.8-1.1-2.9-2.6-4.3-2.2c-1,0.3-1.4,1.5-1,2.4c0.4,0.9,1.6,1.5,2.5,1.7c1,0.2,3.3-0.2,3.6-0.2c0.3,0.7,0.5,1.4,0.8,2.1
										c0.8,2.1,1.6,3.8,2.1,4.9c0.6,1.2,0.9,1.8,0.9,1.8l0,0c0,0,0,0,0,0c0.1,0.2,0.4,0.3,0.7,0.2c0.2-0.1,0.3-0.4,0.2-0.7
										C460.8,995.9,460.4,995.2,459.9,994.1z"/>
									<path class="st7" d="M449.5,959.5c0,0,2.2-1.3,2.8-2.3c0.5-0.8,1-2,0.6-3c-0.3-1-1.4-1.5-2.3-1.1c-1.3,0.6-1.8,3.2-1.6,4.5
										C449,957.8,449.4,959.5,449.5,959.5z"/>
								</g>
							</g>
						</g>
						<g>
							<path class="st7" d="M722.5,997.9c0,0,24.6-8.1,17.6-1.8c-1.2,1.1-2.2,1.9-3,2.4h-72.7l-2.2-4.4l-0.5-1.1l-0.9-1.8l8.7-6
								l-9.2,5l-2.4-5.5l1.9-18.5l-3,16.9l-1.8-4.5l-8.1-15.6l13.2,29.3l-18.9-7.5l19.7,9.2l2.3,4.6h-78.6
								c-4.3-0.5-10.3-1.7-11.4-5.1c-1.8-5.4,16.7-5.4,16.7-5.4s-19.3-8.1-12.3-9.9c7-1.8,19.3,5.4,19.3,5.4s-7-16.2,1.8-12.6
								c6.5,2.7,9.2,7.9,10.1,10.3c-0.9-3.2-2.7-10.7,2.2-8.5c3.3,1.4,5.8,4.4,7.4,6.8c-2.3-4.8-4.4-12,5.8-9.5
								c0,0-2.1-22.1,21.1-26.1c23.2-4,22,28,29.9,34.3c7.9,6.3,17.6-0.9,21.1,6.3s2.6,10.8,2.6,10.8s13.2-35.2,14.9-25.2
								c1.8,9.9-4.4,18.9-4.4,18.9s21.1-28,16.7-17.1c-4.4,10.8-9.7,18.9-9.7,18.9s29-7.2,24.6-2.7
								C736.5,992.5,722.5,997.9,722.5,997.9z"/>
							<g>
								<g>
									<path class="st7" d="M687.6,992.9c0.2-1.6,0.5-3.9,1-6.7c0.1-0.8,0.3-1.6,0.5-2.5c0.4,0.1,3.3,0.4,4.6,0.1
										c1.2-0.4,2.6-1.1,3.1-2.4c0.5-1.2-0.1-2.6-1.4-3c-1.8-0.5-4.4,1.7-5.3,3.1c-0.1,0.1-0.6,1.2-0.9,1.8c0.1-0.5,0.2-1,0.3-1.6
										c0.2-0.8,0.4-1.6,0.6-2.4c0.1-0.4,0.2-0.8,0.4-1.2c0.1-0.4,0.3-0.8,0.4-1.2c0.2-0.6,0.5-1.2,0.7-1.8
										c0.8,0.2,3.1,0.8,4.3,0.7c1.2-0.2,2.8-0.7,3.4-1.9c0.6-1.1,0.3-2.6-1-3.1c-1.7-0.7-4.6,1-5.7,2.3c0,0-0.2,0.3-0.5,0.7
										c0.3-0.6,0.5-1.2,0.8-1.8c0.8-1.7,1.7-3.3,2.5-5c0.2-0.3,0.4-0.7,0.5-1c0.7,0.2,3.2,0.9,4.4,0.7c1.2-0.2,2.8-0.7,3.4-1.9
										c0.6-1.1,0.3-2.6-1-3.1c-1.7-0.7-4.6,1-5.7,2.3c0,0-0.3,0.4-0.6,0.8c0.5-0.9,0.9-1.8,1.3-2.8c0.7-1.6,1.3-3.3,1.8-4.9
										c0.2,0.1,3.1,0.9,4.5,0.7c1.2-0.2,2.8-0.7,3.4-1.9c0.6-1.1,0.3-2.6-1-3.1c-1.7-0.7-4.6,1-5.7,2.3c-0.1,0.1-1,1.3-1.2,1.8
										c0,0,0,0,0-0.1c0.5-1.7,0.7-3.4,0.9-5c0.2-1.6,0.2-3.2,0.1-4.6c0-1.4-0.1-2.7-0.2-3.8c-0.1-0.6-0.1-1.2-0.2-1.7
										c0,0,0,0,0,0c0,0,0.7-2.1,0.7-2.3c0.3-1.6-0.1-5-1.8-5.8c-1.2-0.6-2.6,0-3,1.2c-0.5,1.2,0,2.8,0.7,3.8
										c0.7,1.1,2.8,2.6,3.3,3c0.1,0.5,0.1,1.1,0.2,1.8c0.1,1.1,0.2,2.4,0.1,3.8c0,0.4,0,0.8,0,1.2c-0.1-0.7-0.3-1.6-0.3-1.7
										c-0.5-1.6-2.4-4.4-4.3-4.4c-1.3,0-2.3,1.2-2.1,2.5c0.1,1.3,1.3,2.4,2.3,3.1c1.1,0.7,3.8,1.1,4.4,1.1c0,0.9-0.1,1.8-0.2,2.7
										c-0.2,1.6-0.5,3.3-1,4.9c0,0.1-0.1,0.2-0.1,0.3c0-0.3-0.2-2.2-0.2-2.3c-0.3-1.6-1.9-4.6-3.8-4.8c-1.3-0.2-2.4,0.9-2.4,2.2
										c0,1.3,1,2.6,2,3.3c1.1,0.9,4.2,1.6,4.3,1.6c-0.5,1.6-1.1,3.1-1.9,4.7c-0.5,1.1-1.1,2.2-1.7,3.4c0-0.4-0.2-2.2-0.2-2.3
										c-0.3-1.6-1.9-4.6-3.8-4.8c-1.3-0.2-2.4,0.9-2.4,2.2c0,1.3,1,2.6,2,3.3c1.1,0.9,4,1.6,4.3,1.6c-0.3,0.5-0.5,1-0.8,1.5
										c-0.9,1.7-1.8,3.3-2.6,5c-0.3,0.6-0.6,1.2-0.8,1.7c0-0.7-0.1-1.9-0.2-2c-0.3-1.6-1.9-4.6-3.8-4.8c-1.3-0.2-2.4,0.9-2.4,2.2
										c0,1.3,1,2.6,2,3.3c1,0.8,3.4,1.4,4.1,1.6c-0.4,1-0.9,1.9-1.2,2.9c-0.1,0.4-0.3,0.8-0.4,1.3c-0.1,0.4-0.3,0.8-0.4,1.2
										c-0.2,0.8-0.4,1.6-0.6,2.4c-0.1,0.4-0.2,0.8-0.3,1.2c0.1-0.7,0.1-1.7,0.1-1.8c-0.1-1.7-1.2-4.8-3-5.3
										c-1.3-0.4-2.5,0.6-2.7,1.8c-0.2,1.3,0.6,2.7,1.5,3.6c0.9,1,3.6,2.1,4,2.2c-0.2,1-0.4,1.9-0.6,2.8c-0.6,2.8-0.9,5.1-1.2,6.7
										c-0.2,1.6-0.3,2.6-0.3,2.6l0,0c0,0,0,0,0,0c0,0.4,0.2,0.7,0.6,0.7c0.4,0,0.7-0.2,0.7-0.6
										C687.4,995.4,687.4,994.5,687.6,992.9z"/>
									<path class="st7" d="M700.9,948.7c0,0,3.3,0.1,4.6-0.5c1.1-0.5,2.5-1.4,2.8-2.7c0.3-1.2-0.4-2.6-1.7-2.8
										c-1.8-0.3-4.1,2.2-4.9,3.7C701.6,946.6,700.9,948.7,700.9,948.7z"/>
								</g>
								<g>
									<path class="st7" d="M685.7,992.8c-0.7-1.5-1.7-3.6-2.8-6.2c-0.3-0.7-0.6-1.5-1-2.4c0.3-0.2,3-1.4,3.8-2.5
										c0.8-1,1.5-2.4,1.3-3.7c-0.3-1.3-1.5-2.1-2.8-1.7c-1.8,0.6-2.7,3.8-2.7,5.5c0,0.1,0.2,1.4,0.3,2c-0.2-0.5-0.4-1-0.6-1.5
										c-0.3-0.7-0.6-1.5-0.8-2.3c-0.1-0.4-0.3-0.8-0.4-1.2c-0.1-0.4-0.2-0.8-0.3-1.2c-0.2-0.6-0.3-1.3-0.4-1.9
										c0.8-0.2,3-1,3.9-1.8c0.9-0.8,1.9-2.1,1.8-3.4c-0.1-1.3-1.2-2.3-2.5-2.1c-1.8,0.3-3.2,3.4-3.5,5c0,0.1,0,0.4,0,0.8
										c-0.1-0.6-0.2-1.3-0.3-1.9c-0.3-1.8-0.5-3.7-0.7-5.6c0-0.4-0.1-0.8-0.1-1.2c0.7-0.2,3.1-1,4.1-1.8c0.9-0.8,1.9-2.1,1.8-3.4
										c-0.1-1.3-1.2-2.3-2.5-2.1c-1.8,0.3-3.2,3.4-3.5,5c0,0.1,0,0.5,0,1c-0.1-1-0.3-2-0.4-3c-0.3-1.7-0.7-3.4-1.2-5.1
										c0.2-0.1,3.1-0.9,4.2-1.9c0.9-0.8,1.9-2.1,1.8-3.4c-0.1-1.3-1.2-2.3-2.5-2.1c-1.8,0.3-3.2,3.4-3.5,5c0,0.1-0.1,1.6,0,2.2
										c0,0,0,0,0-0.1c-0.5-1.7-1.3-3.2-2-4.7c-0.8-1.4-1.6-2.7-2.4-3.9c-0.8-1.2-1.6-2.2-2.3-3.1c-0.4-0.5-0.8-0.9-1.1-1.3
										c0,0,0,0,0,0c0,0-0.6-2.2-0.7-2.3c-0.7-1.5-2.8-4.1-4.7-3.9c-1.3,0.1-2.1,1.4-1.9,2.7c0.3,1.3,1.5,2.3,2.7,2.8
										c1.1,0.6,3.8,0.7,4.4,0.7c0.4,0.4,0.7,0.9,1.1,1.4c0.7,0.9,1.5,1.9,2.2,3.1c0.2,0.3,0.4,0.7,0.6,1
										c-0.5-0.5-1.1-1.1-1.2-1.2c-1.3-1-4.4-2.3-6-1.3c-1.1,0.7-1.2,2.3-0.4,3.3c0.8,1,2.4,1.3,3.7,1.3c1.3,0,3.7-1.2,4.3-1.5
										c0.4,0.7,0.9,1.5,1.3,2.3c0.7,1.4,1.4,3,1.9,4.7c0,0.1,0,0.2,0.1,0.3c-0.2-0.3-1.3-1.7-1.4-1.8c-1.2-1.2-4.1-2.8-5.8-1.9
										c-1.2,0.6-1.5,2.1-0.8,3.2c0.7,1.1,2.3,1.6,3.5,1.7c1.4,0.1,4.4-1,4.5-1c0.4,1.6,0.8,3.2,1,4.9c0.2,1.2,0.3,2.5,0.4,3.7
										c-0.3-0.4-1.3-1.7-1.4-1.8c-1.2-1.2-4.1-2.8-5.8-1.9c-1.2,0.6-1.5,2.1-0.8,3.2c0.7,1.1,2.3,1.6,3.5,1.7
										c1.4,0.1,4.2-0.9,4.5-1c0.1,0.6,0.1,1.1,0.2,1.7c0.2,1.9,0.3,3.7,0.5,5.6c0.1,0.6,0.2,1.3,0.3,1.9
										c-0.4-0.5-1.1-1.5-1.2-1.5c-1.2-1.2-4.1-2.8-5.8-1.9c-1.2,0.6-1.5,2.1-0.8,3.2c0.7,1.1,2.3,1.6,3.5,1.7
										c1.2,0.1,3.7-0.7,4.3-1c0.2,1,0.3,2.1,0.6,3.1c0.1,0.4,0.2,0.9,0.3,1.3c0.1,0.4,0.2,0.8,0.4,1.2c0.3,0.8,0.5,1.6,0.8,2.4
										c0.1,0.4,0.3,0.8,0.4,1.1c-0.3-0.6-0.9-1.5-0.9-1.6c-1-1.3-3.7-3.4-5.4-2.8c-1.3,0.4-1.8,1.9-1.2,3c0.5,1.2,2,1.9,3.2,2.2
										c1.3,0.3,4.2-0.2,4.6-0.3c0.3,0.9,0.7,1.8,1,2.6c1.1,2.6,2,4.8,2.7,6.3c0.7,1.5,1.1,2.3,1.1,2.3l0,0c0,0,0,0,0,0
										c0.2,0.3,0.6,0.4,0.9,0.3c0.3-0.2,0.4-0.6,0.3-0.9C686.9,995.1,686.5,994.3,685.7,992.8z"/>
									<path class="st7" d="M672.5,948.7c0,0,2.8-1.7,3.6-2.9c0.7-1,1.3-2.5,0.8-3.8c-0.4-1.2-1.8-1.9-3-1.4
										c-1.7,0.8-2.2,4.1-2,5.8C671.9,946.5,672.4,948.7,672.5,948.7z"/>
								</g>
							</g>
						</g>
						<g>
							<path class="st7" d="M504.1,998.2c0,0-15.2-5-10.9-1.1c0.8,0.7,1.3,1.1,1.8,1.5H540l1.4-2.7l0.3-0.7l0.5-1.1l-5.4-3.7l5.7,3
								l1.5-3.4l-1.2-11.3l1.8,10.3l1.1-2.8l5-9.5l-8.2,17.9l11.7-4.6l-12.2,5.6l-1.4,2.8h48.6c2.6-0.3,6.4-1.1,7.1-3.1
								c1.1-3.3-10.3-3.3-10.3-3.3s12-5,7.6-6.1c-4.3-1.1-12,3.3-12,3.3s4.3-9.9-1.1-7.7c-4,1.6-5.7,4.8-6.3,6.3
								c0.6-2,1.7-6.5-1.4-5.2c-2,0.9-3.6,2.7-4.6,4.2c1.5-2.9,2.7-7.3-3.6-5.8c0,0,1.3-13.5-13-16c-14.4-2.5-13.6,17.1-18.5,21
								c-4.9,3.9-10.9-0.6-13,3.9c-2.2,4.4-1.6,6.6-1.6,6.6s-8.1-21.5-9.2-15.4c-1.1,6.1,2.7,11.6,2.7,11.6s-13-17.1-10.3-10.5
								c2.7,6.6,6,11.6,6,11.6s-17.9-4.4-15.2-1.7C495.4,994.9,504.1,998.2,504.1,998.2z"/>
							<g>
								<g>
									<path class="st7" d="M578.9,995.1c-0.1-1-0.3-2.4-0.6-4.1c-0.1-0.5-0.2-1-0.3-1.5c-0.2,0-2,0.3-2.8,0
										c-0.7-0.2-1.6-0.7-1.9-1.4c-0.3-0.7,0.1-1.6,0.9-1.8c1.1-0.3,2.7,1,3.2,1.9c0,0.1,0.4,0.7,0.5,1.1c-0.1-0.3-0.1-0.6-0.2-1
										c-0.1-0.5-0.2-1-0.4-1.5c-0.1-0.2-0.1-0.5-0.2-0.8c-0.1-0.3-0.2-0.5-0.3-0.7c-0.1-0.4-0.3-0.7-0.4-1.1
										c-0.5,0.1-1.9,0.5-2.6,0.4c-0.8-0.1-1.7-0.4-2.1-1.1c-0.4-0.7-0.2-1.6,0.6-1.9c1.1-0.5,2.8,0.6,3.5,1.4
										c0,0,0.1,0.2,0.3,0.4c-0.2-0.4-0.3-0.7-0.5-1.1c-0.5-1-1-2-1.6-3.1c-0.1-0.2-0.2-0.4-0.3-0.6c-0.4,0.1-2,0.5-2.7,0.4
										c-0.8-0.1-1.7-0.4-2.1-1.1c-0.4-0.7-0.2-1.6,0.6-1.9c1.1-0.5,2.8,0.6,3.5,1.4c0,0,0.2,0.2,0.3,0.5
										c-0.3-0.6-0.6-1.1-0.8-1.7c-0.4-1-0.8-2-1.1-3c-0.1,0-1.9,0.6-2.8,0.5c-0.8-0.1-1.7-0.4-2.1-1.1c-0.4-0.7-0.2-1.6,0.6-1.9
										c1.1-0.5,2.8,0.6,3.5,1.4c0,0.1,0.6,0.8,0.8,1.1c0,0,0,0,0,0c-0.3-1-0.5-2.1-0.5-3.1c-0.1-1-0.1-1.9-0.1-2.8
										c0-0.9,0.1-1.7,0.1-2.4c0-0.4,0.1-0.7,0.1-1c0,0,0,0,0,0c0,0-0.4-1.3-0.4-1.4c-0.2-1,0.1-3,1.1-3.6c0.7-0.4,1.6,0,1.9,0.7
										c0.3,0.7,0,1.7-0.4,2.3c-0.4,0.7-1.7,1.6-2.1,1.8c0,0.3-0.1,0.7-0.1,1.1c0,0.7-0.1,1.5-0.1,2.3c0,0.2,0,0.5,0,0.7
										c0.1-0.4,0.2-1,0.2-1c0.3-1,1.5-2.7,2.6-2.7c0.8,0,1.4,0.7,1.3,1.5c-0.1,0.8-0.8,1.5-1.5,1.9c-0.7,0.4-2.3,0.6-2.7,0.7
										c0,0.5,0.1,1.1,0.1,1.6c0.1,1,0.3,2,0.6,3c0,0.1,0,0.1,0.1,0.2c0-0.2,0.1-1.3,0.1-1.4c0.2-1,1.2-2.8,2.3-2.9
										c0.8-0.1,1.5,0.6,1.5,1.4c0,0.8-0.6,1.6-1.2,2c-0.7,0.5-2.6,1-2.7,1c0.3,1,0.7,1.9,1.1,2.9c0.3,0.7,0.7,1.4,1.1,2.1
										c0-0.3,0.1-1.3,0.1-1.4c0.2-1,1.2-2.8,2.3-2.9c0.8-0.1,1.5,0.6,1.5,1.4c0,0.8-0.6,1.6-1.2,2c-0.7,0.5-2.5,1-2.7,1
										c0.2,0.3,0.3,0.6,0.5,0.9c0.6,1,1.1,2,1.6,3c0.2,0.4,0.3,0.7,0.5,1.1c0-0.4,0.1-1.1,0.1-1.2c0.2-1,1.2-2.8,2.3-2.9
										c0.8-0.1,1.5,0.6,1.5,1.4c0,0.8-0.6,1.6-1.2,2c-0.6,0.5-2.1,0.9-2.6,1c0.3,0.6,0.5,1.2,0.8,1.8c0.1,0.3,0.2,0.5,0.3,0.8
										c0.1,0.3,0.2,0.5,0.2,0.8c0.1,0.5,0.3,1,0.4,1.5c0.1,0.2,0.1,0.5,0.2,0.7c0-0.4-0.1-1.1-0.1-1.1c0-1,0.7-3,1.8-3.3
										c0.8-0.2,1.5,0.4,1.7,1.1c0.1,0.8-0.4,1.6-0.9,2.2c-0.6,0.6-2.3,1.3-2.5,1.4c0.1,0.6,0.3,1.2,0.4,1.7
										c0.4,1.7,0.6,3.1,0.7,4.1c0.1,1,0.2,1.6,0.2,1.6l0,0c0,0,0,0,0,0c0,0.2-0.1,0.4-0.4,0.4c-0.2,0-0.4-0.1-0.4-0.4
										C579.1,996.6,579,996.1,578.9,995.1z"/>
									<path class="st7" d="M570.7,968.1c0,0-2,0.1-2.9-0.3c-0.7-0.3-1.5-0.9-1.7-1.7c-0.2-0.8,0.3-1.6,1.1-1.7
										c1.1-0.2,2.6,1.3,3,2.3C570.3,966.8,570.7,968.1,570.7,968.1z"/>
								</g>
								<g>
									<path class="st7" d="M580.1,995.1c0.5-0.9,1.1-2.2,1.8-3.8c0.2-0.5,0.4-0.9,0.6-1.4c-0.2-0.1-1.8-0.9-2.4-1.5
										c-0.5-0.6-1-1.5-0.8-2.2c0.2-0.8,1-1.3,1.7-1c1.1,0.4,1.7,2.3,1.6,3.4c0,0.1-0.1,0.8-0.2,1.2c0.1-0.3,0.2-0.6,0.4-0.9
										c0.2-0.5,0.3-0.9,0.5-1.4c0.1-0.2,0.2-0.5,0.2-0.8c0.1-0.3,0.1-0.5,0.2-0.8c0.1-0.4,0.2-0.8,0.3-1.2
										c-0.5-0.1-1.9-0.6-2.4-1.1c-0.6-0.5-1.2-1.3-1.1-2.1c0.1-0.8,0.7-1.4,1.6-1.3c1.1,0.2,2,2.1,2.1,3.1c0,0,0,0.2,0,0.5
										c0.1-0.4,0.1-0.8,0.2-1.2c0.2-1.1,0.3-2.3,0.4-3.4c0-0.2,0.1-0.5,0.1-0.7c-0.4-0.1-1.9-0.6-2.5-1.1
										c-0.6-0.5-1.2-1.3-1.1-2.1c0.1-0.8,0.7-1.4,1.6-1.3c1.1,0.2,2,2.1,2.1,3.1c0,0,0,0.3,0,0.6c0.1-0.6,0.2-1.2,0.3-1.8
										c0.2-1.1,0.4-2.1,0.7-3.1c-0.1,0-1.9-0.6-2.6-1.1c-0.6-0.5-1.2-1.3-1.1-2.1c0.1-0.8,0.7-1.4,1.6-1.3c1.1,0.2,2,2.1,2.1,3.1
										c0,0.1,0,1,0,1.3c0,0,0,0,0,0c0.3-1,0.8-2,1.3-2.9c0.5-0.9,1-1.7,1.5-2.4c0.5-0.7,1-1.3,1.4-1.9c0.2-0.3,0.5-0.6,0.7-0.8
										c0,0,0,0,0,0c0,0,0.4-1.3,0.4-1.4c0.4-0.9,1.8-2.5,2.9-2.4c0.8,0.1,1.3,0.9,1.2,1.7c-0.2,0.8-1,1.4-1.6,1.7
										c-0.7,0.3-2.3,0.4-2.7,0.4c-0.2,0.3-0.4,0.5-0.7,0.9c-0.4,0.6-0.9,1.2-1.4,1.9c-0.1,0.2-0.3,0.4-0.4,0.6
										c0.3-0.3,0.7-0.7,0.7-0.7c0.8-0.6,2.7-1.4,3.7-0.8c0.7,0.4,0.8,1.4,0.3,2c-0.5,0.6-1.5,0.8-2.3,0.8c-0.8,0-2.3-0.7-2.6-0.9
										c-0.3,0.5-0.6,0.9-0.8,1.4c-0.4,0.9-0.9,1.8-1.2,2.9c0,0.1,0,0.1,0,0.2c0.1-0.2,0.8-1.1,0.9-1.1c0.7-0.7,2.5-1.7,3.6-1.2
										c0.7,0.4,0.9,1.3,0.5,2c-0.4,0.7-1.4,1-2.2,1c-0.9,0.1-2.7-0.6-2.8-0.6c-0.3,1-0.5,2-0.6,3c-0.1,0.8-0.2,1.5-0.3,2.3
										c0.2-0.2,0.8-1.1,0.9-1.1c0.7-0.7,2.5-1.7,3.6-1.2c0.7,0.4,0.9,1.3,0.5,2c-0.4,0.7-1.4,1-2.2,1c-0.9,0.1-2.6-0.6-2.8-0.6
										c0,0.3-0.1,0.7-0.1,1c-0.1,1.1-0.2,2.3-0.3,3.4c0,0.4-0.1,0.8-0.2,1.2c0.2-0.3,0.7-0.9,0.8-0.9c0.7-0.7,2.5-1.7,3.6-1.2
										c0.7,0.4,0.9,1.3,0.5,2c-0.4,0.7-1.4,1-2.2,1c-0.8,0.1-2.3-0.4-2.7-0.6c-0.1,0.6-0.2,1.3-0.4,1.9c-0.1,0.3-0.1,0.5-0.2,0.8
										c-0.1,0.3-0.1,0.5-0.2,0.8c-0.2,0.5-0.3,1-0.5,1.5c-0.1,0.2-0.2,0.5-0.3,0.7c0.2-0.4,0.5-0.9,0.6-1
										c0.6-0.8,2.3-2.1,3.4-1.7c0.8,0.3,1.1,1.1,0.8,1.9c-0.3,0.7-1.2,1.2-2,1.3c-0.8,0.2-2.6-0.2-2.8-0.2
										c-0.2,0.6-0.4,1.1-0.6,1.6c-0.7,1.6-1.3,2.9-1.7,3.8c-0.4,0.9-0.7,1.4-0.7,1.4l0,0c0,0,0,0,0,0c-0.1,0.2-0.4,0.3-0.5,0.2
										c-0.2-0.1-0.3-0.3-0.2-0.5C579.4,996.5,579.6,996,580.1,995.1z"/>
									<path class="st7" d="M588.3,968.1c0,0-1.7-1.1-2.2-1.8c-0.4-0.6-0.8-1.6-0.5-2.3c0.3-0.7,1.1-1.2,1.8-0.8
										c1,0.5,1.4,2.5,1.2,3.5C588.7,966.7,588.3,968.1,588.3,968.1z"/>
								</g>
							</g>
							<g>
								<g>
									<path class="st7" d="M526.6,995.6c-0.1-0.7-0.2-1.8-0.5-3.1c-0.1-0.4-0.1-0.8-0.2-1.2c-0.2,0-1.5,0.2-2.1,0
										c-0.6-0.2-1.2-0.5-1.4-1.1c-0.2-0.6,0.1-1.2,0.7-1.4c0.8-0.2,2,0.8,2.4,1.4c0,0,0.3,0.6,0.4,0.8c-0.1-0.2-0.1-0.5-0.2-0.7
										c-0.1-0.4-0.2-0.7-0.3-1.1c-0.1-0.2-0.1-0.4-0.2-0.6c-0.1-0.2-0.1-0.4-0.2-0.6c-0.1-0.3-0.2-0.6-0.3-0.8
										c-0.4,0.1-1.4,0.4-2,0.3c-0.6-0.1-1.3-0.3-1.6-0.9c-0.3-0.5-0.1-1.2,0.4-1.4c0.8-0.3,2.1,0.5,2.6,1c0,0,0.1,0.2,0.2,0.3
										c-0.1-0.3-0.2-0.5-0.4-0.8c-0.4-0.8-0.8-1.5-1.2-2.3c-0.1-0.2-0.2-0.3-0.2-0.5c-0.3,0.1-1.5,0.4-2,0.3
										c-0.6-0.1-1.3-0.3-1.6-0.9c-0.3-0.5-0.1-1.2,0.4-1.4c0.8-0.3,2.1,0.5,2.6,1c0,0,0.1,0.2,0.3,0.4c-0.2-0.4-0.4-0.8-0.6-1.3
										c-0.3-0.7-0.6-1.5-0.8-2.2c-0.1,0-1.5,0.4-2.1,0.3c-0.6-0.1-1.3-0.3-1.6-0.9c-0.3-0.5-0.1-1.2,0.4-1.4
										c0.8-0.3,2.1,0.5,2.6,1c0,0,0.4,0.6,0.6,0.8c0,0,0,0,0,0c-0.2-0.8-0.3-1.6-0.4-2.3c-0.1-0.7-0.1-1.5-0.1-2.1
										c0-0.7,0.1-1.2,0.1-1.8c0-0.3,0.1-0.5,0.1-0.8c0,0,0,0,0,0c0,0-0.3-1-0.3-1.1c-0.1-0.8,0.1-2.3,0.8-2.7
										c0.6-0.3,1.2,0,1.4,0.6c0.2,0.6,0,1.3-0.3,1.8c-0.3,0.5-1.3,1.2-1.5,1.4c0,0.3-0.1,0.5-0.1,0.8c0,0.5-0.1,1.1-0.1,1.8
										c0,0.2,0,0.4,0,0.5c0.1-0.3,0.1-0.7,0.2-0.8c0.2-0.7,1.1-2,2-2c0.6,0,1.1,0.6,1,1.1c-0.1,0.6-0.6,1.1-1.1,1.4
										c-0.5,0.3-1.8,0.5-2,0.5c0,0.4,0,0.8,0.1,1.2c0.1,0.7,0.2,1.5,0.5,2.3c0,0,0,0.1,0,0.1c0-0.2,0.1-1,0.1-1.1
										c0.2-0.8,0.9-2.1,1.7-2.2c0.6-0.1,1.1,0.4,1.1,1c0,0.6-0.5,1.2-0.9,1.5c-0.5,0.4-2,0.7-2,0.8c0.2,0.7,0.5,1.4,0.9,2.2
										c0.2,0.5,0.5,1,0.8,1.5c0-0.2,0.1-1,0.1-1.1c0.1-0.8,0.9-2.1,1.7-2.2c0.6-0.1,1.1,0.4,1.1,1c0,0.6-0.5,1.2-0.9,1.5
										c-0.5,0.4-1.9,0.7-2,0.7c0.1,0.2,0.2,0.5,0.4,0.7c0.4,0.8,0.8,1.5,1.2,2.3c0.1,0.3,0.3,0.5,0.4,0.8c0-0.3,0.1-0.9,0.1-0.9
										c0.2-0.8,0.9-2.1,1.7-2.2c0.6-0.1,1.1,0.4,1.1,1c0,0.6-0.5,1.2-0.9,1.5c-0.5,0.4-1.6,0.7-1.9,0.7c0.2,0.4,0.4,0.9,0.6,1.3
										c0.1,0.2,0.2,0.4,0.2,0.6c0.1,0.2,0.1,0.4,0.2,0.6c0.1,0.4,0.2,0.8,0.3,1.1c0,0.2,0.1,0.4,0.1,0.5c0-0.3-0.1-0.8-0.1-0.8
										c0-0.8,0.6-2.2,1.4-2.4c0.6-0.2,1.2,0.3,1.3,0.8c0.1,0.6-0.3,1.2-0.7,1.7c-0.4,0.5-1.7,1-1.8,1c0.1,0.4,0.2,0.9,0.3,1.3
										c0.3,1.3,0.4,2.4,0.6,3.1c0.1,0.8,0.2,1.2,0.2,1.2l0,0c0,0,0,0,0,0c0,0.2-0.1,0.3-0.3,0.3c-0.2,0-0.3-0.1-0.3-0.3
										C526.7,996.7,526.7,996.3,526.6,995.6z"/>
									<path class="st7" d="M520.4,975.3c0,0-1.5,0-2.1-0.2c-0.5-0.2-1.1-0.7-1.3-1.2c-0.1-0.6,0.2-1.2,0.8-1.3
										c0.9-0.1,1.9,1,2.3,1.7C520.1,974.3,520.4,975.3,520.4,975.3z"/>
								</g>
								<g>
									<path class="st7" d="M527.5,995.6c0.3-0.7,0.8-1.6,1.3-2.8c0.1-0.3,0.3-0.7,0.5-1.1c-0.2-0.1-1.4-0.7-1.8-1.1
										c-0.4-0.4-0.7-1.1-0.6-1.7c0.1-0.6,0.7-1,1.3-0.8c0.8,0.3,1.3,1.8,1.2,2.5c0,0-0.1,0.6-0.1,0.9c0.1-0.2,0.2-0.5,0.3-0.7
										c0.1-0.3,0.3-0.7,0.4-1.1c0.1-0.2,0.1-0.4,0.2-0.6c0.1-0.2,0.1-0.4,0.2-0.6c0.1-0.3,0.1-0.6,0.2-0.9
										c-0.4-0.1-1.4-0.5-1.8-0.8c-0.4-0.4-0.9-1-0.8-1.6c0-0.6,0.6-1.1,1.2-1c0.9,0.1,1.5,1.6,1.6,2.3c0,0,0,0.2,0,0.4
										c0.1-0.3,0.1-0.6,0.1-0.9c0.1-0.8,0.2-1.7,0.3-2.6c0-0.2,0-0.4,0.1-0.5c-0.3-0.1-1.4-0.5-1.9-0.8c-0.4-0.4-0.9-1-0.8-1.6
										c0-0.6,0.6-1.1,1.2-1c0.9,0.1,1.5,1.6,1.6,2.3c0,0,0,0.2,0,0.4c0.1-0.5,0.1-0.9,0.2-1.4c0.1-0.8,0.3-1.6,0.6-2.3
										c-0.1,0-1.5-0.4-1.9-0.9c-0.4-0.4-0.9-1-0.8-1.6c0-0.6,0.6-1.1,1.2-1c0.9,0.1,1.5,1.6,1.6,2.3c0,0.1,0,0.8,0,1c0,0,0,0,0,0
										c0.3-0.8,0.6-1.5,0.9-2.2c0.4-0.7,0.7-1.3,1.1-1.8c0.4-0.5,0.7-1,1.1-1.4c0.2-0.2,0.4-0.4,0.5-0.6c0,0,0,0,0,0
										c0,0,0.3-1,0.3-1.1c0.3-0.7,1.3-1.9,2.2-1.8c0.6,0.1,1,0.7,0.9,1.2c-0.1,0.6-0.7,1.1-1.2,1.3c-0.5,0.3-1.8,0.3-2.1,0.3
										c-0.2,0.2-0.3,0.4-0.5,0.6c-0.3,0.4-0.7,0.9-1,1.4c-0.1,0.1-0.2,0.3-0.3,0.5c0.2-0.2,0.5-0.5,0.6-0.6
										c0.6-0.5,2-1.1,2.8-0.6c0.5,0.3,0.6,1,0.2,1.5c-0.4,0.5-1.1,0.6-1.7,0.6c-0.6,0-1.7-0.6-2-0.7c-0.2,0.3-0.4,0.7-0.6,1.1
										c-0.3,0.7-0.7,1.4-0.9,2.1c0,0,0,0.1,0,0.1c0.1-0.1,0.6-0.8,0.7-0.8c0.5-0.5,1.9-1.3,2.7-0.9c0.6,0.3,0.7,1,0.4,1.5
										c-0.3,0.5-1.1,0.7-1.6,0.8c-0.7,0.1-2-0.5-2.1-0.5c-0.2,0.7-0.4,1.5-0.5,2.3c-0.1,0.6-0.1,1.1-0.2,1.7
										c0.1-0.2,0.6-0.8,0.7-0.8c0.5-0.5,1.9-1.3,2.7-0.9c0.6,0.3,0.7,1,0.4,1.5c-0.3,0.5-1.1,0.7-1.6,0.8c-0.6,0.1-2-0.4-2.1-0.5
										c0,0.3-0.1,0.5-0.1,0.8c-0.1,0.9-0.2,1.7-0.3,2.6c0,0.3-0.1,0.6-0.1,0.9c0.2-0.2,0.5-0.7,0.6-0.7c0.5-0.5,1.9-1.3,2.7-0.9
										c0.6,0.3,0.7,1,0.4,1.5c-0.3,0.5-1.1,0.7-1.6,0.8c-0.6,0-1.7-0.3-2-0.4c-0.1,0.5-0.2,1-0.3,1.4c-0.1,0.2-0.1,0.4-0.1,0.6
										c-0.1,0.2-0.1,0.4-0.2,0.6c-0.1,0.4-0.2,0.7-0.4,1.1c-0.1,0.2-0.1,0.3-0.2,0.5c0.2-0.3,0.4-0.7,0.4-0.7
										c0.5-0.6,1.7-1.6,2.5-1.3c0.6,0.2,0.8,0.9,0.6,1.4c-0.2,0.6-0.9,0.9-1.5,1c-0.6,0.1-2-0.1-2.1-0.1
										c-0.2,0.4-0.3,0.8-0.5,1.2c-0.5,1.2-0.9,2.2-1.3,2.9c-0.3,0.7-0.5,1.1-0.5,1.1l0,0c0,0,0,0,0,0c-0.1,0.1-0.3,0.2-0.4,0.1
										c-0.1-0.1-0.2-0.3-0.1-0.4C526.9,996.6,527.1,996.2,527.5,995.6z"/>
									<path class="st7" d="M533.6,975.2c0,0-1.3-0.8-1.7-1.4c-0.3-0.5-0.6-1.2-0.4-1.7c0.2-0.6,0.8-0.9,1.4-0.6
										c0.8,0.4,1,1.9,0.9,2.6C533.9,974.2,533.6,975.3,533.6,975.2z"/>
								</g>
							</g>
						</g>
					</g>
					<g>
						<rect x="338.8" y="997.2" class="st27" width="402.5" height="15.7"/>
						<rect x="505.5" y="997.2" class="st25" width="235.8" height="15.7"/>
						<g>
							<line class="st26" x1="527.5" y1="1007" x2="527.5" y2="997.8"/>
							<line class="st26" x1="533.5" y1="997.8" x2="533.5" y2="1002.8"/>
							<line class="st26" x1="539.5" y1="997.8" x2="539.5" y2="1002.8"/>
							<line class="st26" x1="545.5" y1="997.8" x2="545.5" y2="1010.5"/>
							<line class="st26" x1="552.7" y1="997.8" x2="552.7" y2="1003.8"/>
						</g>
						<g>
							<line class="st26" x1="695.4" y1="997.8" x2="695.4" y2="1007"/>
							<line class="st26" x1="701.4" y1="997.8" x2="701.4" y2="1002.8"/>
							<line class="st26" x1="707.4" y1="997.8" x2="707.4" y2="1002.8"/>
							<line class="st26" x1="713.4" y1="997.8" x2="713.4" y2="1010.5"/>
							<line class="st26" x1="720.6" y1="997.8" x2="720.6" y2="1003.8"/>
						</g>
					</g>
				</g>
			</g>
		</g>
		<g>
			<path class="st67" d="M142.7,444.4h173.4c0,0,2.1-6.2-5.7-10.3c-7.8-4.1-11.4-0.7-14.3-4.1c-2.9-3.4,7.8-12.4-13.6-21.3
				c0,0-1.4-19.2-30.7-19.9c-29.2-0.7-21.4,19.2-29.2,24c-7.8,4.8-10-2.7-17.8,2.1c-7.8,4.8-4.3,14.4-10.7,15.8
				c-6.4,1.4-15-6.2-22.8-1.4c-7.8,4.8-7.8,8.9-11.4,8.9c-3.6,0-10.7-2.7-15,0C144,438.7,142.7,444.4,142.7,444.4z"/>
			<path class="st68" d="M142.7,444.4h173.4c0,0,2.1-6.2-5.7-10.3c-7.8-4.1-11.4-0.7-14.3-4.1c-2.9-3.4,7.8-12.4-13.6-21.3
				c0,0-1.4-19.2-30.7-19.9c-29.2-0.7-21.4,19.2-29.2,24c-7.8,4.8-10-2.7-17.8,2.1c-7.8,4.8-4.3,14.4-10.7,15.8
				c-6.4,1.4-15-6.2-22.8-1.4c-7.8,4.8-7.8,8.9-11.4,8.9c-3.6,0-10.7-2.7-15,0C144,438.7,142.7,444.4,142.7,444.4z"/>
		</g>
		<g>
			<path class="st67" d="M664.9,127.4H929c0,0,3.3-9.8-8.7-16.3c-12-6.5-17.4-1.1-21.7-6.5c-4.3-5.4,12-19.6-20.6-33.7
				c0,0-2.2-30.4-46.7-31.5c-44.6-1.1-32.6,30.4-44.6,38c-12,7.6-15.2-4.3-27.2,3.3c-12,7.6-6.5,22.8-16.3,25
				c-9.8,2.2-22.8-9.8-34.8-2.2c-12,7.6-12,14.1-17.4,14.1c-5.4,0-16.3-4.3-22.8,0C666.9,118.4,665,127.4,664.9,127.4z"/>
			<path class="st68" d="M664.9,127.4H929c0,0,3.3-9.8-8.7-16.3c-12-6.5-17.4-1.1-21.7-6.5c-4.3-5.4,12-19.6-20.6-33.7
				c0,0-2.2-30.4-46.7-31.5c-44.6-1.1-32.6,30.4-44.6,38c-12,7.6-15.2-4.3-27.2,3.3c-12,7.6-6.5,22.8-16.3,25
				c-9.8,2.2-22.8-9.8-34.8-2.2c-12,7.6-12,14.1-17.4,14.1c-5.4,0-16.3-4.3-22.8,0C666.9,118.4,665,127.4,664.9,127.4z"/>
		</g>
		<g>
			<path class="st14" d="M514.4,968.4c0,0,28.1,3.6,37,6.3c8.9,2.7,22.8,7,24.7,24.5c0,0,2.7,1.6,2.7,4c0,2.5-0.2,11-2.9,17.4H349.5
				l-11.6-11.1c0,0-1.1-2.4-1.1-4.6c-0.1-2.2,0.2-7.9,0.5-8.5c0.3-0.6,2.4-2.7,5.1-4.4c0,0-0.9-5.9,0.7-11.7
				c1.5-5.8,3.6-11.9,8.8-12H514.4z"/>
			<linearGradient id="SVGID_1_" gradientUnits="userSpaceOnUse" x1="457.7524" y1="992.0881" x2="457.7524" y2="1016.0347">
				<stop  offset="0" style="stop-color:#E84B50"/>
				<stop  offset="0.1643" style="stop-color:#E74449"/>
				<stop  offset="0.5692" style="stop-color:#E6393E"/>
				<stop  offset="1" style="stop-color:#E6353A"/>
			</linearGradient>
			<path style="fill:url(#SVGID_1_);" d="M572.7,988.5c1.7,2.9,2.9,6.4,3.3,10.7c0,0,2.7,1.6,2.7,4c0,2.5-0.2,11-2.9,17.4H349.5
				l-11.6-11.1c0,0-1.1-2.4-1.1-4.6c-0.1-2.2,0.2-7.9,0.5-8.5c0.3-0.6,2.4-2.7,5.1-4.4c0,0-0.2-1.5-0.3-3.7H572.7z"/>
			<g>
				<path class="st16" d="M572.5,988.1c0.1,0.2,0.3,0.4,0.4,0.7h-13.3c-1.2,0-5.5-1.4-8.8-3c-3.4-1.7-25.1-9.2-31-10.8
					c-4.7-1.3-8.6-4.2-10.6-6.6h0.9c2,2.2,5.7,4.9,9.9,6c5.9,1.6,27.8,9.2,31.1,10.8c3.4,1.7,7.5,2.9,8.5,2.9H572.5z"/>
				<path class="st16" d="M421.3,1020.7c-1.3-5.2-4.8-20-4.7-30.1c0.1-11.5,1.2-18.3,6.7-22.2h1.2c-6,3.5-7.2,10.3-7.3,22.2
					c-0.1,10.1,3.5,25.1,4.8,30.1H421.3z"/>
				<path class="st16" d="M505.7,979.5c-0.9-6.3-6.6-9.6-10.2-11.1h1.6c3.6,1.7,8.3,5.1,9.2,11c0.8,5.7,3.1,24.9-0.5,41.3h-0.7
					C508.8,1004.4,506.5,985.2,505.7,979.5z"/>
			</g>
			<path class="st17" d="M340.1,1008.1c1,0,3,0,4.6-3l0,0.1c4.7-8.4,13.4-14,23.4-14c13.5,0,24.7,10.3,26.7,23.7l0-0.1
				c0.5,2.5,2.7,5.6,4.9,5.6s107.4,0,112.4,0s5.4-5.6,5.4-5.6l0,0.1c2-13.4,13.2-23.8,26.7-23.8c15,0,27.1,12.5,27.1,28
				c0,0.3,0,0.7,0,1c1.1,0,2.3,0,2.7,0c0.7,0,2.4-1,2.4-1s0,3.3,0,4.5s-3.4,4.6-6.5,4.6H569h-47.7h-2.6h-125H389h-34.8
				c0,0-6.4-1.5-10.3-4.5v0c0,0-3.9-2.7-4.6-4.2c-0.7-1.5-1.5-4.1-1.6-5.2c-0.1-1.1-0.4-6.2-0.4-6.2S339.1,1008.1,340.1,1008.1z"/>
			<g>
				<ellipse class="st18" cx="544.3" cy="1019.1" rx="20.9" ry="21.6"/>
				<ellipse class="st19" cx="544.3" cy="1019.1" rx="14.3" ry="14.8"/>
				<ellipse class="st18" cx="368.2" cy="1019.1" rx="20.9" ry="21.6"/>
				<ellipse class="st19" cx="368.2" cy="1019.1" rx="14.3" ry="14.8"/>
			</g>
			<path class="st0" d="M562.3,989.7c2.5,4.6,6.8,8.4,9.6,8.4c2.8,0,3-3.8,0.5-8.4c-2.5-4.6-6.8-8.4-9.6-8.4
				C560,981.3,559.7,985.1,562.3,989.7z"/>
			<path class="st17" d="M514.4,968.4c0,0,0.1,3.8-3.7,3.8s-158.9-3.8-158.9-3.8s0.2-1.4,1.7-3.4c1.5-2,14.2-22.5,17.1-23.2
				c2.8-0.7,44.9-2,55.7-2s53.3,1.3,56.1,2.2C485.2,942.9,504.3,957.2,514.4,968.4z"/>
			<g>
				<path class="st20" d="M417.1,970l3.7-29.2l4.9,0.7l2.9,28.8C424.8,970.2,420.9,970.1,417.1,970z"/>
				<path class="st20" d="M495,971.9c-4.2-6.4-16.4-24.2-24.3-30l9,0.8c0,0,16.8,17.2,26.5,29.4C503.5,972.1,499.7,972,495,971.9z"
					/>
				<path class="st20" d="M353.6,965c1.5-2,14.2-22.5,17.1-23.2c0.8-0.2,4.8-0.4,10.3-0.7l2.3,0.2l-16.1,27.5
					c-9.5-0.2-15.4-0.4-15.4-0.4S352,967,353.6,965z"/>
			</g>
			<path class="st21" d="M486.2,944.2c0,0-2.8-4-11.3-4.5c-8.5-0.5-43.5-2.7-67.5-2.4c-24,0.3-30.9,1.2-33.4,1.2
				c-2.5,0-11.8,0.6-11.8,1.1s5.6,2.6,7.1,3C370.9,943.1,415.5,941.7,486.2,944.2z"/>
			<ellipse class="st16" cx="434" cy="979.5" rx="4.7" ry="4.9"/>
			<ellipse class="st22" cx="434" cy="979.5" rx="8.3" ry="1.5"/>
			<path class="st16" d="M343.7,988.5c-0.3,2.2,1.1,4,3.3,4l0,0c2.1,0,4.1-1.8,4.5-4l1.6-10.5c0.3-2.2-1.1-4-3.3-4l0,0
				c-2.1,0-4.1,1.8-4.5,4L343.7,988.5z"/>
		</g>
	</g>
</g>
<g id="Capa_2">
</g>
</svg>
